{
.appVersion = "3151";
.formatVersion = 3;
axes = (
{
name = Weight;
tag = wght;
}
);
classes = (
{
automatic = 1;

glyphs = (
{
color = 6;
glyphname = A;
kernLeft = A;
kernRight = A;
lastChange = "2023-03-10 14:52:46 +0000";
layers = (
{
anchors = (
{
name = bottom;
pos = (325,0);
},
{
name = ogonek;
pos = (617,0);
},
{
name = top;
pos = (342,700);
}
);
guides = (
{
angle = 90;
pos = (413,35);
}
);
layerId = "45069982-2EFC-4B7D-8C53-1932E6EAC4CA";
shapes = (
{
closed = 1;
nodes = (
(43,0,o),
(68,0,o),
(92,0,cs),
(115,0,o),
(160,0,o),
(215,-2,c),
(217,8,o),
(217,25,o),
(215,35,c),
(134,35,l),
(139,95,o),
(152,150,o),
(175,210,cs),
(307,550,l),
(373,720,l),
(353,723,o),
(333,723,o),
(313,720,c),
(302,652,o),
(268,570,o),
(248,519,cs),
(128,210,ls),
(105,150,o),
(84,95,o),
(53,35,c),
(-4,35,l),
(-6,25,o),
(-6,8,o),
(-4,-2,c)
);
},
{
closed = 1;
nodes = (
(595,95,o),
(571,150,o),
(549,210,cs),
(442,500,ls),
(407,596,o),
(383,652,o),
(373,720,c),
(307,550,l),
(433,210,ls),
(455,150,o),
(471,95,o),
(482,35,c),
(413,35,l),
(411,25,o),
(411,8,o),
(413,-2,c),
(458,0,o),
(508,0,o),
(554,0,cs),
(600,0,o),
(630,0,o),
(677,-2,c),
(679,8,o),
(679,25,o),
(677,35,c),
(623,35,l)
);
},
{
closed = 1;
nodes = (
(438,275,l),
(178,275,l),
(178,235,l),
(438,235,l)
);
}
);
userData = {
com.hugojourdan.ColorFlow = {
"0" = 0;
"1" = 0;
"10" = 0;
"11" = 0;
"2" = 0;
"3" = 0;
"4" = 0;
"5" = 0;
"6" = 0;
"7" = 0;
"8" = 0;
"9" = 0;
};
};
width = 681;
},
{
anchors = (
{
name = bottom;
pos = (318,0);
},
{
name = ogonek;
pos = (606,0);
},
{
name = top;
pos = (344,700);
}
);
guides = (
{
angle = 90;
pos = (392,17);
}
);
layerId = "503E420B-61F7-4277-A1BE-A8852071B452";
shapes = (
{
closed = 1;
nodes = (
(34,0,o),
(59,0,o),
(83,0,cs),
(106,0,o),
(161,0,o),
(216,-2,c),
(218,8,o),
(218,25,o),
(216,35,c),
(125,35,l),
(129,95,o),
(144,149,o),
(167,210,cs),
(286,525,l),
(392,720,l),
(372,723,o),
(322,723,o),
(302,720,c),
(292,652,o),
(259,570,o),
(239,519,cs),
(120,210,ls),
(97,150,o),
(74,95,o),
(44,35,c),
(-13,35,l),
(-15,25,o),
(-15,8,o),
(-13,-2,c)
);
},
{
closed = 1;
nodes = (
(616,91,o),
(590,150,o),
(568,210,cs),
(454,518,ls),
(425,596,o),
(403,652,o),
(392,720,c),
(286,525,l),
(405,210,ls),
(428,149,o),
(450,95,o),
(462,35,c),
(392,35,l),
(390,25,o),
(390,8,o),
(392,-2,c),
(437,0,o),
(483,0,o),
(549,0,cs),
(620,0,o),
(640,0,o),
(687,-2,c),
(689,8,o),
(689,25,o),
(687,35,c),
(645,35,l)
);
},
{
closed = 1;
nodes = (
(426,270,l),
(161,270,l),
(161,230,l),
(426,230,l)
);
}
);
userData = {
com.hugojourdan.ColorFlow = {
"0" = 0;
"1" = 0;
"10" = 0;
"11" = 0;
"2" = 0;
"3" = 0;
"4" = 0;
"5" = 0;
"6" = 0;
"7" = 0;
"8" = 0;
"9" = 0;
};
};
width = 690;
},
{
associatedMasterId = "503E420B-61F7-4277-A1BE-A8852071B452";
layerId = "0382C2FF-F800-4864-8231-4D40843BB73E";
name = "Nov 3 20, 17:23";
shapes = (
{
closed = 1;
nodes = (
(641,0,l),
(641,32,l),
(588,32,l),
(564,77,o),
(542,124,o),
(524,172,cs),
(381,560,ls),
(363,610,o),
(348,662,o),
(336,714,c),
(286,714,l),
(277,662,o),
(264,610,o),
(247,560,cs),
(118,172,ls),
(102,124,o),
(83,77,o),
(60,32,c),
(7,32,l),
(7,0,l),
(170,0,l),
(170,32,l),
(118,32,l),
(125,80,o),
(137,126,o),
(152,172,cs),
(175,241,l),
(355,241,l),
(381,172,ls),
(397,126,o),
(411,80,o),
(420,32,c),
(367,32,l),
(367,0,l)
);
},
{
closed = 1;
nodes = (
(343,273,l),
(186,273,l),
(260,498,l)
);
}
);
width = 600;
},
{
associatedMasterId = "45069982-2EFC-4B7D-8C53-1932E6EAC4CA";
layerId = "2E6632BE-65B1-4B7E-A6E7-2954410A0793";
name = "Nov 3 20, 17:23";
shapes = (
{
closed = 1;
nodes = (
(633,0,l),
(633,28,l),
(580,28,l),
(556,73,o),
(534,120,o),
(516,168,cs),
(372,560,ls),
(353,610,o),
(338,662,o),
(327,714,c),
(290,714,l),
(281,662,o),
(268,610,o),
(251,560,cs),
(120,168,ls),
(104,120,o),
(85,73,o),
(62,28,c),
(9,28,l),
(9,0,l),
(168,0,l),
(168,28,l),
(115,28,l),
(123,76,o),
(135,122,o),
(150,168,cs),
(176,245,l),
(383,245,l),
(411,168,ls),
(428,122,o),
(441,76,o),
(451,28,c),
(398,28,l),
(398,0,l)
);
},
{
closed = 1;
nodes = (
(372,273,l),
(185,273,l),
(274,540,l)
);
}
);
visible = 1;
width = 600;
}
);
unicode = 65;
},
{
color = 6;
glyphname = AE;
kernLeft = AE;
kernRight = E;
lastChange = "2023-03-10 14:52:46 +0000";
layers = (
{
anchors = (
{
name = bottom;
pos = (503,0);
},
{
name = top;
pos = (503,700);
}
);
layerId = "45069982-2EFC-4B7D-8C53-1932E6EAC4CA";
shapes = (
{
closed = 1;
nodes = (
(430,682,l),
(402,623,o),
(371,562,o),
(346,519,cs),
(166,210,ls),
(130,149,o),
(96,95,o),
(51,35,c),
(-6,35,l),
(-8,23,o),
(-8,10,o),
(-6,-2,c),
(41,0,o),
(66,0,o),
(90,0,cs),
(113,0,o),
(158,0,o),
(213,-2,c),
(215,10,o),
(215,23,o),
(213,35,c),
(137,35,l),
(156,95,o),
(182,149,o),
(218,210,cs),
(417,550,l),
(488,682,l)
);
},
{
closed = 1;
nodes = (
(501,275,l),
(231,275,l),
(221,235,l),
(501,235,l)
);
},
{
closed = 1;
nodes = (
(888,0,l),
(888,40,l),
(568,40,l),
(561,100,o),
(558,150,o),
(558,210,cs),
(558,350,l),
(503,350,l),
(503,0,l)
);
},
{
closed = 1;
nodes = (
(888,185,l),
(877,187,o),
(867,187,o),
(856,185,c),
(851,95,o),
(820,40,o),
(716,40,c),
(888,40,l)
);
},
{
closed = 1;
nodes = (
(503,350,l),
(558,350,l),
(558,490,ls),
(558,550,o),
(561,600,o),
(568,660,c),
(853,660,l),
(853,700,l),
(503,700,l)
);
},
{
closed = 1;
nodes = (
(681,660,l),
(785,660,o),
(816,615,o),
(821,515,c),
(832,513,o),
(842,513,o),
(853,515,c),
(853,660,l)
);
},
{
closed = 1;
nodes = (
(754,398,o),
(739,380,o),
(693,380,cs),
(503,380,l),
(503,340,l),
(693,340,ls),
(739,340,o),
(754,322,o),
(756,260,c),
(767,258,o),
(777,258,o),
(788,260,c),
(788,460,l),
(777,462,o),
(767,462,o),
(756,460,c)
);
},
{
closed = 1;
nodes = (
(503,350,l),
(448,350,l),
(448,210,ls),
(448,150,o),
(445,95,o),
(438,35,c),
(366,35,l),
(364,25,o),
(364,8,o),
(366,-2,c),
(412,0,o),
(457,0,o),
(503,0,c)
);
},
{
closed = 1;
nodes = (
(457,700,o),
(372,700,o),
(326,702,c),
(324,692,o),
(324,675,o),
(326,665,c),
(438,665,l),
(445,605,o),
(448,550,o),
(448,490,cs),
(448,350,l),
(503,350,l),
(503,700,l)
);
}
);
userData = {
com.hugojourdan.ColorFlow = {
"0" = 0;
"1" = 0;
"10" = 0;
"11" = 0;
"2" = 0;
"3" = 0;
"4" = 0;
"5" = 0;
"6" = 0;
"7" = 0;
"8" = 0;
"9" = 0;
};
};
width = 935;
},
{
anchors = (
{
name = bottom;
pos = (528,0);
},
{
name = top;
pos = (528,700);
}
);
layerId = "503E420B-61F7-4277-A1BE-A8852071B452";
shapes = (
{
closed = 1;
nodes = (
(424,682,l),
(396,623,o),
(365,562,o),
(340,519,cs),
(160,210,ls),
(124,149,o),
(90,95,o),
(45,35,c),
(-12,35,l),
(-14,23,o),
(-14,10,o),
(-12,-2,c),
(35,0,o),
(60,0,o),
(84,0,cs),
(107,0,o),
(162,0,o),
(217,-2,c),
(219,10,o),
(219,23,o),
(217,35,c),
(136,35,l),
(150,95,o),
(176,149,o),
(212,210,cs),
(411,550,l),
(482,682,l)
);
},
{
closed = 1;
nodes = (
(495,275,l),
(225,275,l),
(215,235,l),
(495,235,l)
);
},
{
closed = 1;
nodes = (
(903,0,l),
(903,40,l),
(613,40,l),
(606,100,o),
(603,150,o),
(603,210,cs),
(603,350,l),
(528,350,l),
(528,0,l)
);
},
{
closed = 1;
nodes = (
(903,190,l),
(892,192,o),
(882,192,o),
(871,190,c),
(866,110,o),
(825,40,o),
(721,40,c),
(903,40,l)
);
},
{
closed = 1;
nodes = (
(528,350,l),
(603,350,l),
(603,490,ls),
(603,550,o),
(606,600,o),
(613,660,c),
(868,660,l),
(868,700,l),
(528,700,l)
);
},
{
closed = 1;
nodes = (
(686,660,l),
(790,660,o),
(831,600,o),
(836,510,c),
(847,508,o),
(857,508,o),
(868,510,c),
(868,660,l)
);
},
{
closed = 1;
nodes = (
(759,408,o),
(734,380,o),
(678,380,cs),
(528,380,l),
(528,340,l),
(678,340,ls),
(734,340,o),
(759,312,o),
(761,250,c),
(772,248,o),
(782,248,o),
(793,250,c),
(793,470,l),
(782,472,o),
(772,472,o),
(761,470,c)
);
},
{
closed = 1;
nodes = (
(528,350,l),
(453,350,l),
(453,210,ls),
(453,150,o),
(450,90,o),
(443,35,c),
(376,35,l),
(374,25,o),
(374,8,o),
(376,-2,c),
(422,0,o),
(482,0,o),
(528,0,c)
);
},
{
closed = 1;
nodes = (
(482,700,o),
(452,700,o),
(326,702,c),
(324,692,o),
(324,675,o),
(326,665,c),
(443,665,l),
(450,610,o),
(453,550,o),
(453,490,cs),
(453,350,l),
(528,350,l),
(528,700,l)
);
}
);
userData = {
com.hugojourdan.ColorFlow = {
"0" = 0;
"1" = 0;
"10" = 0;
"11" = 0;
"2" = 0;
"3" = 0;
"4" = 0;
"5" = 0;
"6" = 0;
"7" = 0;
"8" = 0;
"9" = 0;
};
};
width = 947;
}
);
unicode = 198;
},
{
color = 6;
glyphname = B;
kernLeft = H;
lastChange = "2023-03-10 14:52:46 +0000";
layers = (
{
anchors = (
{
name = bottom;
pos = (312,0);
},
{
name = top;
pos = (312,700);
}
);
layerId = "45069982-2EFC-4B7D-8C53-1932E6EAC4CA";
shapes = (
{
closed = 1;
nodes = (
(492,380,o),
(582,432,o),
(582,535,cs),
(582,650,o),
(467,700,o),
(332,700,cs),
(182,700,ls),
(136,700,o),
(91,700,o),
(45,702,c),
(43,692,o),
(43,675,o),
(45,665,c),
(117,665,l),
(124,605,o),
(127,550,o),
(127,490,cs),
(127,210,ls),
(127,150,o),
(124,95,o),
(117,35,c),
(45,35,l),
(43,25,o),
(43,8,o),
(45,-2,c),
(91,0,o),
(136,0,o),
(182,0,cs),
(352,0,ls),
(507,0,o),
(627,72,o),
(627,200,cs),
(627,320,o),
(512,360,o),
(412,370,c)
);
},
{
closed = 1;
nodes = (
(240,100,o),
(237,150,o),
(237,210,cs),
(237,495,ls),
(237,555,o),
(240,600,o),
(247,660,c),
(322,660,ls),
(417,660,o),
(462,603,o),
(462,523,cs),
(462,442,o),
(412,385,o),
(342,385,cs),
(182,385,l),
(182,345,l),
(342,345,ls),
(457,345,o),
(502,278,o),
(502,193,cs),
(502,107,o),
(452,40,o),
(362,40,cs),
(247,40,l)
);
}
);
userData = {
com.hugojourdan.ColorFlow = {
"0" = 0;
"1" = 0;
"10" = 0;
"11" = 0;
"2" = 0;
"3" = 0;
"4" = 0;
"5" = 0;
"6" = 0;
"7" = 0;
"8" = 0;
"9" = 0;
};
};
width = 674;
},
{
anchors = (
{
name = bottom;
pos = (334,0);
},
{
name = top;
pos = (334,700);
}
);
layerId = "503E420B-61F7-4277-A1BE-A8852071B452";
shapes = (
{
closed = 1;
nodes = (
(507,381,o),
(600,434,o),
(600,533,cs),
(600,653,o),
(492,700,o),
(337,700,cs),
(195,700,ls),
(149,700,o),
(89,700,o),
(43,702,c),
(41,692,o),
(41,675,o),
(43,665,c),
(110,665,l),
(117,610,o),
(120,550,o),
(120,490,cs),
(120,210,ls),
(120,150,o),
(117,90,o),
(110,35,c),
(43,35,l),
(41,25,o),
(41,8,o),
(43,-2,c),
(89,0,o),
(149,0,o),
(195,0,cs),
(376,0,ls),
(536,0,o),
(645,75,o),
(645,193,cs),
(645,308,o),
(547,365,o),
(417,371,c)
);
},
{
closed = 1;
nodes = (
(273,100,o),
(270,150,o),
(270,210,cs),
(270,490,ls),
(270,550,o),
(273,600,o),
(280,660,c),
(307,660,ls),
(397,660,o),
(440,612,o),
(440,521,cs),
(440,426,o),
(392,380,o),
(327,380,cs),
(202,380,l),
(202,340,l),
(347,340,ls),
(427,340,o),
(480,283,o),
(480,192,cs),
(480,97,o),
(432,40,o),
(357,40,cs),
(280,40,l)
);
}
);
userData = {
com.hugojourdan.ColorFlow = {
"0" = 0;
"1" = 0;
"10" = 0;
"11" = 0;
"2" = 0;
"3" = 0;
"4" = 0;
"5" = 0;
"6" = 0;
"7" = 0;
"8" = 0;
"9" = 0;
};
};
width = 687;
},
{
associatedMasterId = "45069982-2EFC-4B7D-8C53-1932E6EAC4CA";
layerId = "7A36FBBF-359E-4486-8001-DB64745F7A60";
name = "Nov 3 20, 00:31";
shapes = (
{
closed = 1;
nodes = (
(552,294,o),
(483,354,o),
(382,372,c),
(459,393,o),
(510,446,o),
(510,531,cs),
(510,644,o),
(420,700,o),
(298,700,cs),
(26,700,l),
(26,672,l),
(92,672,l),
(100,626,o),
(104,579,o),
(104,532,cs),
(104,168,ls),
(104,121,o),
(100,74,o),
(92,28,c),
(26,28,l),
(26,0,l),
(314,0,ls),
(451,0,o),
(552,62,o),
(552,189,cs)
);
},
{
closed = 1;
nodes = (
(414,436,o),
(360,378,o),
(272,378,cs),
(214,378,l),
(214,532,ls),
(214,579,o),
(218,626,o),
(226,672,c),
(272,672,ls),
(360,672,o),
(414,614,o),
(414,525,cs)
);
},
{
closed = 1;
nodes = (
(442,90,o),
(378,28,o),
(278,28,cs),
(226,28,l),
(218,74,o),
(214,121,o),
(214,168,cs),
(214,350,l),
(278,350,ls),
(378,350,o),
(442,288,o),
(442,189,cs)
);
}
);
width = 600;
},
{
associatedMasterId = "503E420B-61F7-4277-A1BE-A8852071B452";
layerId = "D4FE6D89-57D7-4DDE-A630-5A6B506E6BA9";
name = "Nov 3 20, 00:31";
shapes = (
{
closed = 1;
nodes = (
(606,296,o),
(538,355,o),
(438,375,c),
(512,397,o),
(560,448,o),
(560,531,cs),
(560,646,o),
(466,700,o),
(341,700,cs),
(22,700,l),
(22,668,l),
(88,668,l),
(96,622,o),
(100,575,o),
(100,528,cs),
(100,172,ls),
(100,125,o),
(96,78,o),
(88,32,c),
(22,32,l),
(22,0,l),
(358,0,ls),
(500,0,o),
(606,60,o),
(606,191,cs)
);
},
{
closed = 1;
nodes = (
(434,441,o),
(391,382,o),
(312,382,cs),
(250,382,l),
(250,528,ls),
(250,575,o),
(254,622,o),
(262,668,c),
(312,668,ls),
(391,668,o),
(434,609,o),
(434,525,cs)
);
},
{
closed = 1;
nodes = (
(466,95,o),
(409,32,o),
(314,32,cs),
(262,32,l),
(254,78,o),
(250,125,o),
(250,172,cs),
(250,350,l),
(314,350,ls),
(409,350,o),
(466,287,o),
(466,191,cs)
);
}
);
visible = 1;
width = 600;
}
);
unicode = 66;
},
{
color = 6;
glyphname = C;
kernLeft = O;
kernRight = C;
lastChange = "2023-03-10 14:52:46 +0000";
layers = (
{
anchors = (
{
name = bottom;
pos = (409,0);
},
{
name = top;
pos = (409,700);
}
);
layerId = "45069982-2EFC-4B7D-8C53-1932E6EAC4CA";
shapes = (
{
closed = 1;
nodes = (
(594,83,o),
(509,27,o),
(412,27,cs),
(237,27,o),
(177,192,o),
(177,360,cs),
(177,528,o),
(242,673,o),
(416,673,cs),
(519,673,o),
(579,622,o),
(599,495,c),
(610,493,o),
(620,493,o),
(631,495,c),
(631,670,l),
(586,692,o),
(514,715,o),
(422,715,cs),
(192,715,o),
(52,568,o),
(52,350,cs),
(52,132,o),
(187,-15,o),
(412,-15,cs),
(514,-15,o),
(594,8,o),
(641,34,c),
(641,210,l),
(630,212,o),
(620,212,o),
(609,210,c)
);
}
);
userData = {
com.hugojourdan.ColorFlow = {
"0" = 0;
"1" = 0;
"10" = 0;
"11" = 0;
"2" = 0;
"3" = 0;
"4" = 0;
"5" = 0;
"6" = 0;
"7" = 0;
"8" = 0;
"9" = 0;
};
};
width = 696;
},
{
anchors = (
{
name = bottom;
pos = (407,0);
},
{
name = top;
pos = (407,700);
}
);
layerId = "503E420B-61F7-4277-A1BE-A8852071B452";
shapes = (
{
closed = 1;
nodes = (
(585,84,o),
(521,27,o),
(427,27,cs),
(262,27,o),
(217,202,o),
(217,366,cs),
(217,538,o),
(267,673,o),
(412,673,cs),
(523,673,o),
(570,616,o),
(595,485,c),
(606,483,o),
(616,483,o),
(627,485,c),
(627,670,l),
(561,702,o),
(491,715,o),
(422,715,cs),
(192,715,o),
(47,568,o),
(47,350,cs),
(47,132,o),
(187,-15,o),
(422,-15,cs),
(504,-15,o),
(571,3,o),
(637,35,c),
(637,215,l),
(626,217,o),
(616,217,o),
(605,215,c)
);
}
);
userData = {
com.hugojourdan.ColorFlow = {
"0" = 0;
"1" = 0;
"10" = 0;
"11" = 0;
"2" = 0;
"3" = 0;
"4" = 0;
"5" = 0;
"6" = 0;
"7" = 0;
"8" = 0;
"9" = 0;
};
};
width = 689;
}
);
unicode = 67;
},
{
color = 6;
glyphname = D;
kernLeft = H;
kernRight = D;
lastChange = "2023-03-10 14:52:46 +0000";
layers = (
{
anchors = (
{
name = bottom;
pos = (392,0);
},
{
name = center;
pos = (392,350);
},
{
name = top;
pos = (392,700);
}
);
layerId = "45069982-2EFC-4B7D-8C53-1932E6EAC4CA";
shapes = (
{
closed = 1;
nodes = (
(136,700,o),
(91,700,o),
(45,702,c),
(43,692,o),
(43,675,o),
(45,665,c),
(117,665,l),
(124,605,o),
(127,550,o),
(127,490,cs),
(127,210,ls),
(127,150,o),
(124,95,o),
(117,35,c),
(45,35,l),
(43,25,o),
(43,8,o),
(45,-2,c),
(91,0,o),
(136,0,o),
(182,0,cs),
(377,0,ls),
(587,0,o),
(732,147,o),
(732,365,cs),
(732,583,o),
(592,700,o),
(377,700,cs),
(182,700,ls)
);
},
{
closed = 1;
nodes = (
(240,100,o),
(237,150,o),
(237,210,cs),
(237,490,ls),
(237,550,o),
(240,600,o),
(247,660,c),
(367,660,ls),
(542,660,o),
(608,528,o),
(608,350,cs),
(608,172,o),
(537,40,o),
(387,40,cs),
(247,40,l)
);
}
);
userData = {
com.hugojourdan.ColorFlow = {
"0" = 0;
"1" = 0;
"10" = 0;
"11" = 0;
"2" = 0;
"3" = 0;
"4" = 0;
"5" = 0;
"6" = 0;
"7" = 0;
"8" = 0;
"9" = 0;
};
};
width = 785;
},
{
anchors = (
{
name = bottom;
pos = (397,0);
},
{
name = center;
pos = (397,350);
},
{
name = top;
pos = (397,700);
}
);
layerId = "503E420B-61F7-4277-A1BE-A8852071B452";
shapes = (
{
closed = 1;
nodes = (
(149,700,o),
(89,700,o),
(43,702,c),
(41,692,o),
(41,675,o),
(43,665,c),
(110,665,l),
(117,610,o),
(120,550,o),
(120,490,cs),
(120,210,ls),
(120,150,o),
(117,90,o),
(110,35,c),
(43,35,l),
(41,25,o),
(41,8,o),
(43,-2,c),
(89,0,o),
(149,0,o),
(195,0,cs),
(376,0,ls),
(616,0,o),
(762,142,o),
(762,364,cs),
(762,578,o),
(621,700,o),
(376,700,cs),
(195,700,ls)
);
},
{
closed = 1;
nodes = (
(273,100,o),
(270,150,o),
(270,210,cs),
(270,490,ls),
(270,550,o),
(273,600,o),
(280,660,c),
(366,660,ls),
(536,660,o),
(592,510,o),
(592,339,cs),
(592,170,o),
(541,40,o),
(386,40,cs),
(280,40,l)
);
}
);
userData = {
com.hugojourdan.ColorFlow = {
"0" = 0;
"1" = 0;
"10" = 0;
"11" = 0;
"2" = 0;
"3" = 0;
"4" = 0;
"5" = 0;
"6" = 0;
"7" = 0;
"8" = 0;
"9" = 0;
};
};
width = 810;
}
);
unicode = 68;
},
{
color = 3;
glyphname = Eth;
kernLeft = H;
kernRight = D;
lastChange = "2023-03-10 14:52:46 +0000";
layers = (
{
layerId = "45069982-2EFC-4B7D-8C53-1932E6EAC4CA";
shapes = (
{
closed = 1;
nodes = (
(459,357,o),
(459,373,o),
(456,390,c),
(46,390,l),
(43,373,o),
(43,357,o),
(46,340,c),
(456,340,l)
);
},
{
pos = (2,0);
ref = D;
}
);
userData = {
com.hugojourdan.ColorFlow = {
"0" = 0;
"1" = 0;
"10" = 0;
"11" = 0;
"2" = 0;
"3" = 0;
"4" = 0;
"5" = 0;
"6" = 0;
"7" = 0;
"8" = 0;
"9" = 0;
};
};
width = 787;
},
{
layerId = "503E420B-61F7-4277-A1BE-A8852071B452";
shapes = (
{
closed = 1;
nodes = (
(494,357,o),
(494,373,o),
(491,390,c),
(41,390,l),
(38,373,o),
(38,357,o),
(41,340,c),
(491,340,l)
);
},
{
pos = (2,0);
ref = D;
}
);
userData = {
com.hugojourdan.ColorFlow = {
"0" = 0;
"1" = 0;
"10" = 0;
"11" = 0;
"2" = 0;
"3" = 0;
"4" = 0;
"5" = 0;
"6" = 0;
"7" = 0;
"8" = 0;
"9" = 0;
};
};
width = 812;
}
);
unicode = 208;
},
{
color = 6;
glyphname = E;
kernLeft = H;
kernRight = E;
lastChange = "2023-03-10 14:52:46 +0000";
layers = (
{
anchors = (
{
name = bottom;
pos = (340,0);
},
{
name = ogonek;
pos = (537,0);
},
{
name = top;
pos = (320,700);
},
{
name = topleft;
pos = (22,700);
}
);
layerId = "45069982-2EFC-4B7D-8C53-1932E6EAC4CA";
shapes = (
{
closed = 1;
nodes = (
(91,0,o),
(136,0,o),
(182,0,cs),
(567,0,l),
(567,185,l),
(556,187,o),
(546,187,o),
(535,185,c),
(530,95,o),
(499,40,o),
(395,40,cs),
(247,40,l),
(240,100,o),
(237,150,o),
(237,210,cs),
(237,490,ls),
(237,550,o),
(240,600,o),
(247,660,c),
(360,660,ls),
(464,660,o),
(495,615,o),
(500,515,c),
(511,513,o),
(521,513,o),
(532,515,c),
(532,700,l),
(182,700,ls),
(136,700,o),
(91,700,o),
(45,702,c),
(43,692,o),
(43,675,o),
(45,665,c),
(117,665,l),
(124,605,o),
(127,550,o),
(127,490,cs),
(127,210,ls),
(127,150,o),
(124,95,o),
(117,35,c),
(45,35,l),
(43,25,o),
(43,8,o),
(45,-2,c)
);
},
{
closed = 1;
nodes = (
(446,258,o),
(456,258,o),
(467,260,c),
(467,460,l),
(456,462,o),
(446,462,o),
(435,460,c),
(433,398,o),
(418,380,o),
(372,380,cs),
(182,380,l),
(182,340,l),
(372,340,ls),
(418,340,o),
(433,322,o),
(435,260,c)
);
}
);
userData = {
com.hugojourdan.ColorFlow = {
"0" = 0;
"1" = 0;
"10" = 0;
"11" = 0;
"2" = 0;
"3" = 0;
"4" = 0;
"5" = 0;
"6" = 0;
"7" = 0;
"8" = 0;
"9" = 0;
};
};
width = 614;
},
{
anchors = (
{
name = bottom;
pos = (327,0);
},
{
name = ogonek;
pos = (540,0);
},
{
name = top;
pos = (328,700);
},
{
name = topleft;
pos = (17,700);
}
);
layerId = "503E420B-61F7-4277-A1BE-A8852071B452";
shapes = (
{
closed = 1;
nodes = (
(89,0,o),
(149,0,o),
(195,0,cs),
(580,0,l),
(580,190,l),
(569,192,o),
(559,192,o),
(548,190,c),
(543,110,o),
(502,40,o),
(398,40,cs),
(280,40,l),
(273,100,o),
(270,150,o),
(270,210,cs),
(270,490,ls),
(270,550,o),
(273,600,o),
(280,660,c),
(363,660,ls),
(467,660,o),
(508,600,o),
(513,510,c),
(524,508,o),
(534,508,o),
(545,510,c),
(545,700,l),
(195,700,ls),
(149,700,o),
(89,700,o),
(43,702,c),
(41,692,o),
(41,675,o),
(43,665,c),
(110,665,l),
(117,610,o),
(120,550,o),
(120,490,cs),
(120,210,ls),
(120,150,o),
(117,90,o),
(110,35,c),
(43,35,l),
(41,25,o),
(41,8,o),
(43,-2,c)
);
},
{
closed = 1;
nodes = (
(449,248,o),
(459,248,o),
(470,250,c),
(470,470,l),
(459,472,o),
(449,472,o),
(438,470,c),
(436,408,o),
(411,380,o),
(355,380,cs),
(195,380,l),
(195,340,l),
(355,340,ls),
(411,340,o),
(436,312,o),
(438,250,c)
);
}
);
userData = {
com.hugojourdan.ColorFlow = {
"0" = 0;
"1" = 0;
"10" = 0;
"11" = 0;
"2" = 0;
"3" = 0;
"4" = 0;
"5" = 0;
"6" = 0;
"7" = 0;
"8" = 0;
"9" = 0;
};
};
width = 624;
},
{
associatedMasterId = "45069982-2EFC-4B7D-8C53-1932E6EAC4CA";
layerId = "60009E37-1443-40CD-9C6F-0B5F08E8891D";
name = "Nov 1 20, 18:56";
shapes = (
{
closed = 1;
nodes = (
(540,0,l),
(540,175,l),
(512,175,l),
(512,99,o),
(469,28,o),
(400,28,cs),
(232,28,l),
(224,74,o),
(220,121,o),
(220,168,cs),
(220,350,l),
(382,350,ls),
(405,350,o),
(424,332,o),
(424,310,cs),
(424,284,l),
(452,284,l),
(452,444,l),
(424,444,l),
(424,418,ls),
(424,396,o),
(405,378,o),
(382,378,cs),
(220,378,l),
(220,532,ls),
(220,579,o),
(224,626,o),
(232,672,c),
(356,672,ls),
(425,672,o),
(468,601,o),
(468,525,c),
(496,525,l),
(496,700,l),
(32,700,l),
(32,672,l),
(98,672,l),
(106,626,o),
(110,579,o),
(110,532,cs),
(110,168,ls),
(110,121,o),
(106,74,o),
(98,28,c),
(32,28,l),
(32,0,l)
);
}
);
width = 606;
}
);
unicode = 69;
},
{
color = 6;
glyphname = Schwa;
kernLeft = O;
kernRight = O;
lastChange = "2023-03-10 14:52:46 +0000";
layers = (
{
background = {
shapes = (
{
alignment = -1;
pos = (-10,0);
ref = _COM_duze_O;
},
{
alignment = -1;
angle = 180;
pos = (720,700);
ref = _COM_duze_O;
}
);
};
layerId = "45069982-2EFC-4B7D-8C53-1932E6EAC4CA";
shapes = (
{
closed = 1;
nodes = (
(241,715,o),
(141,657,o),
(54,541,c),
(65,530,o),
(74,523,o),
(87,515,c),
(162,620,o),
(240,661,o),
(325,661,cs),
(495,661,o),
(575,503,o),
(575,343,cs),
(575,175,o),
(513,25,o),
(365,25,cs),
(261,25,o),
(181,103,o),
(181,266,c),
(603,266,l),
(603,306,l),
(211,306,ls),
(141,306,o),
(95,311,o),
(50,317,c),
(50,95,o),
(151,-15,o),
(356,-15,cs),
(558,-15,o),
(698,122,o),
(698,351,cs),
(698,584,o),
(560,715,o),
(368,715,cs)
);
}
);
userData = {
com.hugojourdan.ColorFlow = {
"0" = 0;
"1" = 0;
"10" = 0;
"11" = 0;
"2" = 0;
"3" = 0;
"4" = 0;
"5" = 0;
"6" = 0;
"7" = 0;
"8" = 0;
"9" = 0;
};
};
width = 751;
},
{
background = {
anchors = (
{
name = bottom;
pos = (381,0);
},
{
name = center;
pos = (381,350);
},
{
name = ogonek;
pos = (497,0);
},
{
name = top;
pos = (381,700);
},
{
name = topleft;
pos = (6,700);
},
{
name = topright;
pos = (756,700);
}
);
shapes = (
{
alignment = -1;
pos = (-4,0);
ref = _COM_duze_O;
},
{
alignment = -1;
angle = 180;
pos = (766,700);
ref = _COM_duze_O;
}
);
};
layerId = "503E420B-61F7-4277-A1BE-A8852071B452";
shapes = (
{
closed = 1;
nodes = (
(250,715,o),
(150,658,o),
(57,543,c),
(68,532,o),
(77,525,o),
(90,517,c),
(173,618,o),
(257,657,o),
(352,657,cs),
(502,657,o),
(573,501,o),
(573,343,cs),
(573,175,o),
(519,25,o),
(390,25,cs),
(294,25,o),
(221,103,o),
(221,265,c),
(628,265,l),
(628,305,l),
(216,305,ls),
(142,305,o),
(93,310,o),
(45,316,c),
(45,95,o),
(156,-15,o),
(381,-15,cs),
(593,-15,o),
(740,122,o),
(740,351,cs),
(740,584,o),
(595,715,o),
(391,715,cs)
);
}
);
userData = {
com.hugojourdan.ColorFlow = {
"0" = 0;
"1" = 0;
"10" = 0;
"11" = 0;
"2" = 0;
"3" = 0;
"4" = 0;
"5" = 0;
"6" = 0;
"7" = 0;
"8" = 0;
"9" = 0;
};
};
width = 788;
}
);
unicode = 399;
},
{
color = 6;
glyphname = F;
kernLeft = H;
lastChange = "2023-03-10 14:52:46 +0000";
layers = (
{
anchors = (
{
name = bottom;
pos = (278,0);
},
{
name = top;
pos = (278,700);
}
);
layerId = "45069982-2EFC-4B7D-8C53-1932E6EAC4CA";
shapes = (
{
closed = 1;
nodes = (
(91,0,o),
(136,0,o),
(182,0,cs),
(228,0,o),
(273,0,o),
(339,-2,c),
(341,8,o),
(341,25,o),
(339,35,c),
(247,35,l),
(240,95,o),
(237,150,o),
(237,210,cs),
(237,490,ls),
(237,550,o),
(240,600,o),
(247,660,c),
(355,660,ls),
(459,660,o),
(490,620,o),
(495,520,c),
(506,518,o),
(516,518,o),
(527,520,c),
(527,700,l),
(182,700,ls),
(136,700,o),
(91,700,o),
(45,702,c),
(43,692,o),
(43,675,o),
(45,665,c),
(117,665,l),
(124,605,o),
(127,550,o),
(127,490,cs),
(127,210,ls),
(127,150,o),
(124,95,o),
(117,35,c),
(45,35,l),
(43,25,o),
(43,8,o),
(45,-2,c)
);
},
{
closed = 1;
nodes = (
(454,248,o),
(464,248,o),
(475,250,c),
(475,450,l),
(464,452,o),
(454,452,o),
(443,450,c),
(441,388,o),
(426,370,o),
(380,370,cs),
(182,370,l),
(182,330,l),
(380,330,ls),
(426,330,o),
(441,312,o),
(443,250,c)
);
}
);
userData = {
com.hugojourdan.ColorFlow = {
"0" = 0;
"1" = 0;
"10" = 0;
"11" = 0;
"2" = 0;
"3" = 0;
"4" = 0;
"5" = 0;
"6" = 0;
"7" = 0;
"8" = 0;
"9" = 0;
};
};
width = 567;
},
{
anchors = (
{
name = bottom;
pos = (282,0);
},
{
name = top;
pos = (282,700);
}
);
layerId = "503E420B-61F7-4277-A1BE-A8852071B452";
shapes = (
{
closed = 1;
nodes = (
(89,0,o),
(149,0,o),
(195,0,cs),
(241,0,o),
(301,0,o),
(377,-2,c),
(379,8,o),
(379,25,o),
(377,35,c),
(280,35,l),
(273,90,o),
(270,150,o),
(270,210,cs),
(270,490,ls),
(270,550,o),
(273,600,o),
(280,660,c),
(358,660,ls),
(462,660,o),
(503,600,o),
(508,510,c),
(519,508,o),
(529,508,o),
(540,510,c),
(540,700,l),
(195,700,ls),
(149,700,o),
(89,700,o),
(43,702,c),
(41,692,o),
(41,675,o),
(43,665,c),
(110,665,l),
(117,610,o),
(120,550,o),
(120,490,cs),
(120,210,ls),
(120,150,o),
(117,90,o),
(110,35,c),
(43,35,l),
(41,25,o),
(41,8,o),
(43,-2,c)
);
},
{
closed = 1;
nodes = (
(469,238,o),
(479,238,o),
(490,240,c),
(490,460,l),
(479,462,o),
(469,462,o),
(458,460,c),
(456,398,o),
(431,370,o),
(375,370,cs),
(195,370,l),
(195,330,l),
(375,330,ls),
(431,330,o),
(456,302,o),
(458,240,c)
);
}
);
userData = {
com.hugojourdan.ColorFlow = {
"0" = 0;
"1" = 0;
"10" = 0;
"11" = 0;
"2" = 0;
"3" = 0;
"4" = 0;
"5" = 0;
"6" = 0;
"7" = 0;
"8" = 0;
"9" = 0;
};
};
width = 577;
}
);
unicode = 70;
},
{
color = 6;
glyphname = G;
kernLeft = O;
kernRight = G;
lastChange = "2023-03-10 14:52:46 +0000";
layers = (
{
anchors = (
{
name = bottom;
pos = (429,0);
},
{
name = top;
pos = (413,700);
}
);
layerId = "45069982-2EFC-4B7D-8C53-1932E6EAC4CA";
shapes = (
{
closed = 1;
nodes = (
(682,300,o),
(657,300,o),
(611,300,cs),
(575,300,o),
(520,300,o),
(474,302,c),
(472,292,o),
(472,275,o),
(474,265,c),
(556,265,l),
(563,205,o),
(566,137,o),
(566,67,c),
(530,41,o),
(469,27,o),
(422,27,cs),
(247,27,o),
(177,192,o),
(177,360,cs),
(177,528,o),
(252,673,o),
(426,673,cs),
(539,673,o),
(599,622,o),
(619,505,c),
(630,503,o),
(640,503,o),
(651,505,c),
(651,670,l),
(606,692,o),
(534,715,o),
(432,715,cs),
(202,715,o),
(52,568,o),
(52,350,cs),
(52,132,o),
(197,-15,o),
(422,-15,cs),
(524,-15,o),
(605,8,o),
(666,40,c),
(666,137,o),
(669,205,o),
(676,265,c),
(728,265,l),
(730,275,o),
(730,292,o),
(728,302,c)
);
}
);
userData = {
com.hugojourdan.ColorFlow = {
"0" = 0;
"1" = 0;
"10" = 0;
"11" = 0;
"2" = 0;
"3" = 0;
"4" = 0;
"5" = 0;
"6" = 0;
"7" = 0;
"8" = 0;
"9" = 0;
};
};
width = 759;
},
{
anchors = (
{
name = bottom;
pos = (414,0);
},
{
name = top;
pos = (414,700);
}
);
layerId = "503E420B-61F7-4277-A1BE-A8852071B452";
shapes = (
{
closed = 1;
nodes = (
(699,300,o),
(654,300,o),
(608,300,cs),
(552,300,o),
(502,300,o),
(456,302,c),
(454,292,o),
(454,275,o),
(456,265,c),
(533,265,l),
(540,210,o),
(543,150,o),
(543,72,c),
(512,42,o),
(477,27,o),
(427,27,cs),
(267,27,o),
(217,202,o),
(217,366,cs),
(217,538,o),
(272,673,o),
(427,673,cs),
(548,673,o),
(595,606,o),
(620,485,c),
(631,483,o),
(641,483,o),
(652,485,c),
(652,670,l),
(586,702,o),
(516,715,o),
(437,715,cs),
(197,715,o),
(47,568,o),
(47,350,cs),
(47,132,o),
(192,-15,o),
(427,-15,cs),
(507,-15,o),
(574,3,o),
(683,50,c),
(683,150,o),
(686,210,o),
(693,265,c),
(745,265,l),
(747,275,o),
(747,292,o),
(745,302,c)
);
}
);
userData = {
com.hugojourdan.ColorFlow = {
"0" = 0;
"1" = 0;
"10" = 0;
"11" = 0;
"2" = 0;
"3" = 0;
"4" = 0;
"5" = 0;
"6" = 0;
"7" = 0;
"8" = 0;
"9" = 0;
};
};
width = 767;
}
);
unicode = 71;
},
{
color = 6;
glyphname = H;
kernLeft = H;
kernRight = H;
lastChange = "2023-03-10 14:52:46 +0000";
layers = (
{
anchors = (
{
name = bottom;
pos = (407,0);
},
{
name = center;
pos = (407,350);
},
{
name = ogonek;
pos = (699,0);
},
{
name = top;
pos = (407,700);
},
{
name = topleft;
pos = (27,700);
}
);
layerId = "45069982-2EFC-4B7D-8C53-1932E6EAC4CA";
shapes = (
{
closed = 1;
nodes = (
(541,0,o),
(586,0,o),
(632,0,cs),
(678,0,o),
(723,0,o),
(769,-2,c),
(771,8,o),
(771,25,o),
(769,35,c),
(697,35,l),
(690,95,o),
(687,150,o),
(687,210,cs),
(687,490,ls),
(687,550,o),
(690,605,o),
(697,665,c),
(769,665,l),
(771,675,o),
(771,692,o),
(769,702,c),
(723,700,o),
(678,700,o),
(632,700,cs),
(586,700,o),
(541,700,o),
(495,702,c),
(493,692,o),
(493,675,o),
(495,665,c),
(567,665,l),
(574,605,o),
(577,550,o),
(577,490,cs),
(577,210,ls),
(577,150,o),
(574,95,o),
(567,35,c),
(495,35,l),
(493,25,o),
(493,8,o),
(495,-2,c)
);
},
{
closed = 1;
nodes = (
(91,0,o),
(136,0,o),
(182,0,cs),
(228,0,o),
(273,0,o),
(319,-2,c),
(321,8,o),
(321,25,o),
(319,35,c),
(247,35,l),
(240,95,o),
(237,150,o),
(237,210,cs),
(237,490,ls),
(237,550,o),
(240,605,o),
(247,665,c),
(319,665,l),
(321,675,o),
(321,692,o),
(319,702,c),
(273,700,o),
(228,700,o),
(182,700,cs),
(136,700,o),
(91,700,o),
(45,702,c),
(43,692,o),
(43,675,o),
(45,665,c),
(117,665,l),
(124,605,o),
(127,550,o),
(127,490,cs),
(127,210,ls),
(127,150,o),
(124,95,o),
(117,35,c),
(45,35,l),
(43,25,o),
(43,8,o),
(45,-2,c)
);
},
{
closed = 1;
nodes = (
(609,350,l),
(609,390,l),
(165,390,l),
(165,350,l)
);
}
);
userData = {
com.hugojourdan.ColorFlow = {
"0" = 0;
"1" = 0;
"10" = 0;
"11" = 0;
"2" = 0;
"3" = 0;
"4" = 0;
"5" = 0;
"6" = 0;
"7" = 0;
"8" = 0;
"9" = 0;
};
};
width = 814;
},
{
anchors = (
{
name = bottom;
pos = (420,0);
},
{
name = center;
pos = (420,350);
},
{
name = ogonek;
pos = (707,0);
},
{
name = top;
pos = (420,700);
},
{
name = topleft;
pos = (22,700);
}
);
layerId = "503E420B-61F7-4277-A1BE-A8852071B452";
shapes = (
{
closed = 1;
nodes = (
(539,0,o),
(599,0,o),
(645,0,cs),
(691,0,o),
(751,0,o),
(797,-2,c),
(799,8,o),
(799,25,o),
(797,35,c),
(730,35,l),
(723,90,o),
(720,150,o),
(720,210,cs),
(720,490,ls),
(720,550,o),
(723,610,o),
(730,665,c),
(797,665,l),
(799,675,o),
(799,692,o),
(797,702,c),
(751,700,o),
(691,700,o),
(645,700,cs),
(599,700,o),
(539,700,o),
(493,702,c),
(491,692,o),
(491,675,o),
(493,665,c),
(560,665,l),
(567,610,o),
(570,550,o),
(570,490,cs),
(570,210,ls),
(570,150,o),
(567,90,o),
(560,35,c),
(493,35,l),
(491,25,o),
(491,8,o),
(493,-2,c)
);
},
{
closed = 1;
nodes = (
(89,0,o),
(149,0,o),
(195,0,cs),
(241,0,o),
(301,0,o),
(347,-2,c),
(349,8,o),
(349,25,o),
(347,35,c),
(280,35,l),
(273,90,o),
(270,150,o),
(270,210,cs),
(270,490,ls),
(270,550,o),
(273,610,o),
(280,665,c),
(347,665,l),
(349,675,o),
(349,692,o),
(347,702,c),
(301,700,o),
(241,700,o),
(195,700,cs),
(149,700,o),
(89,700,o),
(43,702,c),
(41,692,o),
(41,675,o),
(43,665,c),
(110,665,l),
(117,610,o),
(120,550,o),
(120,490,cs),
(120,210,ls),
(120,150,o),
(117,90,o),
(110,35,c),
(43,35,l),
(41,25,o),
(41,8,o),
(43,-2,c)
);
},
{
closed = 1;
nodes = (
(629,350,l),
(629,390,l),
(185,390,l),
(185,350,l)
);
}
);
userData = {
com.hugojourdan.ColorFlow = {
"0" = 0;
"1" = 0;
"10" = 0;
"11" = 0;
"2" = 0;
"3" = 0;
"4" = 0;
"5" = 0;
"6" = 0;
"7" = 0;
"8" = 0;
"9" = 0;
};
};
width = 840;
}
);
unicode = 72;
},
{
color = 3;
glyphname = Hbar;
kernLeft = H;
kernRight = H;
lastChange = "2023-03-10 14:52:46 +0000";
layers = (
{
layerId = "45069982-2EFC-4B7D-8C53-1932E6EAC4CA";
shapes = (
{
closed = 1;
nodes = (
(790,507,o),
(790,523,o),
(787,540,c),
(27,540,l),
(24,523,o),
(24,507,o),
(27,490,c),
(787,490,l)
);
},
{
pos = (5,0);
ref = H;
}
);
userData = {
com.hugojourdan.ColorFlow = {
"0" = 0;
"1" = 0;
"10" = 0;
"11" = 0;
"2" = 0;
"3" = 0;
"4" = 0;
"5" = 0;
"6" = 0;
"7" = 0;
"8" = 0;
"9" = 0;
};
};
width = 822;
},
{
layerId = "503E420B-61F7-4277-A1BE-A8852071B452";
shapes = (
{
closed = 1;
nodes = (
(800,507,o),
(800,523,o),
(797,540,c),
(37,540,l),
(34,523,o),
(34,507,o),
(37,490,c),
(797,490,l)
);
},
{
pos = (2,0);
ref = H;
}
);
userData = {
com.hugojourdan.ColorFlow = {
"0" = 0;
"1" = 0;
"10" = 0;
"11" = 0;
"2" = 0;
"3" = 0;
"4" = 0;
"5" = 0;
"6" = 0;
"7" = 0;
"8" = 0;
"9" = 0;
};
};
width = 843;
}
);
unicode = 294;
},
{
color = 6;
glyphname = I;
kernLeft = H;
kernRight = H;
lastChange = "2023-03-10 14:52:46 +0000";
layers = (
{
anchors = (
{
name = bottom;
pos = (182,0);
},
{
name = ogonek;
pos = (249,0);
},
{
name = top;
pos = (182,700);
},
{
name = topleft;
pos = (22,700);
}
);
layerId = "45069982-2EFC-4B7D-8C53-1932E6EAC4CA";
shapes = (
{
closed = 1;
nodes = (
(91,0,o),
(136,0,o),
(182,0,cs),
(228,0,o),
(273,0,o),
(319,-2,c),
(321,8,o),
(321,25,o),
(319,35,c),
(247,35,l),
(240,95,o),
(237,150,o),
(237,210,cs),
(237,490,ls),
(237,550,o),
(240,605,o),
(247,665,c),
(319,665,l),
(321,675,o),
(321,692,o),
(319,702,c),
(273,700,o),
(228,700,o),
(182,700,cs),
(136,700,o),
(91,700,o),
(45,702,c),
(43,692,o),
(43,675,o),
(45,665,c),
(117,665,l),
(124,605,o),
(127,550,o),
(127,490,cs),
(127,210,ls),
(127,150,o),
(124,95,o),
(117,35,c),
(45,35,l),
(43,25,o),
(43,8,o),
(45,-2,c)
);
}
);
userData = {
com.hugojourdan.ColorFlow = {
"0" = 0;
"1" = 0;
"10" = 0;
"11" = 0;
"2" = 0;
"3" = 0;
"4" = 0;
"5" = 0;
"6" = 0;
"7" = 0;
"8" = 0;
"9" = 0;
};
};
width = 364;
},
{
anchors = (
{
name = bottom;
pos = (195,0);
},
{
name = ogonek;
pos = (257,0);
},
{
name = top;
pos = (195,700);
},
{
name = topleft;
pos = (17,700);
}
);
layerId = "503E420B-61F7-4277-A1BE-A8852071B452";
shapes = (
{
closed = 1;
nodes = (
(89,0,o),
(149,0,o),
(195,0,cs),
(241,0,o),
(301,0,o),
(347,-2,c),
(349,8,o),
(349,25,o),
(347,35,c),
(280,35,l),
(273,90,o),
(270,150,o),
(270,210,cs),
(270,490,ls),
(270,550,o),
(273,610,o),
(280,665,c),
(347,665,l),
(349,675,o),
(349,692,o),
(347,702,c),
(301,700,o),
(241,700,o),
(195,700,cs),
(149,700,o),
(89,700,o),
(43,702,c),
(41,692,o),
(41,675,o),
(43,665,c),
(110,665,l),
(117,610,o),
(120,550,o),
(120,490,cs),
(120,210,ls),
(120,150,o),
(117,90,o),
(110,35,c),
(43,35,l),
(41,25,o),
(41,8,o),
(43,-2,c)
);
}
);
userData = {
com.hugojourdan.ColorFlow = {
"0" = 0;
"1" = 0;
"10" = 0;
"11" = 0;
"2" = 0;
"3" = 0;
"4" = 0;
"5" = 0;
"6" = 0;
"7" = 0;
"8" = 0;
"9" = 0;
};
};
width = 390;
}
);
unicode = 73;
},
{
color = 6;
glyphname = J;
kernLeft = J;
kernRight = J;
lastChange = "2023-03-10 14:52:46 +0000";
layers = (
{
anchors = (
{
name = bottom;
pos = (207,0);
},
{
name = top;
pos = (282,700);
}
);
layerId = "45069982-2EFC-4B7D-8C53-1932E6EAC4CA";
shapes = (
{
closed = 1;
nodes = (
(278,-15,o),
(343,35,o),
(343,145,cs),
(343,490,ls),
(343,550,o),
(346,605,o),
(353,665,c),
(425,665,l),
(427,675,o),
(427,692,o),
(425,702,c),
(379,700,o),
(334,700,o),
(288,700,cs),
(242,700,o),
(197,700,o),
(131,702,c),
(129,692,o),
(129,675,o),
(131,665,c),
(223,665,l),
(230,605,o),
(233,550,o),
(233,490,cs),
(233,145,ls),
(233,53,o),
(214,20,o),
(177,20,cs),
(136,20,o),
(123,53,o),
(123,145,c),
(18,145,l),
(18,28,o),
(78,-15,o),
(177,-15,cs)
);
}
);
userData = {
com.hugojourdan.ColorFlow = {
"0" = 0;
"1" = 0;
"10" = 0;
"11" = 0;
"2" = 0;
"3" = 0;
"4" = 0;
"5" = 0;
"6" = 0;
"7" = 0;
"8" = 0;
"9" = 0;
};
};
width = 459;
},
{
anchors = (
{
name = bottom;
pos = (259,0);
},
{
name = top;
pos = (324,700);
}
);
layerId = "503E420B-61F7-4277-A1BE-A8852071B452";
shapes = (
{
closed = 1;
nodes = (
(307,-15,o),
(412,15,o),
(412,165,cs),
(412,490,ls),
(412,550,o),
(415,610,o),
(422,665,c),
(489,665,l),
(491,675,o),
(491,692,o),
(489,702,c),
(443,700,o),
(383,700,o),
(337,700,cs),
(291,700,o),
(231,700,o),
(155,702,c),
(153,692,o),
(153,675,o),
(155,665,c),
(252,665,l),
(259,610,o),
(262,550,o),
(262,490,cs),
(262,145,ls),
(262,44,o),
(245,20,o),
(209,20,cs),
(169,20,o),
(152,65,o),
(152,165,c),
(12,165,l),
(12,18,o),
(107,-15,o),
(211,-15,cs)
);
}
);
userData = {
com.hugojourdan.ColorFlow = {
"0" = 0;
"1" = 0;
"10" = 0;
"11" = 0;
"2" = 0;
"3" = 0;
"4" = 0;
"5" = 0;
"6" = 0;
"7" = 0;
"8" = 0;
"9" = 0;
};
};
width = 521;
},
{
associatedMasterId = "503E420B-61F7-4277-A1BE-A8852071B452";
layerId = "1715D93D-F64C-41DC-AC19-451A84F52DCF";
name = "Nov 3 20, 17:00";
shapes = (
{
closed = 1;
nodes = (
(445,668,l),
(445,700,l),
(139,700,l),
(139,668,l),
(205,668,l),
(213,622,o),
(217,575,o),
(217,528,cs),
(217,84,ls),
(217,53,o),
(216,18,o),
(189,18,cs),
(162,18,o),
(161,53,o),
(161,84,cs),
(161,150,l),
(11,150,l),
(11,97,l),
(55,6,o),
(88,-14,o),
(189,-14,cs),
(296,-14,o),
(367,46,o),
(367,150,cs),
(367,528,ls),
(367,575,o),
(371,622,o),
(379,668,c)
);
}
);
width = 455;
},
{
associatedMasterId = "45069982-2EFC-4B7D-8C53-1932E6EAC4CA";
layerId = "0E9E6A32-06E3-42E8-A682-B4E78E34383A";
name = "Nov 3 20, 17:00";
shapes = (
{
closed = 1;
nodes = (
(431,672,l),
(431,700,l),
(165,700,l),
(165,672,l),
(231,672,l),
(239,626,o),
(243,579,o),
(243,532,cs),
(243,70,ls),
(243,38,o),
(215,14,o),
(183,14,cs),
(151,14,o),
(123,38,o),
(123,70,cs),
(123,125,l),
(13,125,l),
(13,81,l),
(62,2,o),
(91,-14,o),
(183,-14,cs),
(282,-14,o),
(353,33,o),
(353,125,cs),
(353,532,ls),
(353,579,o),
(357,626,o),
(365,672,c)
);
}
);
width = 451;
}
);
unicode = 74;
},
{
color = 6;
glyphname = K;
kernLeft = H;
kernRight = K;
lastChange = "2023-03-10 14:52:46 +0000";
layers = (
{
anchors = (
{
name = bottom;
pos = (418,0);
},
{
name = top;
pos = (367,700);
}
);
layerId = "45069982-2EFC-4B7D-8C53-1932E6EAC4CA";
shapes = (
{
closed = 1;
nodes = (
(91,0,o),
(136,0,o),
(182,0,cs),
(228,0,o),
(273,0,o),
(319,-2,c),
(321,8,o),
(321,25,o),
(319,35,c),
(247,35,l),
(240,95,o),
(237,150,o),
(237,210,cs),
(237,490,ls),
(237,550,o),
(240,605,o),
(247,665,c),
(319,665,l),
(321,675,o),
(321,692,o),
(319,702,c),
(273,700,o),
(228,700,o),
(182,700,cs),
(136,700,o),
(91,700,o),
(45,702,c),
(43,692,o),
(43,675,o),
(45,665,c),
(117,665,l),
(124,605,o),
(127,550,o),
(127,490,cs),
(127,210,ls),
(127,150,o),
(124,95,o),
(117,35,c),
(45,35,l),
(43,25,o),
(43,8,o),
(45,-2,c)
);
},
{
closed = 1;
nodes = (
(631,-10,o),
(658,-6,o),
(690,0,c),
(692,12,o),
(692,23,o),
(690,35,c),
(629,39,o),
(614,51,o),
(599,107,cs),
(558,263,ls),
(539,334,o),
(520,376,o),
(406,381,c),
(429,388,o),
(459,402,o),
(479,437,cs),
(506,485,o),
(524,549,o),
(537,586,cs),
(550,624,o),
(566,650,o),
(581,665,c),
(657,665,l),
(659,675,o),
(659,692,o),
(657,702,c),
(601,700,o),
(560,700,o),
(534,700,cs),
(508,700,o),
(479,700,o),
(423,702,c),
(421,692,o),
(421,675,o),
(423,665,c),
(491,665,l),
(493,636,o),
(491,608,o),
(485,583,cs),
(473,534,o),
(453,488,o),
(435,455,cs),
(414,416,o),
(361,390,o),
(294,390,cs),
(232,390,l),
(232,350,l),
(311,350,ls),
(406,350,o),
(429,312,o),
(447,243,cs),
(482,107,ls),
(502,29,o),
(521,-10,o),
(601,-10,cs)
);
}
);
userData = {
com.hugojourdan.ColorFlow = {
"0" = 0;
"1" = 0;
"10" = 0;
"11" = 0;
"2" = 0;
"3" = 0;
"4" = 0;
"5" = 0;
"6" = 0;
"7" = 0;
"8" = 0;
"9" = 0;
};
};
width = 704;
},
{
anchors = (
{
name = bottom;
pos = (419,0);
},
{
name = top;
pos = (392,700);
}
);
layerId = "503E420B-61F7-4277-A1BE-A8852071B452";
shapes = (
{
closed = 1;
nodes = (
(89,0,o),
(149,0,o),
(195,0,cs),
(241,0,o),
(301,0,o),
(347,-2,c),
(349,8,o),
(349,25,o),
(347,35,c),
(280,35,l),
(273,90,o),
(270,150,o),
(270,210,cs),
(270,490,ls),
(270,550,o),
(273,610,o),
(280,665,c),
(347,665,l),
(349,675,o),
(349,692,o),
(347,702,c),
(301,700,o),
(241,700,o),
(195,700,cs),
(149,700,o),
(89,700,o),
(43,702,c),
(41,692,o),
(41,675,o),
(43,665,c),
(110,665,l),
(117,610,o),
(120,550,o),
(120,490,cs),
(120,210,ls),
(120,150,o),
(117,90,o),
(110,35,c),
(43,35,l),
(41,25,o),
(41,8,o),
(43,-2,c)
);
},
{
closed = 1;
nodes = (
(635,-10,o),
(660,-7,o),
(702,0,c),
(704,12,o),
(704,23,o),
(702,35,c),
(653,39,o),
(634,51,o),
(623,107,cs),
(597,238,ls),
(575,347,o),
(533,381,o),
(425,381,c),
(445,386,o),
(472,398,o),
(496,441,cs),
(525,493,o),
(542,549,o),
(555,586,cs),
(568,624,o),
(583,650,o),
(595,665,c),
(670,665,l),
(672,675,o),
(672,692,o),
(670,702,c),
(614,700,o),
(574,700,o),
(548,700,cs),
(522,700,o),
(492,700,o),
(436,702,c),
(434,692,o),
(434,675,o),
(436,665,c),
(511,665,l),
(513,636,o),
(510,608,o),
(504,583,cs),
(492,534,o),
(475,496,o),
(455,459,cs),
(430,412,o),
(365,390,o),
(298,390,cs),
(236,390,l),
(236,350,l),
(315,350,ls),
(401,350,o),
(426,322,o),
(440,248,cs),
(466,107,ls),
(480,29,o),
(503,-10,o),
(609,-10,c)
);
}
);
userData = {
com.hugojourdan.ColorFlow = {
"0" = 0;
"1" = 0;
"10" = 0;
"11" = 0;
"2" = 0;
"3" = 0;
"4" = 0;
"5" = 0;
"6" = 0;
"7" = 0;
"8" = 0;
"9" = 0;
};
};
width = 714;
},
{
associatedMasterId = "45069982-2EFC-4B7D-8C53-1932E6EAC4CA";
backgroundImage = {
imagePath = "/Downloads/19281931_Potawski_Antykwa-poster.png";
locked = 1;
pos = (-9151,-1116);
scale = (6.7193,6.7193);
};
layerId = "63E9D5DE-420E-411E-9407-CD1D96B98881";
name = "Nov 3 20, 23:01";
shapes = (
{
closed = 1;
nodes = (
(624,-7,l),
(624,21,l),
(610,21,ls),
(566,21,o),
(551,73,o),
(547,122,cs),
(539,217,ls),
(531,314,o),
(436,362,o),
(329,375,c),
(364,393,o),
(395,422,o),
(416,457,cs),
(437,490,o),
(449,527,o),
(459,565,cs),
(474,617,o),
(498,672,o),
(549,672,cs),
(582,672,l),
(582,700,l),
(409,700,l),
(409,672,l),
(453,672,l),
(443,640,o),
(434,607,o),
(426,574,cs),
(417,539,o),
(410,504,o),
(393,472,cs),
(360,414,o),
(299,378,o),
(232,378,cs),
(214,378,l),
(214,532,ls),
(214,579,o),
(218,626,o),
(226,672,c),
(292,672,l),
(292,700,l),
(26,700,l),
(26,672,l),
(92,672,l),
(100,626,o),
(104,579,o),
(104,532,cs),
(104,168,ls),
(104,121,o),
(100,74,o),
(92,28,c),
(26,28,l),
(26,0,l),
(292,0,l),
(292,28,l),
(226,28,l),
(218,74,o),
(214,121,o),
(214,168,cs),
(214,350,l),
(269,350,ls),
(368,350,o),
(409,326,o),
(417,231,cs),
(427,112,ls),
(434,24,o),
(463,-7,o),
(551,-7,cs)
);
}
);
width = 630;
},
{
associatedMasterId = "503E420B-61F7-4277-A1BE-A8852071B452";
layerId = "0C429CB5-B70F-47A5-A555-33C77D04841A";
name = "Nov 4 20, 15:32";
shapes = (
{
closed = 1;
nodes = (
(660,-7,l),
(660,25,l),
(644,25,ls),
(602,25,o),
(595,78,o),
(591,126,cs),
(583,221,ls),
(575,320,o),
(516,378,o),
(378,379,c),
(409,398,o),
(435,424,o),
(455,456,cs),
(475,489,o),
(487,525,o),
(498,562,cs),
(514,614,o),
(538,668,o),
(589,668,cs),
(622,668,l),
(622,700,l),
(441,700,l),
(441,668,l),
(485,668,l),
(476,637,o),
(467,605,o),
(460,574,cs),
(452,539,o),
(445,504,o),
(427,473,cs),
(397,417,o),
(339,382,o),
(275,382,cs),
(250,382,l),
(250,528,ls),
(250,575,o),
(254,622,o),
(262,668,c),
(328,668,l),
(328,700,l),
(22,700,l),
(22,668,l),
(88,668,l),
(96,622,o),
(100,575,o),
(100,528,cs),
(100,172,ls),
(100,125,o),
(96,78,o),
(88,32,c),
(22,32,l),
(22,0,l),
(328,0,l),
(328,32,l),
(262,32,l),
(254,78,o),
(250,125,o),
(250,172,cs),
(250,350,l),
(325,350,ls),
(403,350,o),
(419,314,o),
(426,231,cs),
(436,112,ls),
(444,21,o),
(488,-7,o),
(560,-7,cs)
);
}
);
visible = 1;
width = 670;
}
);
unicode = 75;
},
{
color = 6;
glyphname = L;
kernLeft = H;
kernRight = L;
lastChange = "2023-03-10 14:52:46 +0000";
layers = (
{
anchors = (
{
name = bottom;
pos = (323,0);
},
{
name = center;
pos = (272,350);
},
{
name = top;
pos = (182,700);
},
{
name = topright;
pos = (522,700);
}
);
layerId = "45069982-2EFC-4B7D-8C53-1932E6EAC4CA";
shapes = (
{
closed = 1;
nodes = (
(91,0,o),
(136,0,o),
(182,0,cs),
(552,0,l),
(552,205,l),
(541,207,o),
(531,207,o),
(520,205,c),
(515,90,o),
(484,35,o),
(380,35,cs),
(247,35,l),
(240,95,o),
(237,150,o),
(237,210,cs),
(237,490,ls),
(237,550,o),
(240,605,o),
(247,665,c),
(319,665,l),
(321,675,o),
(321,692,o),
(319,702,c),
(273,700,o),
(228,700,o),
(182,700,cs),
(136,700,o),
(91,700,o),
(45,702,c),
(43,692,o),
(43,675,o),
(45,665,c),
(117,665,l),
(124,605,o),
(127,550,o),
(127,490,cs),
(127,210,ls),
(127,150,o),
(124,95,o),
(117,35,c),
(45,35,l),
(43,25,o),
(43,8,o),
(45,-2,c)
);
}
);
userData = {
com.hugojourdan.ColorFlow = {
"0" = 0;
"1" = 0;
"10" = 0;
"11" = 0;
"2" = 0;
"3" = 0;
"4" = 0;
"5" = 0;
"6" = 0;
"7" = 0;
"8" = 0;
"9" = 0;
};
};
width = 582;
},
{
anchors = (
{
name = bottom;
pos = (329,0);
},
{
name = center;
pos = (279,350);
},
{
name = top;
pos = (194,700);
},
{
name = topright;
pos = (540,700);
}
);
layerId = "503E420B-61F7-4277-A1BE-A8852071B452";
shapes = (
{
closed = 1;
nodes = (
(89,0,o),
(149,0,o),
(195,0,cs),
(560,0,l),
(560,210,l),
(549,212,o),
(539,212,o),
(528,210,c),
(523,110,o),
(482,40,o),
(378,40,cs),
(280,40,l),
(273,100,o),
(270,150,o),
(270,210,cs),
(270,490,ls),
(270,550,o),
(273,610,o),
(280,665,c),
(347,665,l),
(349,675,o),
(349,692,o),
(347,702,c),
(301,700,o),
(241,700,o),
(195,700,cs),
(149,700,o),
(89,700,o),
(43,702,c),
(41,692,o),
(41,675,o),
(43,665,c),
(110,665,l),
(117,610,o),
(120,550,o),
(120,490,cs),
(120,210,ls),
(120,150,o),
(117,90,o),
(110,35,c),
(43,35,l),
(41,25,o),
(41,8,o),
(43,-2,c)
);
}
);
userData = {
com.hugojourdan.ColorFlow = {
"0" = 0;
"1" = 0;
"10" = 0;
"11" = 0;
"2" = 0;
"3" = 0;
"4" = 0;
"5" = 0;
"6" = 0;
"7" = 0;
"8" = 0;
"9" = 0;
};
};
width = 586;
}
);
unicode = 76;
},
{
color = 3;
glyphname = Lslash;
kernRight = L;
lastChange = "2023-03-10 14:52:46 +0000";
layers = (
{
layerId = "45069982-2EFC-4B7D-8C53-1932E6EAC4CA";
shapes = (
{
closed = 1;
nodes = (
(75,279,o),
(30,229,o),
(20,173,c),
(48,168,o),
(62,168,o),
(90,173,c),
(95,220,o),
(113,255,o),
(180,275,c),
(180,305,l)
);
},
{
closed = 1;
nodes = (
(385,325,o),
(515,394,o),
(525,520,c),
(497,525,o),
(478,525,o),
(450,520,c),
(450,403,o),
(347,349,o),
(290,329,c),
(290,299,l)
);
},
{
pos = (53,0);
ref = L;
}
);
userData = {
com.hugojourdan.ColorFlow = {
"0" = 0;
"1" = 0;
"10" = 0;
"11" = 0;
"2" = 0;
"3" = 0;
"4" = 0;
"5" = 0;
"6" = 0;
"7" = 0;
"8" = 0;
"9" = 0;
};
};
width = 636;
},
{
layerId = "503E420B-61F7-4277-A1BE-A8852071B452";
shapes = (
{
closed = 1;
nodes = (
(74,279,o),
(24,229,o),
(14,173,c),
(42,168,o),
(76,168,o),
(104,173,c),
(109,220,o),
(112,255,o),
(169,275,c),
(169,305,l)
);
},
{
closed = 1;
nodes = (
(414,325,o),
(535,394,o),
(545,520,c),
(517,525,o),
(473,525,o),
(445,520,c),
(445,403,o),
(376,349,o),
(319,329,c),
(319,299,l)
);
},
{
pos = (49,0);
ref = L;
}
);
userData = {
com.hugojourdan.ColorFlow = {
"0" = 0;
"1" = 0;
"10" = 0;
"11" = 0;
"2" = 0;
"3" = 0;
"4" = 0;
"5" = 0;
"6" = 0;
"7" = 0;
"8" = 0;
"9" = 0;
};
};
width = 637;
}
);
unicode = 321;
},
{
color = 3;
glyphname = M;
kernLeft = N;
kernRight = H;
lastChange = "2023-03-10 14:52:46 +0000";
layers = (
{
anchors = (
{
name = bottom;
pos = (436,0);
},
{
name = top;
pos = (481,700);
}
);
guides = (
{
angle = 247.3287;
pos = (636,550);
},
{
angle = -67.2258;
pos = (324,560);
}
);
layerId = "45069982-2EFC-4B7D-8C53-1932E6EAC4CA";
shapes = (
{
closed = 1;
nodes = (
(431,-13,o),
(457,-13,o),
(474,-10,c),
(482,38,o),
(496,92,o),
(511,130,cs),
(708,614,l),
(711,595,o),
(715,540,o),
(715,490,cs),
(715,210,ls),
(715,150,o),
(712,95,o),
(705,35,c),
(633,35,l),
(631,25,o),
(631,8,o),
(633,-2,c),
(679,0,o),
(724,0,o),
(770,0,cs),
(816,0,o),
(861,0,o),
(907,-2,c),
(909,8,o),
(909,25,o),
(907,35,c),
(835,35,l),
(828,95,o),
(825,150,o),
(825,210,cs),
(825,490,ls),
(825,550,o),
(828,605,o),
(835,665,c),
(907,665,l),
(909,675,o),
(909,692,o),
(907,702,c),
(861,700,o),
(816,700,o),
(770,700,cs),
(675,700,l),
(665,652,o),
(651,603,o),
(627,542,cs),
(479,170,l),
(319,560,ls),
(301,603,o),
(286,652,o),
(276,700,c),
(150,700,ls),
(126,700,o),
(91,700,o),
(45,702,c),
(43,692,o),
(43,675,o),
(45,665,c),
(112,665,l),
(123,595,o),
(127,540,o),
(127,490,cs),
(127,210,ls),
(127,150,o),
(123,95,o),
(112,35,c),
(45,35,l),
(43,25,o),
(43,8,o),
(45,-2,c),
(91,0,o),
(126,0,o),
(150,0,cs),
(175,0,o),
(220,0,o),
(266,-2,c),
(268,8,o),
(268,25,o),
(266,35,c),
(189,35,l),
(178,95,o),
(174,150,o),
(174,210,cs),
(174,490,ls),
(174,540,o),
(177,595,o),
(178,614,c),
(365,156,ls),
(391,93,o),
(406,38,o),
(414,-10,c)
);
}
);
userData = {
com.hugojourdan.ColorFlow = {
"0" = 0;
"1" = 0;
"10" = 0;
"11" = 0;
"2" = 0;
"3" = 0;
"4" = 0;
"5" = 0;
"6" = 0;
"7" = 0;
"8" = 0;
"9" = 0;
};
};
width = 952;
},
{
anchors = (
{
name = bottom;
pos = (492,0);
},
{
name = top;
pos = (492,700);
}
);
layerId = "503E420B-61F7-4277-A1BE-A8852071B452";
shapes = (
{
closed = 1;
nodes = (
(433,-13,o),
(459,-13,o),
(476,-10,c),
(484,38,o),
(497,84,o),
(515,130,cs),
(706,614,l),
(709,595,o),
(713,540,o),
(713,490,cs),
(713,210,ls),
(713,150,o),
(710,90,o),
(703,35,c),
(636,35,l),
(634,25,o),
(634,8,o),
(636,-2,c),
(682,0,o),
(742,0,o),
(788,0,cs),
(834,0,o),
(894,0,o),
(940,-2,c),
(942,8,o),
(942,25,o),
(940,35,c),
(873,35,l),
(866,90,o),
(863,150,o),
(863,210,cs),
(863,490,ls),
(863,550,o),
(866,610,o),
(873,665,c),
(940,665,l),
(942,675,o),
(942,692,o),
(940,702,c),
(894,700,o),
(834,700,o),
(788,700,cs),
(673,700,l),
(663,652,o),
(649,603,o),
(625,542,cs),
(499,226,l),
(355,560,ls),
(336,603,o),
(322,652,o),
(312,700,c),
(148,700,ls),
(124,700,o),
(89,700,o),
(43,702,c),
(41,692,o),
(41,675,o),
(43,665,c),
(110,665,l),
(121,595,o),
(125,540,o),
(125,490,cs),
(125,210,ls),
(125,150,o),
(121,95,o),
(110,35,c),
(43,35,l),
(41,25,o),
(41,8,o),
(43,-2,c),
(89,0,o),
(124,0,o),
(148,0,cs),
(173,0,o),
(218,0,o),
(274,-2,c),
(276,8,o),
(276,25,o),
(274,35,c),
(187,35,l),
(176,95,o),
(172,150,o),
(172,210,cs),
(172,490,ls),
(172,540,o),
(175,575,o),
(176,594,c),
(374,130,ls),
(394,84,o),
(409,38,o),
(416,-10,c)
);
}
);
userData = {
com.hugojourdan.ColorFlow = {
"0" = 0;
"1" = 0;
"10" = 0;
"11" = 0;
"2" = 0;
"3" = 0;
"4" = 0;
"5" = 0;
"6" = 0;
"7" = 0;
"8" = 0;
"9" = 0;
};
};
width = 983;
},
{
associatedMasterId = "45069982-2EFC-4B7D-8C53-1932E6EAC4CA";
backgroundImage = {
imagePath = "/Downloads/19281931_Potawski_Antykwa-poster.png";
pos = (-2793,-20);
scale = (6.719,6.719);
};
layerId = "600275E2-B519-48EF-8B28-D3730BC0750D";
name = "Nov 3 20, 23:13";
shapes = (
{
closed = 1;
nodes = (
(605,350,l),
(660,350,l),
(660,700,l),
(580,700,l),
(570,652,o),
(561,607,o),
(537,542,cs),
(416,211,l),
(284,560,ls),
(267,606,o),
(253,652,o),
(243,700,c),
(110,700,l),
(136,614,l),
(313,140,ls),
(330,94,o),
(343,48,o),
(353,0,c),
(391,0,l),
(401,48,o),
(416,93,o),
(432,140,cs),
(598,610,l),
(601,584,o),
(602,558,o),
(602,532,c)
);
},
{
closed = 1;
nodes = (
(51,0,o),
(86,0,o),
(110,0,cs),
(133,0,o),
(178,0,o),
(224,-2,c),
(226,8,o),
(226,25,o),
(224,35,c),
(147,35,l),
(136,95,o),
(132,150,o),
(132,210,cs),
(132,490,ls),
(132,540,o),
(135,595,o),
(139,635,c),
(110,700,l),
(86,700,o),
(51,700,o),
(5,702,c),
(3,692,o),
(3,675,o),
(5,665,c),
(72,665,l),
(83,595,o),
(87,540,o),
(87,490,cs),
(87,210,ls),
(87,150,o),
(83,95,o),
(72,35,c),
(5,35,l),
(3,25,o),
(3,8,o),
(5,-2,c)
);
},
{
alignment = -1;
pos = (521,0);
ref = _COM_I_serif;
},
{
alignment = -1;
pos = (799,0);
ref = _COM_I_serif;
scale = (-1,1);
},
{
alignment = -1;
angle = 180;
pos = (799,700);
ref = _COM_I_serif;
}
);
width = 850;
}
);
unicode = 77;
},
{
color = 6;
glyphname = N;
kernLeft = N;
kernRight = N;
lastChange = "2023-03-10 14:52:46 +0000";
layers = (
{
anchors = (
{
name = bottom;
pos = (406,0);
},
{
name = top;
pos = (392,700);
}
);
layerId = "45069982-2EFC-4B7D-8C53-1932E6EAC4CA";
shapes = (
{
closed = 1;
nodes = (
(631,-3,o),
(643,-3,o),
(667,0,c),
(620,200,l),
(345,591,ls),
(311,639,o),
(294,669,o),
(279,702,c),
(243,700,o),
(194,700,o),
(150,700,c),
(181,630,l),
(525,142,ls),
(556,98,o),
(585,53,o),
(607,0,c)
);
},
{
closed = 1;
nodes = (
(91,0,o),
(126,0,o),
(150,0,cs),
(175,0,o),
(220,0,o),
(266,-2,c),
(268,8,o),
(268,25,o),
(266,35,c),
(189,35,l),
(178,95,o),
(174,150,o),
(174,210,cs),
(174,490,ls),
(174,540,o),
(177,590,o),
(181,630,c),
(150,700,l),
(126,700,o),
(91,700,o),
(45,702,c),
(43,692,o),
(43,675,o),
(45,665,c),
(112,665,l),
(123,595,o),
(127,540,o),
(127,490,cs),
(127,210,ls),
(127,150,o),
(123,95,o),
(112,35,c),
(45,35,l),
(43,25,o),
(43,8,o),
(45,-2,c)
);
},
{
closed = 1;
nodes = (
(667,490,ls),
(667,550,o),
(671,595,o),
(682,665,c),
(749,665,l),
(751,675,o),
(751,692,o),
(749,702,c),
(703,700,o),
(668,700,o),
(645,700,cs),
(619,700,o),
(574,700,o),
(528,702,c),
(526,692,o),
(526,675,o),
(528,665,c),
(605,665,l),
(616,595,o),
(620,550,o),
(620,490,cs),
(620,200,l),
(667,0,l)
);
}
);
userData = {
com.hugojourdan.ColorFlow = {
"0" = 0;
"1" = 0;
"10" = 0;
"11" = 0;
"2" = 0;
"3" = 0;
"4" = 0;
"5" = 0;
"6" = 0;
"7" = 0;
"8" = 0;
"9" = 0;
};
};
width = 788;
},
{
anchors = (
{
name = bottom;
pos = (418,0);
},
{
name = top;
pos = (418,700);
}
);
guides = (
{
angle = -53.7147;
pos = (366,591);
},
{
angle = -53.7147;
pos = (175,589);
}
);
layerId = "503E420B-61F7-4277-A1BE-A8852071B452";
shapes = (
{
closed = 1;
nodes = (
(617,-3,o),
(659,-3,o),
(683,0,c),
(636,230,l),
(366,591,ls),
(332,637,o),
(316,669,o),
(299,702,c),
(267,700,o),
(190,700,o),
(146,700,c),
(175,584,l),
(523,115,ls),
(560,65,o),
(572,43,o),
(593,0,c)
);
},
{
closed = 1;
nodes = (
(87,0,o),
(122,0,o),
(146,0,cs),
(171,0,o),
(216,0,o),
(272,-2,c),
(274,8,o),
(274,25,o),
(272,35,c),
(185,35,l),
(174,95,o),
(170,150,o),
(170,210,cs),
(170,490,ls),
(170,525,o),
(173,554,o),
(175,584,c),
(146,700,l),
(122,700,o),
(87,700,o),
(41,702,c),
(39,692,o),
(39,675,o),
(41,665,c),
(108,665,l),
(119,595,o),
(123,550,o),
(123,490,cs),
(123,210,ls),
(123,150,o),
(119,95,o),
(108,35,c),
(41,35,l),
(39,25,o),
(39,8,o),
(41,-2,c)
);
},
{
closed = 1;
nodes = (
(683,490,ls),
(683,550,o),
(687,595,o),
(698,665,c),
(765,665,l),
(767,675,o),
(767,692,o),
(765,702,c),
(719,700,o),
(684,700,o),
(661,700,cs),
(635,700,o),
(590,700,o),
(534,702,c),
(532,692,o),
(532,675,o),
(534,665,c),
(621,665,l),
(632,595,o),
(636,550,o),
(636,490,cs),
(636,230,l),
(683,0,l)
);
}
);
userData = {
com.hugojourdan.ColorFlow = {
"0" = 0;
"1" = 0;
"10" = 0;
"11" = 0;
"2" = 0;
"3" = 0;
"4" = 0;
"5" = 0;
"6" = 0;
"7" = 0;
"8" = 0;
"9" = 0;
};
};
width = 798;
},
{
associatedMasterId = "45069982-2EFC-4B7D-8C53-1932E6EAC4CA";
layerId = "BF957949-0343-4FF4-8FF1-492510490FCA";
name = "Nov 3 20, 00:11";
shapes = (
{
closed = 1;
nodes = (
(708,672,l),
(708,700,l),
(524,700,l),
(524,672,l),
(590,672,l),
(598,626,o),
(602,579,o),
(602,532,cs),
(602,157,l),
(331,560,ls),
(301,605,o),
(273,652,o),
(249,700,c),
(26,700,l),
(26,672,l),
(92,672,l),
(100,626,o),
(104,579,o),
(104,532,cs),
(104,168,ls),
(104,121,o),
(100,74,o),
(92,28,c),
(26,28,l),
(26,0,l),
(210,0,l),
(210,28,l),
(144,28,l),
(136,74,o),
(132,121,o),
(132,168,cs),
(132,532,ls),
(132,570,o),
(135,609,o),
(140,646,c),
(575,0,l),
(630,0,l),
(630,532,ls),
(630,579,o),
(634,626,o),
(642,672,c)
);
}
);
visible = 1;
width = 740;
},
{
associatedMasterId = "503E420B-61F7-4277-A1BE-A8852071B452";
layerId = "9695E5B7-726F-40F9-9BB5-3EF3996D3927";
name = "Nov 3 20, 00:21";
shapes = (
{
closed = 1;
nodes = (
(664,668,l),
(664,700,l),
(476,700,l),
(476,668,l),
(542,668,l),
(550,622,o),
(554,575,o),
(554,528,cs),
(554,223,l),
(356,560,ls),
(330,605,o),
(306,652,o),
(286,700,c),
(22,700,l),
(22,668,l),
(88,668,l),
(96,622,o),
(100,575,o),
(100,528,cs),
(100,172,ls),
(100,125,o),
(96,78,o),
(88,32,c),
(22,32,l),
(22,0,l),
(210,0,l),
(210,32,l),
(144,32,l),
(136,78,o),
(132,125,o),
(132,172,cs),
(132,528,ls),
(132,563,o),
(134,599,o),
(139,634,c),
(511,0,l),
(586,0,l),
(586,528,ls),
(586,575,o),
(590,622,o),
(598,668,c)
);
}
);
width = 683;
}
);
unicode = 78;
},
{
color = 3;
glyphname = Eng;
kernLeft = N;
kernRight = N;
lastChange = "2023-03-10 14:52:46 +0000";
layers = (
{
layerId = "45069982-2EFC-4B7D-8C53-1932E6EAC4CA";
shapes = (
{
closed = 1;
nodes = (
(342,-182,o),
(402,-225,o),
(501,-225,cs),
(602,-225,o),
(667,-175,o),
(667,-75,c),
(667,140,l),
(557,140,l),
(557,-85,l),
(557,-161,o),
(540,-183,o),
(504,-183,cs),
(462,-183,o),
(447,-157,o),
(447,-65,c),
(342,-65,l)
);
},
{
ref = N;
}
);
userData = {
com.hugojourdan.ColorFlow = {
"0" = 0;
"1" = 0;
"10" = 0;
"11" = 0;
"2" = 0;
"3" = 0;
"4" = 0;
"5" = 0;
"6" = 0;
"7" = 0;
"8" = 0;
"9" = 0;
};
};
width = 787;
},
{
layerId = "503E420B-61F7-4277-A1BE-A8852071B452";
shapes = (
{
closed = 1;
nodes = (
(313,-167,o),
(388,-200,o),
(492,-200,cs),
(588,-200,o),
(683,-170,o),
(683,-20,c),
(683,165,l),
(543,165,l),
(543,-40,l),
(543,-136,o),
(526,-158,o),
(490,-158,cs),
(450,-158,o),
(438,-115,o),
(438,-60,c),
(303,-60,l)
);
},
{
ref = N;
}
);
userData = {
com.hugojourdan.ColorFlow = {
"0" = 0;
"1" = 0;
"10" = 0;
"11" = 0;
"2" = 0;
"3" = 0;
"4" = 0;
"5" = 0;
"6" = 0;
"7" = 0;
"8" = 0;
"9" = 0;
};
};
width = 798;
}
);
unicode = 330;
},
{
color = 3;
glyphname = Oslash;
kernLeft = O;
kernRight = O;
lastChange = "2023-03-10 14:52:46 +0000";
layers = (
{
layerId = "45069982-2EFC-4B7D-8C53-1932E6EAC4CA";
shapes = (
{
closed = 1;
nodes = (
(649,435,o),
(110,277,o),
(80,-30,c),
(100,-33,o),
(121,-33,o),
(141,-30,c),
(161,266,o),
(700,423,o),
(730,730,c),
(710,733,o),
(689,733,o),
(669,730,c)
);
},
{
pos = (7,0);
ref = O;
}
);
userData = {
com.hugojourdan.ColorFlow = {
"0" = 0;
"1" = 0;
"10" = 0;
"11" = 0;
"2" = 0;
"3" = 0;
"4" = 0;
"5" = 0;
"6" = 0;
"7" = 0;
"8" = 0;
"9" = 0;
};
};
width = 810;
},
{
layerId = "503E420B-61F7-4277-A1BE-A8852071B452";
shapes = (
{
closed = 1;
nodes = (
(654,435,o),
(115,277,o),
(85,-30,c),
(105,-33,o),
(126,-33,o),
(146,-30,c),
(166,266,o),
(705,423,o),
(735,730,c),
(715,733,o),
(694,733,o),
(674,730,c)
);
},
{
pos = (2,0);
ref = O;
}
);
userData = {
com.hugojourdan.ColorFlow = {
"0" = 0;
"1" = 0;
"10" = 0;
"11" = 0;
"2" = 0;
"3" = 0;
"4" = 0;
"5" = 0;
"6" = 0;
"7" = 0;
"8" = 0;
"9" = 0;
};
};
width = 819;
}
);
unicode = 216;
},
{
color = 6;
glyphname = OE;
kernLeft = O;
kernRight = E;
lastChange = "2023-03-10 14:52:46 +0000";
layers = (
{
anchors = (
{
name = bottom;
pos = (574,0);
},
{
name = top;
pos = (574,700);
}
);
layerId = "45069982-2EFC-4B7D-8C53-1932E6EAC4CA";
shapes = (
{
closed = 1;
nodes = (
(408,27,l),
(233,27,o),
(178,192,o),
(178,360,cs),
(178,528,o),
(238,673,o),
(388,673,c),
(398,715,l),
(188,715,o),
(53,568,o),
(53,350,cs),
(53,132,o),
(183,-15,o),
(398,-15,c)
);
},
{
closed = 1;
nodes = (
(455,-15,o),
(506,-4,o),
(551,16,c),
(551,121,l),
(516,51,o),
(469,27,o),
(408,27,c),
(398,-15,l)
);
},
{
closed = 1;
nodes = (
(573,0,l),
(573,350,l),
(518,350,l),
(518,210,ls),
(518,150,o),
(515,95,o),
(508,-3,c)
);
},
{
closed = 1;
nodes = (
(958,0,l),
(958,40,l),
(638,40,l),
(631,100,o),
(628,150,o),
(628,210,cs),
(628,350,l),
(573,350,l),
(573,0,l)
);
},
{
closed = 1;
nodes = (
(958,40,l),
(958,185,l),
(947,187,o),
(937,187,o),
(926,185,c),
(921,95,o),
(890,40,o),
(786,40,c)
);
},
{
closed = 1;
nodes = (
(573,350,l),
(573,700,l),
(508,700,l),
(515,605,o),
(518,550,o),
(518,490,cs),
(518,350,l)
);
},
{
closed = 1;
nodes = (
(837,258,o),
(847,258,o),
(858,260,c),
(858,460,l),
(847,462,o),
(837,462,o),
(826,460,c),
(824,398,o),
(809,380,o),
(763,380,cs),
(573,380,l),
(573,340,l),
(763,340,ls),
(809,340,o),
(824,322,o),
(826,260,c)
);
},
{
closed = 1;
nodes = (
(547,687,l),
(504,705,o),
(454,715,o),
(398,715,c),
(388,673,l),
(459,673,o),
(511,646,o),
(547,573,c)
);
},
{
closed = 1;
nodes = (
(628,350,l),
(628,490,ls),
(628,550,o),
(631,600,o),
(638,660,c),
(923,660,l),
(923,700,l),
(573,700,l),
(573,350,l)
);
},
{
closed = 1;
nodes = (
(902,513,o),
(912,513,o),
(923,515,c),
(923,660,l),
(751,660,l),
(855,660,o),
(886,615,o),
(891,515,c)
);
}
);
userData = {
com.hugojourdan.ColorFlow = {
"0" = 0;
"1" = 0;
"10" = 0;
"11" = 0;
"2" = 0;
"3" = 0;
"4" = 0;
"5" = 0;
"6" = 0;
"7" = 0;
"8" = 0;
"9" = 0;
};
};
width = 1005;
},
{
anchors = (
{
name = bottom;
pos = (600,0);
},
{
name = top;
pos = (600,700);
}
);
layerId = "503E420B-61F7-4277-A1BE-A8852071B452";
shapes = (
{
closed = 1;
nodes = (
(418,27,l),
(268,27,o),
(218,202,o),
(218,370,cs),
(218,538,o),
(263,673,o),
(398,673,c),
(408,715,l),
(188,715,o),
(48,568,o),
(48,350,cs),
(48,132,o),
(183,-15,o),
(408,-15,c)
);
},
{
closed = 1;
nodes = (
(454,-15,o),
(497,-9,o),
(535,4,c),
(535,130,l),
(507,46,o),
(469,27,o),
(418,27,c),
(408,-15,l)
);
},
{
closed = 1;
nodes = (
(601,0,l),
(601,350,l),
(526,350,l),
(526,210,ls),
(526,150,o),
(523,90,o),
(516,0,c)
);
},
{
closed = 1;
nodes = (
(976,0,l),
(976,40,l),
(686,40,l),
(679,100,o),
(676,150,o),
(676,210,cs),
(676,350,l),
(601,350,l),
(601,0,l)
);
},
{
closed = 1;
nodes = (
(976,40,l),
(976,190,l),
(965,192,o),
(955,192,o),
(944,190,c),
(939,110,o),
(898,40,o),
(794,40,c)
);
},
{
closed = 1;
nodes = (
(601,350,l),
(601,700,l),
(516,700,l),
(523,610,o),
(526,550,o),
(526,490,cs),
(526,350,l)
);
},
{
closed = 1;
nodes = (
(845,248,o),
(855,248,o),
(866,250,c),
(866,470,l),
(855,472,o),
(845,472,o),
(834,470,c),
(832,408,o),
(807,380,o),
(751,380,cs),
(601,380,l),
(601,340,l),
(751,340,ls),
(807,340,o),
(832,312,o),
(834,250,c)
);
},
{
closed = 1;
nodes = (
(535,697,l),
(497,709,o),
(454,715,o),
(408,715,c),
(398,673,l),
(459,673,o),
(504,644,o),
(535,548,c)
);
},
{
closed = 1;
nodes = (
(676,350,l),
(676,490,ls),
(676,550,o),
(679,600,o),
(686,660,c),
(941,660,l),
(941,700,l),
(601,700,l),
(601,350,l)
);
},
{
closed = 1;
nodes = (
(920,508,o),
(930,508,o),
(941,510,c),
(941,660,l),
(759,660,l),
(863,660,o),
(904,600,o),
(909,510,c)
);
}
);
userData = {
com.hugojourdan.ColorFlow = {
"0" = 0;
"1" = 0;
"10" = 0;
"11" = 0;
"2" = 0;
"3" = 0;
"4" = 0;
"5" = 0;
"6" = 0;
"7" = 0;
"8" = 0;
"9" = 0;
};
};
width = 1020;
}
);
unicode = 338;
},
{
color = 6;
glyphname = P;
kernLeft = H;
lastChange = "2023-03-10 14:52:46 +0000";
layers = (
{
anchors = (
{
name = bottom;
pos = (297,0);
},
{
name = top;
pos = (297,700);
}
);
guides = (
{
angle = 90;
pos = (544,501);
}
);
layerId = "45069982-2EFC-4B7D-8C53-1932E6EAC4CA";
shapes = (
{
closed = 1;
nodes = (
(91,0,o),
(136,0,o),
(182,0,cs),
(228,0,o),
(273,0,o),
(339,-2,c),
(341,8,o),
(341,25,o),
(339,35,c),
(247,35,l),
(240,95,o),
(237,150,o),
(237,210,cs),
(237,490,ls),
(237,550,o),
(240,600,o),
(247,660,c),
(312,660,ls),
(417,660,o),
(462,603,o),
(462,503,cs),
(462,397,o),
(412,340,o),
(332,340,cs),
(182,340,l),
(182,300,l),
(322,300,ls),
(467,300,o),
(587,372,o),
(587,510,cs),
(587,645,o),
(472,700,o),
(322,700,cs),
(182,700,ls),
(136,700,o),
(91,700,o),
(45,702,c),
(43,692,o),
(43,675,o),
(45,665,c),
(117,665,l),
(124,605,o),
(127,550,o),
(127,490,cs),
(127,210,ls),
(127,150,o),
(124,95,o),
(117,35,c),
(45,35,l),
(43,25,o),
(43,8,o),
(45,-2,c)
);
}
);
userData = {
com.hugojourdan.ColorFlow = {
"0" = 0;
"1" = 0;
"10" = 0;
"11" = 0;
"2" = 0;
"3" = 0;
"4" = 0;
"5" = 0;
"6" = 0;
"7" = 0;
"8" = 0;
"9" = 0;
};
};
width = 618;
},
{
anchors = (
{
name = bottom;
pos = (310,0);
},
{
name = top;
pos = (310,700);
}
);
layerId = "503E420B-61F7-4277-A1BE-A8852071B452";
shapes = (
{
closed = 1;
nodes = (
(89,0,o),
(149,0,o),
(195,0,cs),
(241,0,o),
(301,0,o),
(377,-2,c),
(379,8,o),
(379,25,o),
(377,35,c),
(280,35,l),
(273,90,o),
(270,150,o),
(270,210,cs),
(270,490,ls),
(270,550,o),
(273,600,o),
(280,660,c),
(322,660,ls),
(402,660,o),
(452,613,o),
(452,497,cs),
(452,377,o),
(397,330,o),
(332,330,cs),
(202,330,l),
(202,290,l),
(352,290,ls),
(492,290,o),
(617,360,o),
(617,503,cs),
(617,643,o),
(497,700,o),
(352,700,cs),
(195,700,ls),
(149,700,o),
(89,700,o),
(43,702,c),
(41,692,o),
(41,675,o),
(43,665,c),
(110,665,l),
(117,610,o),
(120,550,o),
(120,490,cs),
(120,210,ls),
(120,150,o),
(117,90,o),
(110,35,c),
(43,35,l),
(41,25,o),
(41,8,o),
(43,-2,c)
);
}
);
userData = {
com.hugojourdan.ColorFlow = {
"0" = 0;
"1" = 0;
"10" = 0;
"11" = 0;
"2" = 0;
"3" = 0;
"4" = 0;
"5" = 0;
"6" = 0;
"7" = 0;
"8" = 0;
"9" = 0;
};
};
width = 644;
}
);
unicode = 80;
},
{
color = 3;
glyphname = Thorn;
kernLeft = H;
lastChange = "2023-03-10 14:52:46 +0000";
layers = (
{
layerId = "45069982-2EFC-4B7D-8C53-1932E6EAC4CA";
shapes = (
{
closed = 1;
nodes = (
(207,560,l),
(207,520,l),
(327,520,l),
(432,520,o),
(477,463,o),
(477,363,cs),
(477,257,o),
(427,200,o),
(347,200,cs),
(182,200,l),
(182,160,l),
(337,160,ls),
(477,160,o),
(592,232,o),
(592,370,cs),
(592,505,o),
(482,560,o),
(337,560,c)
);
},
{
ref = I;
}
);
userData = {
com.hugojourdan.ColorFlow = {
"0" = 0;
"1" = 0;
"10" = 0;
"11" = 0;
"2" = 0;
"3" = 0;
"4" = 0;
"5" = 0;
"6" = 0;
"7" = 0;
"8" = 0;
"9" = 0;
};
};
width = 636;
},
{
layerId = "503E420B-61F7-4277-A1BE-A8852071B452";
shapes = (
{
closed = 1;
nodes = (
(237,570,l),
(237,530,l),
(337,530,l),
(417,530,o),
(467,483,o),
(467,357,cs),
(467,227,o),
(412,180,o),
(347,180,cs),
(232,180,l),
(232,140,l),
(367,140,ls),
(507,140,o),
(627,210,o),
(627,363,cs),
(627,513,o),
(512,570,o),
(367,570,c)
);
},
{
ref = I;
}
);
userData = {
com.hugojourdan.ColorFlow = {
"0" = 0;
"1" = 0;
"10" = 0;
"11" = 0;
"2" = 0;
"3" = 0;
"4" = 0;
"5" = 0;
"6" = 0;
"7" = 0;
"8" = 0;
"9" = 0;
};
};
width = 668;
}
);
unicode = 222;
},
{
color = 3;
glyphname = Q;
kernLeft = O;
kernRight = O;
lastChange = "2023-03-10 14:52:46 +0000";
layers = (
{
anchors = (
{
name = bottom;
pos = (388,0);
},
{
name = top;
pos = (388,700);
}
);
layerId = "45069982-2EFC-4B7D-8C53-1932E6EAC4CA";
shapes = (
{
closed = 1;
nodes = (
(666,-115,o),
(648,-119,o),
(628,-119,cs),
(598,-119,o),
(578,-97,o),
(543,-54,cs),
(518,-23,o),
(493,-5,o),
(459,-5,c),
(332,-10,l),
(381,-15,o),
(403,-25,o),
(449,-93,cs),
(480,-138,o),
(517,-169,o),
(588,-169,cs),
(662,-169,o),
(688,-151,o),
(712,-122,c),
(703,-111,o),
(694,-103,o),
(683,-96,c)
);
},
{
ref = O;
}
);
userData = {
com.hugojourdan.ColorFlow = {
"0" = 0;
"1" = 0;
"10" = 0;
"11" = 0;
"2" = 0;
"3" = 0;
"4" = 0;
"5" = 0;
"6" = 0;
"7" = 0;
"8" = 0;
"9" = 0;
};
};
width = 796;
},
{
anchors = (
{
name = bottom;
pos = (393,0);
},
{
name = top;
pos = (393,700);
}
);
layerId = "503E420B-61F7-4277-A1BE-A8852071B452";
shapes = (
{
closed = 1;
nodes = (
(675,-123,o),
(662,-129,o),
(640,-129,c),
(615,-129,o),
(600,-97,o),
(570,-54,c),
(547,-22,o),
(512,0,o),
(496,0,c),
(339,-10,l),
(380,-15,o),
(388,-23,o),
(436,-100,c),
(468,-152,o),
(507,-179,o),
(595,-179,c),
(658,-179,o),
(690,-167,o),
(719,-132,c),
(710,-121,o),
(701,-113,o),
(690,-106,c)
);
},
{
ref = O;
}
);
userData = {
com.hugojourdan.ColorFlow = {
"0" = 0;
"1" = 0;
"10" = 0;
"11" = 0;
"2" = 0;
"3" = 0;
"4" = 0;
"5" = 0;
"6" = 0;
"7" = 0;
"8" = 0;
"9" = 0;
};
};
width = 816;
},
{
associatedMasterId = "503E420B-61F7-4277-A1BE-A8852071B452";
layerId = "F81ACBFB-DEDA-431D-9BCF-7F77814E8A96";
name = "Nov 4 20, 15:48";
shapes = (
{
closed = 1;
nodes = (
(734,572,o),
(598,714,o),
(378,714,cs),
(158,714,o),
(22,572,o),
(22,350,cs),
(22,134,o),
(151,-6,o),
(360,-14,c),
(378,-27,o),
(392,-48,o),
(404,-68,cs),
(429,-109,o),
(459,-152,o),
(506,-152,cs),
(604,-152,ls),
(639,-152,o),
(674,-141,o),
(702,-120,c),
(683,-94,l),
(670,-111,o),
(650,-120,o),
(629,-120,cs),
(583,-120,o),
(557,-75,o),
(524,-45,cs),
(505,-27,o),
(482,-15,o),
(458,-7,c),
(631,24,o),
(734,157,o),
(734,350,cs)
);
},
{
closed = 1;
nodes = (
(576,187,o),
(520,18,o),
(378,18,cs),
(236,18,o),
(180,187,o),
(180,350,cs),
(180,513,o),
(236,682,o),
(378,682,cs),
(520,682,o),
(576,513,o),
(576,350,cs)
);
}
);
visible = 1;
width = 770;
},
{
associatedMasterId = "45069982-2EFC-4B7D-8C53-1932E6EAC4CA";
layerId = "25D2AB3A-8A66-40AC-A1B7-5FD9B2BFBA3D";
name = "Nov 4 20, 15:48";
shapes = (
{
closed = 1;
nodes = (
(702,568,o),
(577,714,o),
(364,714,cs),
(151,714,o),
(26,568,o),
(26,350,cs),
(26,137,o),
(145,-6,o),
(348,-14,c),
(365,-27,o),
(378,-47,o),
(389,-67,cs),
(412,-107,o),
(441,-148,o),
(486,-148,cs),
(580,-148,ls),
(613,-148,o),
(646,-138,o),
(674,-120,c),
(659,-97,l),
(644,-112,o),
(624,-120,o),
(603,-120,cs),
(560,-120,o),
(534,-78,o),
(502,-48,cs),
(482,-30,o),
(459,-16,o),
(434,-8,c),
(604,20,o),
(702,157,o),
(702,350,cs)
);
},
{
closed = 1;
nodes = (
(584,182,o),
(512,14,o),
(364,14,cs),
(216,14,o),
(144,182,o),
(144,350,cs),
(144,518,o),
(216,686,o),
(364,686,cs),
(512,686,o),
(584,518,o),
(584,350,cs)
);
}
);
width = 790;
}
);
unicode = 81;
},
{
color = 6;
glyphname = R;
kernLeft = H;
kernRight = R;
lastChange = "2023-03-10 14:52:46 +0000";
layers = (
{
anchors = (
{
name = bottom;
pos = (370,0);
},
{
name = top;
pos = (337,700);
}
);
layerId = "45069982-2EFC-4B7D-8C53-1932E6EAC4CA";
shapes = (
{
closed = 1;
nodes = (
(617,39,o),
(598,50,o),
(587,107,cs),
(560,243,ls),
(547,308,o),
(504,341,o),
(426,346,c),
(525,364,o),
(602,417,o),
(602,520,cs),
(602,647,o),
(486,700,o),
(337,700,cs),
(182,700,ls),
(136,700,o),
(91,700,o),
(45,702,c),
(43,692,o),
(43,675,o),
(45,665,c),
(117,665,l),
(124,605,o),
(127,550,o),
(127,490,cs),
(127,210,ls),
(127,150,o),
(124,95,o),
(117,35,c),
(45,35,l),
(43,25,o),
(43,8,o),
(45,-2,c),
(91,0,o),
(136,0,o),
(182,0,cs),
(228,0,o),
(273,0,o),
(319,-2,c),
(321,8,o),
(321,25,o),
(319,35,c),
(247,35,l),
(240,95,o),
(237,150,o),
(237,210,cs),
(237,490,ls),
(237,550,o),
(240,600,o),
(247,660,c),
(327,660,ls),
(432,660,o),
(477,603,o),
(477,512,cs),
(477,417,o),
(427,360,o),
(347,360,cs),
(182,360,l),
(182,320,l),
(334,320,ls),
(402,320,o),
(440,292,o),
(450,233,cs),
(472,107,ls),
(486,28,o),
(509,-10,o),
(588,-10,cs),
(608,-10,o),
(645,-7,o),
(676,0,c),
(678,12,o),
(678,23,o),
(676,35,c)
);
}
);
userData = {
com.hugojourdan.ColorFlow = {
"0" = 0;
"1" = 0;
"10" = 0;
"11" = 0;
"2" = 0;
"3" = 0;
"4" = 0;
"5" = 0;
"6" = 0;
"7" = 0;
"8" = 0;
"9" = 0;
};
};
width = 693;
},
{
anchors = (
{
name = bottom;
pos = (384,0);
},
{
name = top;
pos = (354,700);
}
);
layerId = "503E420B-61F7-4277-A1BE-A8852071B452";
shapes = (
{
closed = 1;
nodes = (
(653,39,o),
(634,51,o),
(623,107,cs),
(598,238,ls),
(585,307,o),
(539,344,o),
(451,349,c),
(531,368,o),
(622,409,o),
(622,522,cs),
(622,652,o),
(502,700,o),
(357,700,cs),
(195,700,ls),
(149,700,o),
(89,700,o),
(43,702,c),
(41,692,o),
(41,675,o),
(43,665,c),
(110,665,l),
(117,610,o),
(120,550,o),
(120,490,cs),
(120,210,ls),
(120,150,o),
(117,90,o),
(110,35,c),
(43,35,l),
(41,25,o),
(41,8,o),
(43,-2,c),
(89,0,o),
(149,0,o),
(195,0,cs),
(241,0,o),
(301,0,o),
(347,-2,c),
(349,8,o),
(349,25,o),
(347,35,c),
(280,35,l),
(273,90,o),
(270,150,o),
(270,210,cs),
(270,490,ls),
(270,550,o),
(273,600,o),
(280,660,c),
(327,660,ls),
(407,660,o),
(457,613,o),
(457,510,cs),
(457,407,o),
(402,360,o),
(337,360,cs),
(202,360,l),
(202,320,l),
(337,320,ls),
(402,320,o),
(432,291,o),
(442,238,cs),
(466,107,ls),
(480,29,o),
(504,-10,o),
(610,-10,cs),
(636,-10,o),
(661,-7,o),
(702,0,c),
(704,12,o),
(704,23,o),
(702,35,c)
);
}
);
userData = {
com.hugojourdan.ColorFlow = {
"0" = 0;
"1" = 0;
"10" = 0;
"11" = 0;
"2" = 0;
"3" = 0;
"4" = 0;
"5" = 0;
"6" = 0;
"7" = 0;
"8" = 0;
"9" = 0;
};
};
width = 719;
}
);
unicode = 82;
},
{
color = 6;
glyphname = S;
kernLeft = S;
kernRight = S;
lastChange = "2023-03-10 14:52:46 +0000";
layers = (
{
anchors = (
{
name = bottom;
pos = (291,0);
},
{
name = top;
pos = (291,700);
}
);
layerId = "45069982-2EFC-4B7D-8C53-1932E6EAC4CA";
shapes = (
{
closed = 1;
nodes = (
(429,-14,o),
(539,70,o),
(539,192,cs),
(539,451,o),
(157,377,o),
(157,567,cs),
(157,634,o),
(211,674,o),
(295,674,cs),
(388,674,o),
(446,605,o),
(456,510,c),
(467,508,o),
(477,508,o),
(488,510,c),
(488,667,l),
(444,695,o),
(388,714,o),
(303,714,cs),
(158,714,o),
(72,643,o),
(72,519,cs),
(72,263,o),
(444,335,o),
(444,156,cs),
(444,75,o),
(381,26,o),
(285,26,cs),
(180,26,o),
(101,107,o),
(91,215,c),
(80,217,o),
(70,217,o),
(59,215,c),
(59,35,l),
(120,4,o),
(194,-14,o),
(264,-14,cs)
);
}
);
userData = {
com.hugojourdan.ColorFlow = {
"0" = 0;
"1" = 0;
"10" = 0;
"11" = 0;
"2" = 0;
"3" = 0;
"4" = 0;
"5" = 0;
"6" = 0;
"7" = 0;
"8" = 0;
"9" = 0;
};
};
width = 582;
},
{
anchors = (
{
name = bottom;
pos = (297,0);
},
{
name = top;
pos = (297,700);
}
);
layerId = "503E420B-61F7-4277-A1BE-A8852071B452";
shapes = (
{
closed = 1;
nodes = (
(452,-14,o),
(560,75,o),
(560,207,cs),
(560,476,o),
(183,414,o),
(183,570,cs),
(183,641,o),
(232,674,o),
(312,674,cs),
(409,674,o),
(462,605,o),
(477,490,c),
(488,488,o),
(498,488,o),
(509,490,c),
(509,672,l),
(459,698,o),
(399,714,o),
(318,714,cs),
(170,714,o),
(68,646,o),
(68,520,cs),
(68,247,o),
(435,322,o),
(435,141,cs),
(435,74,o),
(383,26,o),
(287,26,cs),
(184,26,o),
(103,105,o),
(88,225,c),
(77,227,o),
(67,227,o),
(56,225,c),
(56,29,l),
(116,1,o),
(194,-14,o),
(276,-14,cs)
);
}
);
userData = {
com.hugojourdan.ColorFlow = {
"0" = 0;
"1" = 0;
"10" = 0;
"11" = 0;
"2" = 0;
"3" = 0;
"4" = 0;
"5" = 0;
"6" = 0;
"7" = 0;
"8" = 0;
"9" = 0;
};
};
width = 606;
},
{
associatedMasterId = "45069982-2EFC-4B7D-8C53-1932E6EAC4CA";
backgroundImage = {
imagePath = "/Downloads/19281931_Potawski_Antykwa-poster.png";
pos = (-6504,-14);
scale = (6.8534,6.8534);
};
layerId = "617EB975-BAF0-42FC-8D61-99EFBB3B238D";
name = "Nov 3 20, 23:48";
shapes = (
{
closed = 1;
nodes = (
(528,462,o),
(160,380,o),
(160,567,cs),
(160,643,o),
(223,674,o),
(286,674,cs),
(375,674,o),
(440,612,o),
(440,515,c),
(451,513,o),
(461,513,o),
(472,515,c),
(472,672,l),
(418,702,o),
(357,714,o),
(301,714,cs),
(165,714,o),
(76,642,o),
(76,521,cs),
(76,274,o),
(431,341,o),
(431,149,cs),
(431,70,o),
(369,26,o),
(289,26,cs),
(182,26,o),
(90,109,o),
(90,215,c),
(79,217,o),
(69,217,o),
(58,215,c),
(58,35,l),
(120,3,o),
(199,-14,o),
(268,-14,cs),
(425,-14,o),
(528,72,o),
(528,202,cs)
);
}
);
width = 600;
}
);
unicode = 83;
},
{
color = 6;
glyphname = Germandbls;
kernLeft = H;
lastChange = "2023-03-10 14:52:46 +0000";
layers = (
{
layerId = "45069982-2EFC-4B7D-8C53-1932E6EAC4CA";
shapes = (
{
closed = 1;
nodes = (
(91,0,o),
(136,0,o),
(182,0,c),
(247,0,l),
(240,95,o),
(237,150,o),
(237,210,cs),
(237,490,ls),
(237,550,o),
(240,600,o),
(247,660,c),
(627,660,l),
(627,673,o),
(627,687,o),
(627,700,c),
(182,700,ls),
(136,700,o),
(91,700,o),
(45,702,c),
(43,692,o),
(43,675,o),
(45,665,c),
(117,665,l),
(124,605,o),
(127,550,o),
(127,490,cs),
(127,210,ls),
(127,150,o),
(124,95,o),
(117,35,c),
(45,35,l),
(43,25,o),
(43,8,o),
(45,-2,c)
);
},
{
closed = 1;
nodes = (
(615,-14,o),
(710,60,o),
(710,172,cs),
(710,342,o),
(502,375,o),
(502,499,cs),
(502,586,o),
(569,648,o),
(627,660,c),
(627,681,l),
(508,654,o),
(412,579,o),
(412,461,cs),
(412,290,o),
(610,291,o),
(610,136,cs),
(610,65,o),
(562,26,o),
(486,26,c),
(401,26,o),
(347,101,o),
(342,169,c),
(331,171,o),
(321,171,o),
(310,169,c),
(310,29,l),
(371,-2,o),
(415,-14,o),
(475,-14,c)
);
}
);
userData = {
com.hugojourdan.ColorFlow = {
"0" = 0;
"1" = 0;
"10" = 0;
"11" = 0;
"2" = 0;
"3" = 0;
"4" = 0;
"5" = 0;
"6" = 0;
"7" = 0;
"8" = 0;
"9" = 0;
};
};
width = 742;
},
{
layerId = "503E420B-61F7-4277-A1BE-A8852071B452";
shapes = (
{
closed = 1;
nodes = (
(89,0,o),
(149,0,o),
(195,0,cs),
(280,0,l),
(273,90,o),
(270,150,o),
(270,210,cs),
(270,490,ls),
(270,550,o),
(273,600,o),
(280,660,c),
(662,660,l),
(664,673,o),
(664,687,o),
(662,700,c),
(195,700,ls),
(149,700,o),
(89,700,o),
(43,702,c),
(41,692,o),
(41,675,o),
(43,665,c),
(110,665,l),
(117,610,o),
(120,550,o),
(120,490,cs),
(120,210,ls),
(120,150,o),
(117,90,o),
(110,35,c),
(43,35,l),
(41,25,o),
(41,8,o),
(43,-2,c)
);
},
{
closed = 1;
nodes = (
(651,-14,o),
(750,57,o),
(750,168,cs),
(750,338,o),
(538,386,o),
(538,517,cs),
(538,587,o),
(568,623,o),
(662,660,c),
(662,683,l),
(518,654,o),
(403,578,o),
(403,459,cs),
(403,292,o),
(605,267,o),
(605,131,cs),
(605,63,o),
(570,26,o),
(506,26,c),
(436,26,o),
(383,85,o),
(372,175,c),
(361,177,o),
(351,177,o),
(340,175,c),
(340,19,l),
(399,-4,o),
(447,-14,o),
(495,-14,c)
);
}
);
userData = {
com.hugojourdan.ColorFlow = {
"0" = 0;
"1" = 0;
"10" = 0;
"11" = 0;
"2" = 0;
"3" = 0;
"4" = 0;
"5" = 0;
"6" = 0;
"7" = 0;
"8" = 0;
"9" = 0;
};
};
width = 776;
}
);
unicode = 7838;
},
{
color = 6;
glyphname = T;
kernLeft = T;
kernRight = T;
lastChange = "2023-03-10 14:52:46 +0000";
layers = (
{
anchors = (
{
name = bottom;
pos = (326,0);
},
{
name = center;
pos = (326,350);
},
{
name = top;
pos = (326,700);
}
);
layerId = "45069982-2EFC-4B7D-8C53-1932E6EAC4CA";
shapes = (
{
closed = 1;
nodes = (
(235,0,o),
(280,0,o),
(326,0,cs),
(372,0,o),
(417,0,o),
(463,-2,c),
(465,8,o),
(465,25,o),
(463,35,c),
(391,35,l),
(384,95,o),
(381,150,o),
(381,210,cs),
(381,490,ls),
(381,550,o),
(384,600,o),
(391,660,c),
(449,660,ls),
(543,660,o),
(579,618,o),
(589,498,c),
(600,496,o),
(610,496,o),
(621,498,c),
(621,700,l),
(31,700,l),
(31,498,l),
(42,496,o),
(52,496,o),
(63,498,c),
(73,618,o),
(109,660,o),
(203,660,cs),
(261,660,l),
(268,600,o),
(271,550,o),
(271,490,cs),
(271,210,ls),
(271,150,o),
(268,95,o),
(261,35,c),
(189,35,l),
(187,25,o),
(187,8,o),
(189,-2,c)
);
}
);
userData = {
com.hugojourdan.ColorFlow = {
"0" = 0;
"1" = 0;
"10" = 0;
"11" = 0;
"2" = 0;
"3" = 0;
"4" = 0;
"5" = 0;
"6" = 0;
"7" = 0;
"8" = 0;
"9" = 0;
};
};
width = 652;
},
{
anchors = (
{
name = bottom;
pos = (330,0);
},
{
name = center;
pos = (330,350);
},
{
name = top;
pos = (330,700);
}
);
layerId = "503E420B-61F7-4277-A1BE-A8852071B452";
shapes = (
{
closed = 1;
nodes = (
(224,0,o),
(284,0,o),
(330,0,cs),
(376,0,o),
(436,0,o),
(482,-2,c),
(484,8,o),
(484,25,o),
(482,35,c),
(415,35,l),
(408,90,o),
(405,150,o),
(405,210,cs),
(405,490,ls),
(405,550,o),
(408,600,o),
(415,660,c),
(448,660,ls),
(542,660,o),
(593,600,o),
(598,480,c),
(609,478,o),
(619,478,o),
(630,480,c),
(630,700,l),
(30,700,l),
(30,480,l),
(41,478,o),
(51,478,o),
(62,480,c),
(67,600,o),
(118,660,o),
(212,660,cs),
(245,660,l),
(252,600,o),
(255,550,o),
(255,490,cs),
(255,210,ls),
(255,150,o),
(252,90,o),
(245,35,c),
(178,35,l),
(176,25,o),
(176,8,o),
(178,-2,c)
);
}
);
userData = {
com.hugojourdan.ColorFlow = {
"0" = 0;
"1" = 0;
"10" = 0;
"11" = 0;
"2" = 0;
"3" = 0;
"4" = 0;
"5" = 0;
"6" = 0;
"7" = 0;
"8" = 0;
"9" = 0;
};
};
width = 660;
}
);
unicode = 84;
},
{
color = 3;
glyphname = Tbar;
kernLeft = T;
kernRight = T;
lastChange = "2023-03-10 14:52:46 +0000";
layers = (
{
layerId = "45069982-2EFC-4B7D-8C53-1932E6EAC4CA";
shapes = (
{
closed = 1;
nodes = (
(521,367,o),
(521,383,o),
(518,400,c),
(138,400,l),
(135,383,o),
(135,367,o),
(138,350,c),
(518,350,l)
);
},
{
pos = (2,0);
ref = T;
}
);
userData = {
com.hugojourdan.ColorFlow = {
"0" = 0;
"1" = 0;
"10" = 0;
"11" = 0;
"2" = 0;
"3" = 0;
"4" = 0;
"5" = 0;
"6" = 0;
"7" = 0;
"8" = 0;
"9" = 0;
};
};
width = 654;
},
{
layerId = "503E420B-61F7-4277-A1BE-A8852071B452";
shapes = (
{
closed = 1;
nodes = (
(544,367,o),
(544,383,o),
(541,400,c),
(121,400,l),
(118,383,o),
(118,367,o),
(121,350,c),
(541,350,l)
);
},
{
pos = (1,0);
ref = T;
}
);
userData = {
com.hugojourdan.ColorFlow = {
"0" = 0;
"1" = 0;
"10" = 0;
"11" = 0;
"2" = 0;
"3" = 0;
"4" = 0;
"5" = 0;
"6" = 0;
"7" = 0;
"8" = 0;
"9" = 0;
};
};
width = 661;
}
);
unicode = 358;
},
{
color = 6;
glyphname = U;
kernLeft = U;
kernRight = U;
lastChange = "2023-03-10 14:52:46 +0000";
layers = (
{
anchors = (
{
name = bottom;
pos = (393,0);
},
{
name = ogonek;
pos = (489,0);
},
{
name = top;
pos = (394,700);
},
{
name = topright;
pos = (645,700);
}
);
guides = (
{
angle = 79.1597;
pos = (395,9);
},
{
angle = 90;
pos = (393,118);
}
);
layerId = "45069982-2EFC-4B7D-8C53-1932E6EAC4CA";
shapes = (
{
closed = 1;
nodes = (
(539,-15,o),
(624,68,o),
(624,205,cs),
(624,490,ls),
(624,550,o),
(628,595,o),
(639,665,c),
(706,665,l),
(708,675,o),
(708,692,o),
(706,702,c),
(660,700,o),
(625,700,o),
(602,700,cs),
(576,700,o),
(531,700,o),
(485,702,c),
(483,692,o),
(483,675,o),
(485,665,c),
(562,665,l),
(573,595,o),
(577,550,o),
(577,490,cs),
(577,219,ls),
(577,104,o),
(517,32,o),
(399,32,cs),
(288,32,o),
(224,84,o),
(224,210,cs),
(224,490,ls),
(224,550,o),
(227,605,o),
(234,665,c),
(306,665,l),
(308,675,o),
(308,692,o),
(306,702,c),
(260,700,o),
(215,700,o),
(169,700,cs),
(123,700,o),
(78,700,o),
(32,702,c),
(30,692,o),
(30,675,o),
(32,665,c),
(104,665,l),
(111,605,o),
(114,550,o),
(114,490,cs),
(114,205,ls),
(114,55,o),
(199,-15,o),
(390,-15,cs)
);
}
);
userData = {
com.hugojourdan.ColorFlow = {
"0" = 0;
"1" = 0;
"10" = 0;
"11" = 0;
"2" = 0;
"3" = 0;
"4" = 0;
"5" = 0;
"6" = 0;
"7" = 0;
"8" = 0;
"9" = 0;
};
};
width = 739;
},
{
anchors = (
{
name = bottom;
pos = (406,0);
},
{
name = ogonek;
pos = (500,0);
},
{
name = top;
pos = (408,700);
},
{
name = topright;
pos = (656,700);
}
);
guides = (
{
angle = 252.2996;
pos = (409,9);
}
);
layerId = "503E420B-61F7-4277-A1BE-A8852071B452";
shapes = (
{
closed = 1;
nodes = (
(550,-15,o),
(635,68,o),
(635,205,cs),
(635,490,ls),
(635,550,o),
(639,595,o),
(650,665,c),
(717,665,l),
(719,675,o),
(719,692,o),
(717,702,c),
(671,700,o),
(636,700,o),
(613,700,cs),
(587,700,o),
(542,700,o),
(486,702,c),
(484,692,o),
(484,675,o),
(486,665,c),
(573,665,l),
(584,595,o),
(588,550,o),
(588,490,cs),
(588,221,ls),
(588,101,o),
(523,32,o),
(416,32,cs),
(299,32,o),
(255,95,o),
(255,211,cs),
(255,490,ls),
(255,550,o),
(258,610,o),
(265,665,c),
(332,665,l),
(334,675,o),
(334,692,o),
(332,702,c),
(286,700,o),
(226,700,o),
(180,700,cs),
(134,700,o),
(74,700,o),
(28,702,c),
(26,692,o),
(26,675,o),
(28,665,c),
(95,665,l),
(102,610,o),
(105,550,o),
(105,490,cs),
(105,195,ls),
(105,55,o),
(210,-15,o),
(401,-15,cs)
);
}
);
userData = {
com.hugojourdan.ColorFlow = {
"0" = 0;
"1" = 0;
"10" = 0;
"11" = 0;
"2" = 0;
"3" = 0;
"4" = 0;
"5" = 0;
"6" = 0;
"7" = 0;
"8" = 0;
"9" = 0;
};
};
width = 742;
},
{
associatedMasterId = "45069982-2EFC-4B7D-8C53-1932E6EAC4CA";
layerId = "CE54C865-E245-4CEE-945E-12AEB145065C";
name = "Nov 3 20, 00:22";
shapes = (
{
closed = 1;
nodes = (
(647,672,l),
(647,700,l),
(463,700,l),
(463,672,l),
(529,672,l),
(537,626,o),
(541,579,o),
(541,532,cs),
(541,168,ls),
(541,55,o),
(478,16,o),
(358,16,cs),
(272,16,o),
(201,83,o),
(201,168,cs),
(201,532,ls),
(201,579,o),
(205,626,o),
(213,672,c),
(279,672,l),
(279,700,l),
(13,700,l),
(13,672,l),
(79,672,l),
(87,626,o),
(91,579,o),
(91,532,cs),
(91,168,ls),
(91,44,o),
(194,-12,o),
(330,-12,cs),
(483,-12,o),
(569,28,o),
(569,168,cs),
(569,532,ls),
(569,579,o),
(573,626,o),
(581,672,c)
);
}
);
visible = 1;
width = 720;
},
{
associatedMasterId = "503E420B-61F7-4277-A1BE-A8852071B452";
layerId = "5BBE3528-29B5-417F-AFB0-AB69CC0B49AB";
name = "Nov 3 20, 00:22";
shapes = (
{
closed = 1;
nodes = (
(655,668,l),
(655,700,l),
(467,700,l),
(467,668,l),
(533,668,l),
(541,622,o),
(545,575,o),
(545,528,cs),
(545,172,ls),
(545,62,o),
(486,20,o),
(371,20,cs),
(294,20,o),
(239,92,o),
(239,172,cs),
(239,528,ls),
(239,575,o),
(243,622,o),
(251,668,c),
(317,668,l),
(317,700,l),
(11,700,l),
(11,668,l),
(77,668,l),
(85,622,o),
(89,575,o),
(89,528,cs),
(89,172,ls),
(89,45,o),
(194,-12,o),
(333,-12,cs),
(489,-12,o),
(577,29,o),
(577,172,cs),
(577,528,ls),
(577,575,o),
(581,622,o),
(589,668,c)
);
}
);
width = 600;
}
);
unicode = 85;
},
{
color = 3;
glyphname = Uhorn;
kernLeft = U;
kernRight = U;
lastChange = "2023-03-10 14:52:46 +0000";
layers = (
{
anchors = (
{
name = bottom;
pos = (393,0);
},
{
name = ogonek;
pos = (482,0);
},
{
name = top;
pos = (394,700);
},
{
name = topright;
pos = (645,700);
}
);
guides = (
{
angle = 79.1597;
pos = (395,9);
}
);
layerId = "45069982-2EFC-4B7D-8C53-1932E6EAC4CA";
shapes = (
{
closed = 1;
nodes = (
(539,-15,o),
(624,68,o),
(624,205,cs),
(624,490,ls),
(624,550,o),
(628,587,o),
(639,657,c),
(684,657,l),
(678,700,l),
(666,700,o),
(620,700,o),
(602,700,cs),
(576,700,o),
(531,700,o),
(485,702,c),
(483,692,o),
(483,675,o),
(485,665,c),
(562,665,l),
(573,595,o),
(577,550,o),
(577,490,cs),
(577,219,ls),
(577,104,o),
(517,32,o),
(399,32,cs),
(288,32,o),
(224,84,o),
(224,210,cs),
(224,490,ls),
(224,550,o),
(227,605,o),
(234,665,c),
(306,665,l),
(308,675,o),
(308,692,o),
(306,702,c),
(260,700,o),
(215,700,o),
(169,700,cs),
(123,700,o),
(78,700,o),
(32,702,c),
(30,692,o),
(30,675,o),
(32,665,c),
(104,665,l),
(111,605,o),
(114,550,o),
(114,490,cs),
(114,205,ls),
(114,55,o),
(199,-15,o),
(390,-15,cs)
);
},
{
pos = (678,0);
ref = horncomb.case;
}
);
userData = {
com.hugojourdan.ColorFlow = {
"0" = 0;
"1" = 0;
"10" = 0;
"11" = 0;
"2" = 0;
"3" = 0;
"4" = 0;
"5" = 0;
"6" = 0;
"7" = 0;
"8" = 0;
"9" = 0;
};
};
width = 739;
},
{
anchors = (
{
name = bottom;
pos = (406,0);
},
{
name = ogonek;
pos = (500,0);
},
{
name = top;
pos = (408,700);
},
{
name = topright;
pos = (656,700);
}
);
guides = (
{
angle = 72.2996;
pos = (409,9);
}
);
layerId = "503E420B-61F7-4277-A1BE-A8852071B452";
shapes = (
{
closed = 1;
nodes = (
(550,-15,o),
(635,68,o),
(635,205,cs),
(635,490,ls),
(635,550,o),
(639,587,o),
(650,657,c),
(662,657,l),
(656,700,l),
(646,700,o),
(630,700,o),
(613,700,cs),
(587,700,o),
(542,700,o),
(486,702,c),
(484,692,o),
(484,675,o),
(486,665,c),
(573,665,l),
(584,595,o),
(588,550,o),
(588,490,cs),
(588,221,ls),
(588,101,o),
(523,32,o),
(416,32,cs),
(299,32,o),
(255,95,o),
(255,211,cs),
(255,490,ls),
(255,550,o),
(258,610,o),
(265,665,c),
(332,665,l),
(334,675,o),
(334,692,o),
(332,702,c),
(286,700,o),
(226,700,o),
(180,700,cs),
(134,700,o),
(74,700,o),
(28,702,c),
(26,692,o),
(26,675,o),
(28,665,c),
(95,665,l),
(102,610,o),
(105,550,o),
(105,490,cs),
(105,195,ls),
(105,55,o),
(210,-15,o),
(401,-15,cs)
);
},
{
pos = (656,0);
ref = horncomb.case;
}
);
userData = {
com.hugojourdan.ColorFlow = {
"0" = 0;
"1" = 0;
"10" = 0;
"11" = 0;
"2" = 0;
"3" = 0;
"4" = 0;
"5" = 0;
"6" = 0;
"7" = 0;
"8" = 0;
"9" = 0;
};
};
width = 742;
}
);
unicode = 431;
},
{
color = 6;
glyphname = V;
lastChange = "2023-03-10 14:52:46 +0000";
layers = (
{
anchors = (
{
name = bottom;
pos = (336,0);
},
{
name = top;
pos = (342,700);
}
);
guides = (
{
angle = 110.9448;
pos = (242,490);
},
{
angle = 110.9448;
pos = (179,345);
}
);
layerId = "45069982-2EFC-4B7D-8C53-1932E6EAC4CA";
shapes = (
{
closed = 1;
nodes = (
(605,700,o),
(580,700,o),
(556,700,cs),
(533,700,o),
(488,700,o),
(433,702,c),
(431,692,o),
(431,675,o),
(433,665,c),
(514,665,l),
(510,605,o),
(495,550,o),
(476,490,cs),
(368,155,l),
(307,-20,l),
(327,-23,o),
(347,-23,o),
(367,-20,c),
(377,48,o),
(404,129,o),
(421,181,cs),
(523,490,ls),
(543,551,o),
(565,605,o),
(595,665,c),
(652,665,l),
(654,675,o),
(654,692,o),
(652,702,c)
);
},
{
closed = 1;
nodes = (
(77,605,o),
(100,551,o),
(123,490,cs),
(234,200,ls),
(257,139,o),
(297,48,o),
(307,-20,c),
(368,155,l),
(242,490,ls),
(219,551,o),
(201,605,o),
(188,665,c),
(257,665,l),
(259,675,o),
(259,692,o),
(257,702,c),
(212,700,o),
(162,700,o),
(116,700,cs),
(70,700,o),
(40,700,o),
(-7,702,c),
(-9,692,o),
(-9,675,o),
(-7,665,c),
(47,665,l)
);
}
);
userData = {
com.hugojourdan.ColorFlow = {
"0" = 0;
"1" = 0;
"10" = 0;
"11" = 0;
"2" = 0;
"3" = 0;
"4" = 0;
"5" = 0;
"6" = 0;
"7" = 0;
"8" = 0;
"9" = 0;
};
};
width = 656;
},
{
anchors = (
{
name = bottom;
pos = (341,0);
},
{
name = top;
pos = (361,700);
}
);
layerId = "503E420B-61F7-4277-A1BE-A8852071B452";
shapes = (
{
closed = 1;
nodes = (
(620,700,o),
(595,700,o),
(571,700,cs),
(548,700,o),
(493,700,o),
(438,702,c),
(436,694,o),
(436,673,o),
(438,665,c),
(529,665,l),
(526,605,o),
(515,552,o),
(494,490,cs),
(391,181,l),
(295,-20,l),
(315,-23,o),
(365,-23,o),
(385,-20,c),
(394,48,o),
(421,129,o),
(438,181,cs),
(541,490,ls),
(561,551,o),
(581,605,o),
(610,665,c),
(667,665,l),
(669,675,o),
(669,692,o),
(667,702,c)
);
},
{
closed = 1;
nodes = (
(69,609,o),
(87,560,o),
(113,490,cs),
(223,200,ls),
(253,121,o),
(282,48,o),
(295,-20,c),
(391,181,l),
(276,490,ls),
(253,552,o),
(234,605,o),
(223,665,c),
(289,665,l),
(291,675,o),
(291,692,o),
(289,702,c),
(244,700,o),
(198,700,o),
(132,700,cs),
(61,700,o),
(41,700,o),
(-6,702,c),
(-8,692,o),
(-8,675,o),
(-6,665,c),
(36,665,l)
);
}
);
userData = {
com.hugojourdan.ColorFlow = {
"0" = 0;
"1" = 0;
"10" = 0;
"11" = 0;
"2" = 0;
"3" = 0;
"4" = 0;
"5" = 0;
"6" = 0;
"7" = 0;
"8" = 0;
"9" = 0;
};
};
width = 662;
}
);
unicode = 86;
},
{
color = 6;
glyphname = W;
kernLeft = W;
kernRight = W;
lastChange = "2023-03-10 14:52:46 +0000";
layers = (
{
anchors = (
{
name = bottom;
pos = (509,0);
},
{
name = top;
pos = (521,700);
}
);
layerId = "45069982-2EFC-4B7D-8C53-1932E6EAC4CA";
shapes = (
{
closed = 1;
nodes = (
(86,595,o),
(105,544,o),
(124,490,cs),
(228,200,ls),
(251,136,o),
(282,40,o),
(294,-20,c),
(357,169,l),
(244,490,ls),
(223,550,o),
(207,600,o),
(196,665,c),
(266,665,l),
(268,675,o),
(268,692,o),
(266,702,c),
(219,700,o),
(166,700,o),
(120,700,cs),
(75,700,o),
(48,700,o),
(-1,702,c),
(-3,692,o),
(-3,675,o),
(-1,665,c),
(52,665,l)
);
},
{
closed = 1;
nodes = (
(981,700,o),
(955,700,o),
(930,700,cs),
(905,700,o),
(860,700,o),
(802,702,c),
(800,692,o),
(800,676,o),
(802,665,c),
(886,665,l),
(881,600,o),
(870,551,o),
(850,490,cs),
(746,169,l),
(683,-20,l),
(704,-23,o),
(720,-23,o),
(741,-20,c),
(752,48,o),
(779,131,o),
(796,181,cs),
(899,490,ls),
(920,553,o),
(939,605,o),
(971,665,c),
(1030,665,l),
(1033,677,o),
(1032,693,o),
(1030,702,c)
);
},
{
closed = 1;
nodes = (
(476,605,o),
(494,545,o),
(513,490,cs),
(616,200,ls),
(649,107,o),
(668,46,o),
(683,-20,c),
(746,169,l),
(634,490,ls),
(612,552,o),
(595,609,o),
(584,665,c),
(656,665,l),
(658,679,o),
(657,693,o),
(656,702,c),
(608,700,o),
(555,700,o),
(510,700,cs),
(471,700,o),
(438,700,o),
(389,702,c),
(386,690,o),
(387,674,o),
(389,665,c),
(447,665,l)
);
},
{
closed = 1;
nodes = (
(493,563,l),
(357,169,l),
(294,-20,l),
(314,-23,o),
(331,-23,o),
(352,-20,c),
(363,48,o),
(390,130,o),
(408,181,cs),
(542,563,l)
);
}
);
userData = {
com.hugojourdan.ColorFlow = {
"0" = 0;
"1" = 0;
"10" = 0;
"11" = 0;
"2" = 0;
"3" = 0;
"4" = 0;
"5" = 0;
"6" = 0;
"7" = 0;
"8" = 0;
"9" = 0;
};
};
width = 1029;
},
{
anchors = (
{
name = bottom;
pos = (533,0);
},
{
name = top;
pos = (533,700);
}
);
layerId = "503E420B-61F7-4277-A1BE-A8852071B452";
shapes = (
{
closed = 1;
nodes = (
(61,619,o),
(87,560,o),
(113,490,cs),
(222,200,ls),
(252,121,o),
(275,50,o),
(287,-20,c),
(388,200,l),
(276,490,ls),
(254,548,o),
(235,604,o),
(224,665,c),
(291,665,l),
(293,675,o),
(293,692,o),
(291,702,c),
(246,700,o),
(200,700,o),
(134,700,cs),
(63,700,o),
(43,700,o),
(-4,702,c),
(-6,692,o),
(-6,675,o),
(-4,665,c),
(33,665,l)
);
},
{
closed = 1;
nodes = (
(1007,700,o),
(982,700,o),
(958,700,cs),
(935,700,o),
(880,700,o),
(825,702,c),
(823,694,o),
(823,673,o),
(825,665,c),
(916,665,l),
(914,593,o),
(896,540,o),
(879,490,cs),
(783,200,l),
(683,-20,l),
(703,-23,o),
(753,-23,o),
(773,-20,c),
(782,48,o),
(809,130,o),
(826,181,cs),
(926,490,ls),
(945,550,o),
(966,600,o),
(997,665,c),
(1054,665,l),
(1056,675,o),
(1056,692,o),
(1054,702,c)
);
},
{
closed = 1;
nodes = (
(464,613,o),
(480,575,o),
(511,490,cs),
(618,200,ls),
(647,121,o),
(672,51,o),
(683,-20,c),
(783,200,l),
(674,490,ls),
(647,562,o),
(632,609,o),
(621,665,c),
(687,665,l),
(689,675,o),
(689,692,o),
(687,702,c),
(642,700,o),
(596,700,o),
(530,700,cs),
(459,700,o),
(439,700,o),
(392,702,c),
(390,692,o),
(390,675,o),
(392,665,c),
(434,665,l)
);
},
{
closed = 1;
nodes = (
(514,559,l),
(388,200,l),
(287,-20,l),
(307,-23,o),
(357,-23,o),
(377,-20,c),
(387,55,o),
(416,141,o),
(430,181,cs),
(561,559,l)
);
}
);
userData = {
com.hugojourdan.ColorFlow = {
"0" = 0;
"1" = 0;
"10" = 0;
"11" = 0;
"2" = 0;
"3" = 0;
"4" = 0;
"5" = 0;
"6" = 0;
"7" = 0;
"8" = 0;
"9" = 0;
};
};
width = 1047;
},
{
associatedMasterId = "503E420B-61F7-4277-A1BE-A8852071B452";
layerId = "D6BE94A4-0B32-4F72-BCB0-D63B2DF79324";
name = "Nov 3 20, 18:13";
shapes = (
{
closed = 1;
nodes = (
(64,619,o),
(90,560,o),
(116,490,cs),
(225,200,ls),
(255,121,o),
(271,50,o),
(283,-20,c),
(384,200,l),
(272,490,ls),
(250,548,o),
(231,604,o),
(220,665,c),
(287,665,l),
(289,675,o),
(289,692,o),
(287,702,c),
(242,700,o),
(203,700,o),
(137,700,cs),
(66,700,o),
(46,700,o),
(-1,702,c),
(-3,692,o),
(-3,675,o),
(-1,665,c),
(36,665,l)
);
},
{
closed = 1;
nodes = (
(1003,700,o),
(978,700,o),
(954,700,cs),
(931,700,o),
(876,700,o),
(821,702,c),
(819,694,o),
(819,673,o),
(821,665,c),
(912,665,l),
(910,593,o),
(892,540,o),
(875,490,cs),
(779,200,l),
(679,-20,l),
(699,-23,o),
(749,-23,o),
(769,-20,c),
(778,48,o),
(805,130,o),
(822,181,cs),
(922,490,ls),
(941,550,o),
(962,600,o),
(993,665,c),
(1050,665,l),
(1052,675,o),
(1052,692,o),
(1050,702,c)
);
},
{
closed = 1;
nodes = (
(467,613,o),
(483,575,o),
(514,490,cs),
(621,200,ls),
(650,121,o),
(668,51,o),
(679,-20,c),
(779,200,l),
(670,490,ls),
(643,562,o),
(628,609,o),
(617,665,c),
(683,665,l),
(685,675,o),
(685,692,o),
(683,702,c),
(638,700,o),
(592,700,o),
(526,700,cs),
(462,700,o),
(442,700,o),
(395,702,c),
(393,692,o),
(393,675,o),
(395,665,c),
(437,665,l)
);
},
{
closed = 1;
nodes = (
(510,559,l),
(384,200,l),
(283,-20,l),
(303,-23,o),
(353,-23,o),
(373,-20,c),
(383,55,o),
(412,141,o),
(426,181,cs),
(557,559,l)
);
}
);
width = 1034;
},
{
associatedMasterId = "45069982-2EFC-4B7D-8C53-1932E6EAC4CA";
layerId = "D29F2EC6-169B-4A0E-B7D7-EAB4EC064959";
name = "Nov 3 20, 18:13";
shapes = (
{
closed = 1;
nodes = (
(1001,672,l),
(1001,700,l),
(871,700,l),
(871,672,l),
(909,672,l),
(901,624,o),
(889,578,o),
(874,532,cs),
(744,147,l),
(614,532,ls),
(598,578,o),
(587,624,o),
(579,672,c),
(617,672,l),
(617,700,l),
(400,700,l),
(400,672,l),
(438,672,l),
(458,634,o),
(475,594,o),
(490,554,c),
(483,532,l),
(353,147,l),
(223,532,ls),
(207,578,o),
(196,624,o),
(188,672,c),
(226,672,l),
(226,700,l),
(9,700,l),
(9,672,l),
(47,672,l),
(71,627,o),
(90,580,o),
(107,532,cs),
(230,168,ls),
(250,108,o),
(266,48,o),
(279,-14,c),
(340,-14,l),
(353,48,o),
(369,108,o),
(389,168,cs),
(505,510,l),
(621,168,ls),
(641,108,o),
(657,48,o),
(670,-14,c),
(731,-14,l),
(744,48,o),
(760,108,o),
(780,168,cs),
(903,532,ls),
(920,580,o),
(940,627,o),
(963,672,c)
);
}
);
visible = 1;
width = 1030;
}
);
unicode = 87;
},
{
color = 6;
glyphname = X;
lastChange = "2023-03-10 14:52:46 +0000";
layers = (
{
anchors = (
{
name = bottom;
pos = (357,0);
},
{
name = top;
pos = (357,700);
}
);
layerId = "45069982-2EFC-4B7D-8C53-1932E6EAC4CA";
shapes = (
{
closed = 1;
nodes = (
(641,35,l),
(596,95,o),
(556,153,o),
(517,212,cs),
(336,490,ls),
(297,549,o),
(260,605,o),
(234,665,c),
(303,665,l),
(305,675,o),
(305,692,o),
(303,702,c),
(259,700,o),
(206,700,o),
(149,700,cs),
(103,700,o),
(73,700,o),
(25,702,c),
(23,692,o),
(23,675,o),
(25,665,c),
(79,665,l),
(127,605,o),
(165,549,o),
(204,490,cs),
(386,212,ls),
(425,153,o),
(457,95,o),
(483,35,c),
(414,35,l),
(412,25,o),
(412,8,o),
(414,-2,c),
(458,0,o),
(520,0,o),
(566,0,cs),
(617,0,o),
(647,0,o),
(695,-2,c),
(697,8,o),
(697,25,o),
(695,35,c)
);
},
{
closed = 1;
nodes = (
(390,345,l),
(486,490,ls),
(525,549,o),
(567,605,o),
(615,665,c),
(670,665,l),
(672,675,o),
(672,692,o),
(670,702,c),
(622,700,o),
(598,700,o),
(574,700,cs),
(551,700,o),
(505,700,o),
(451,702,c),
(449,692,o),
(449,675,o),
(451,665,c),
(529,665,l),
(507,605,o),
(473,548,o),
(434,490,cs),
(337,345,l)
);
},
{
closed = 1;
nodes = (
(307,365,l),
(206,210,ls),
(167,150,o),
(126,95,o),
(78,35,c),
(23,35,l),
(21,25,o),
(21,8,o),
(23,-2,c),
(71,0,o),
(95,0,o),
(119,0,cs),
(142,0,o),
(188,0,o),
(242,-2,c),
(244,8,o),
(244,25,o),
(242,35,c),
(164,35,l),
(186,95,o),
(219,151,o),
(258,210,cs),
(360,365,l)
);
}
);
userData = {
com.hugojourdan.ColorFlow = {
"0" = 0;
"1" = 0;
"10" = 0;
"11" = 0;
"2" = 0;
"3" = 0;
"4" = 0;
"5" = 0;
"6" = 0;
"7" = 0;
"8" = 0;
"9" = 0;
};
};
width = 709;
},
{
anchors = (
{
name = bottom;
pos = (324,0);
},
{
name = top;
pos = (394,700);
}
);
layerId = "503E420B-61F7-4277-A1BE-A8852071B452";
shapes = (
{
closed = 1;
nodes = (
(655,35,l),
(615,81,o),
(583,140,o),
(538,210,cs),
(360,490,ls),
(322,550,o),
(289,605,o),
(264,665,c),
(333,665,l),
(335,675,o),
(335,692,o),
(333,702,c),
(288,700,o),
(234,700,o),
(155,700,cs),
(84,700,o),
(65,700,o),
(18,702,c),
(16,692,o),
(16,675,o),
(18,665,c),
(60,665,l),
(100,619,o),
(138,559,o),
(181,490,cs),
(355,210,ls),
(392,150,o),
(424,95,o),
(449,35,c),
(382,35,l),
(380,25,o),
(380,8,o),
(382,-2,c),
(427,0,o),
(486,0,o),
(557,0,cs),
(631,0,o),
(650,0,o),
(697,-2,c),
(699,8,o),
(699,25,o),
(697,35,c)
);
},
{
closed = 1;
nodes = (
(390,334,l),
(499,490,ls),
(540,549,o),
(586,605,o),
(634,665,c),
(691,665,l),
(693,677,o),
(693,690,o),
(691,702,c),
(643,700,o),
(618,700,o),
(594,700,cs),
(571,700,o),
(516,700,o),
(462,702,c),
(460,690,o),
(460,677,o),
(462,665,c),
(546,665,l),
(524,605,o),
(488,550,o),
(446,490,cs),
(338,334,l)
);
},
{
closed = 1;
nodes = (
(305,366,l),
(203,210,ls),
(164,151,o),
(124,95,o),
(79,35,c),
(17,35,l),
(15,23,o),
(15,10,o),
(17,-2,c),
(65,0,o),
(90,0,o),
(114,0,cs),
(137,0,o),
(192,0,o),
(246,-2,c),
(248,10,o),
(248,23,o),
(246,35,c),
(164,35,l),
(185,95,o),
(216,149,o),
(256,210,cs),
(357,366,l)
);
}
);
userData = {
com.hugojourdan.ColorFlow = {
"0" = 0;
"1" = 0;
"10" = 0;
"11" = 0;
"2" = 0;
"3" = 0;
"4" = 0;
"5" = 0;
"6" = 0;
"7" = 0;
"8" = 0;
"9" = 0;
};
};
width = 712;
},
{
associatedMasterId = "45069982-2EFC-4B7D-8C53-1932E6EAC4CA";
layerId = "083BF821-9E36-44C3-8C02-B9CEF5444806";
name = "Nov 3 20, 21:24";
shapes = (
{
closed = 1;
nodes = (
(647,0,l),
(647,28,l),
(581,28,l),
(549,73,o),
(519,120,o),
(492,168,cs),
(364,403,l),
(446,532,ls),
(478,581,o),
(511,627,o),
(548,672,c),
(614,672,l),
(614,700,l),
(425,700,l),
(425,672,l),
(491,672,l),
(468,624,o),
(442,577,o),
(413,532,cs),
(349,431,l),
(293,532,ls),
(268,577,o),
(247,624,o),
(228,672,c),
(294,672,l),
(294,700,l),
(13,700,l),
(13,672,l),
(79,672,l),
(111,627,o),
(141,580,o),
(168,532,cs),
(281,325,l),
(181,168,ls),
(149,119,o),
(116,73,o),
(79,28,c),
(13,28,l),
(13,0,l),
(202,0,l),
(202,28,l),
(136,28,l),
(159,76,o),
(185,123,o),
(214,168,cs),
(296,297,l),
(367,168,ls),
(392,123,o),
(413,76,o),
(432,28,c),
(366,28,l),
(366,0,l)
);
}
);
visible = 1;
width = 640;
},
{
associatedMasterId = "503E420B-61F7-4277-A1BE-A8852071B452";
layerId = "308EC262-DACE-4639-9379-A7B993C50382";
name = "Nov 3 20, 21:24";
shapes = (
{
closed = 1;
nodes = (
(655,0,l),
(655,32,l),
(589,32,l),
(558,77,o),
(531,124,o),
(507,172,cs),
(382,420,l),
(452,528,ls),
(484,577,o),
(519,623,o),
(556,668,c),
(622,668,l),
(622,700,l),
(428,700,l),
(428,668,l),
(494,668,l),
(470,620,o),
(443,573,o),
(414,528,cs),
(365,453,l),
(327,528,ls),
(305,573,o),
(285,620,o),
(269,668,c),
(335,668,l),
(335,700,l),
(11,700,l),
(11,668,l),
(77,668,l),
(108,623,o),
(135,576,o),
(159,528,cs),
(270,308,l),
(181,172,ls),
(149,123,o),
(114,77,o),
(77,32,c),
(11,32,l),
(11,0,l),
(205,0,l),
(205,32,l),
(139,32,l),
(163,80,o),
(190,127,o),
(219,172,cs),
(287,275,l),
(339,172,ls),
(361,127,o),
(381,80,o),
(397,32,c),
(331,32,l),
(331,0,l)
);
}
);
width = 600;
}
);
unicode = 88;
},
{
color = 6;
glyphname = Y;
kernLeft = Y;
kernRight = Y;
lastChange = "2023-03-10 14:52:46 +0000";
layers = (
{
anchors = (
{
name = bottom;
pos = (320,0);
},
{
name = top;
pos = (333,700);
},
{
name = topleft;
pos = (20,700);
}
);
backgroundImage = {
imagePath = "/Downloads/19281931_Potawski_Antykwa-poster.png";
locked = 1;
pos = (-9538,-14);
scale = (6.853,6.853);
};
layerId = "45069982-2EFC-4B7D-8C53-1932E6EAC4CA";
shapes = (
{
closed = 1;
nodes = (
(231,0,o),
(276,0,o),
(322,0,cs),
(368,0,o),
(413,0,o),
(459,-2,c),
(461,8,o),
(461,25,o),
(459,35,c),
(387,35,l),
(380,95,o),
(377,150,o),
(377,190,cs),
(377,203,ls),
(377,321,o),
(437,524,o),
(570,665,c),
(495,665,l),
(491,652,o),
(485,637,o),
(463,603,cs),
(422,540,o),
(374,441,o),
(354,350,c),
(318,538,o),
(226,618,o),
(213,665,c),
(62,665,l),
(149,589,o),
(267,385,o),
(267,203,cs),
(267,190,ls),
(267,150,o),
(264,95,o),
(257,35,c),
(185,35,l),
(183,25,o),
(183,8,o),
(185,-2,c)
);
},
{
closed = 1;
nodes = (
(267,665,l),
(269,675,o),
(269,692,o),
(267,702,c),
(211,700,o),
(141,700,o),
(115,700,cs),
(89,700,o),
(44,700,o),
(-2,702,c),
(-4,692,o),
(-4,675,o),
(-2,665,c)
);
},
{
closed = 1;
nodes = (
(627,665,l),
(629,675,o),
(629,692,o),
(627,702,c),
(581,700,o),
(555,700,o),
(529,700,cs),
(503,700,o),
(463,700,o),
(407,702,c),
(405,692,o),
(405,675,o),
(407,665,c)
);
}
);
userData = {
com.hugojourdan.ColorFlow = {
"0" = 0;
"1" = 0;
"10" = 0;
"11" = 0;
"2" = 0;
"3" = 0;
"4" = 0;
"5" = 0;
"6" = 0;
"7" = 0;
"8" = 0;
"9" = 0;
};
};
width = 642;
},
{
anchors = (
{
name = bottom;
pos = (333,0);
},
{
name = top;
pos = (362,700);
},
{
name = topleft;
pos = (21,700);
}
);
layerId = "503E420B-61F7-4277-A1BE-A8852071B452";
shapes = (
{
closed = 1;
nodes = (
(228,0,o),
(288,0,o),
(334,0,cs),
(380,0,o),
(440,0,o),
(486,-2,c),
(488,8,o),
(488,25,o),
(486,35,c),
(419,35,l),
(412,90,o),
(409,150,o),
(409,210,cs),
(409,223,ls),
(409,341,o),
(474,524,o),
(611,665,c),
(523,665,l),
(519,652,o),
(509,623,o),
(485,582,cs),
(460,539,o),
(405,441,o),
(385,355,c),
(335,553,o),
(258,620,o),
(245,665,c),
(54,665,l),
(141,578,o),
(259,375,o),
(259,193,cs),
(259,180,ls),
(259,150,o),
(256,90,o),
(249,35,c),
(182,35,l),
(180,25,o),
(180,8,o),
(182,-2,c)
);
},
{
closed = 1;
nodes = (
(299,665,l),
(301,675,o),
(301,692,o),
(299,702,c),
(243,700,o),
(173,700,o),
(147,700,cs),
(81,700,o),
(48,700,o),
(2,702,c),
(0,692,o),
(0,675,o),
(2,665,c)
);
},
{
closed = 1;
nodes = (
(664,665,l),
(666,675,o),
(666,692,o),
(664,702,c),
(618,700,o),
(592,700,o),
(566,700,cs),
(540,700,o),
(490,700,o),
(434,702,c),
(432,692,o),
(432,675,o),
(434,665,c)
);
}
);
userData = {
com.hugojourdan.ColorFlow = {
"0" = 0;
"1" = 0;
"10" = 0;
"11" = 0;
"2" = 0;
"3" = 0;
"4" = 0;
"5" = 0;
"6" = 0;
"7" = 0;
"8" = 0;
"9" = 0;
};
};
width = 665;
},
{
associatedMasterId = "45069982-2EFC-4B7D-8C53-1932E6EAC4CA";
backgroundImage = {
imagePath = "/Downloads/19281931_Potawski_Antykwa-poster.png";
locked = 1;
pos = (-9538,-14);
scale = (6.853,6.853);
};
guides = (
{
pos = (534,625);
}
);
layerId = "ED2B5FC9-B7D3-440C-B501-88F4FB380913";
name = "Nov 4 20, 00:15";
shapes = (
{
closed = 1;
nodes = (
(501,665,l),
(500,652,o),
(491,640,o),
(469,606,cs),
(428,543,o),
(383,451,o),
(363,373,c),
(339,464,o),
(281,580,o),
(210,665,c),
(13,665,l),
(63,665,o),
(79,654,o),
(114,611,cs),
(168,543,o),
(272,383,o),
(272,223,c),
(382,223,l),
(382,351,o),
(442,524,o),
(534,625,cs),
(565,659,o),
(579,665,o),
(616,665,c)
);
},
{
closed = 1;
nodes = (
(327,223,l),
(272,223,l),
(272,210,ls),
(272,150,o),
(269,95,o),
(262,35,c),
(190,35,l),
(188,25,o),
(188,8,o),
(190,-2,c),
(236,0,o),
(281,0,o),
(327,0,c)
);
},
{
closed = 1;
nodes = (
(373,0,o),
(418,0,o),
(464,-2,c),
(466,8,o),
(466,25,o),
(464,35,c),
(392,35,l),
(385,95,o),
(382,150,o),
(382,210,cs),
(382,223,l),
(327,223,l),
(327,0,l)
);
},
{
closed = 1;
nodes = (
(297,665,l),
(299,675,o),
(299,692,o),
(297,702,c),
(241,700,o),
(176,700,o),
(150,700,cs),
(124,700,o),
(59,700,o),
(3,702,c),
(1,692,o),
(1,675,o),
(3,665,c)
);
},
{
closed = 1;
nodes = (
(651,665,l),
(653,675,o),
(653,692,o),
(651,702,c),
(605,700,o),
(570,700,o),
(544,700,cs),
(518,700,o),
(483,700,o),
(427,702,c),
(425,692,o),
(425,675,o),
(427,665,c)
);
}
);
width = 660;
},
{
associatedMasterId = "503E420B-61F7-4277-A1BE-A8852071B452";
layerId = "8BA5FA6B-431C-4205-AD1B-5C9ADE995262";
name = "Nov 4 20, 15:08";
shapes = (
{
closed = 1;
nodes = (
(651,668,l),
(651,700,l),
(452,700,l),
(452,668,l),
(525,668,l),
(525,636,o),
(503,602,o),
(483,573,cs),
(461,538,o),
(441,502,o),
(424,464,cs),
(410,431,o),
(398,397,o),
(390,362,c),
(378,410,ls),
(362,464,o),
(340,516,o),
(313,566,cs),
(296,597,o),
(286,632,o),
(285,668,c),
(351,668,l),
(351,700,l),
(7,700,l),
(7,668,l),
(51,668,l),
(102,617,o),
(146,558,o),
(181,494,cs),
(225,414,o),
(254,325,o),
(254,233,cs),
(254,172,ls),
(254,125,o),
(250,78,o),
(242,32,c),
(176,32,l),
(176,0,l),
(482,0,l),
(482,32,l),
(416,32,l),
(408,78,o),
(404,125,o),
(404,172,cs),
(404,233,ls),
(404,308,o),
(423,382,o),
(453,451,cs),
(489,532,o),
(539,605,o),
(602,668,c)
);
}
);
visible = 1;
width = 600;
}
);
unicode = 89;
},
{
color = 6;
glyphname = Z;
kernLeft = Z;
kernRight = Z;
lastChange = "2023-03-10 14:52:46 +0000";
layers = (
{
anchors = (
{
name = bottom;
pos = (308,0);
},
{
name = center;
pos = (308,350);
},
{
name = top;
pos = (338,700);
}
);
guides = (
{
pos = (208,210);
}
);
layerId = "45069982-2EFC-4B7D-8C53-1932E6EAC4CA";
shapes = (
{
closed = 1;
nodes = (
(65,510,l),
(76,508,o),
(86,508,o),
(97,510,c),
(102,620,o),
(153,660,o),
(237,660,cs),
(454,660,l),
(583,650,l),
(584,667,o),
(583,683,o),
(580,700,c),
(65,700,l)
);
},
{
closed = 1;
nodes = (
(595,190,l),
(584,192,o),
(574,192,o),
(563,190,c),
(558,80,o),
(517,40,o),
(423,40,cs),
(171,40,l),
(35,50,l),
(35,33,o),
(37,17,o),
(39,0,c),
(595,0,l)
);
},
{
closed = 1;
nodes = (
(424,643,o),
(397,595,o),
(353,520,cs),
(151,180,ls),
(125,136,o),
(75,67,o),
(35,50,c),
(171,40,l),
(206,57,o),
(235,105,o),
(279,180,cs),
(481,520,ls),
(507,564,o),
(538,623,o),
(583,650,c),
(454,660,l)
);
}
);
userData = {
com.hugojourdan.ColorFlow = {
"0" = 0;
"1" = 0;
"10" = 0;
"11" = 0;
"2" = 0;
"3" = 0;
"4" = 0;
"5" = 0;
"6" = 0;
"7" = 0;
"8" = 0;
"9" = 0;
};
};
width = 644;
},
{
anchors = (
{
name = bottom;
pos = (309,0);
},
{
name = center;
pos = (309,350);
},
{
name = top;
pos = (334,700);
}
);
layerId = "503E420B-61F7-4277-A1BE-A8852071B452";
shapes = (
{
closed = 1;
nodes = (
(64,500,l),
(75,498,o),
(85,498,o),
(96,500,c),
(101,620,o),
(152,660,o),
(246,660,cs),
(424,660,l),
(607,650,l),
(608,667,o),
(607,683,o),
(602,700,c),
(64,700,l)
);
},
{
closed = 1;
nodes = (
(609,190,l),
(598,192,o),
(588,192,o),
(577,190,c),
(572,110,o),
(531,40,o),
(427,40,cs),
(214,40,l),
(29,50,l),
(28,33,o),
(29,17,o),
(34,0,c),
(609,0,l)
);
},
{
closed = 1;
nodes = (
(404,643,o),
(384,613,o),
(367,584,cs),
(135,180,ls),
(110,137,o),
(69,67,o),
(29,50,c),
(214,40,l),
(239,57,o),
(252,78,o),
(269,108,cs),
(505,520,ls),
(530,563,o),
(562,623,o),
(607,650,c),
(424,660,l)
);
}
);
userData = {
com.hugojourdan.ColorFlow = {
"0" = 0;
"1" = 0;
"10" = 0;
"11" = 0;
"2" = 0;
"3" = 0;
"4" = 0;
"5" = 0;
"6" = 0;
"7" = 0;
"8" = 0;
"9" = 0;
};
};
width = 656;
},
{
associatedMasterId = "45069982-2EFC-4B7D-8C53-1932E6EAC4CA";
layerId = "E027E6B9-DBC9-4CF2-87C8-D3090DECD659";
name = "Nov 3 20, 21:08";
shapes = (
{
closed = 1;
nodes = (
(26,28,l),
(26,0,l),
(584,0,l),
(584,175,l),
(556,175,l),
(556,99,o),
(513,28,o),
(444,28,cs)
);
},
{
closed = 1;
nodes = (
(464,683,l),
(430,651,o),
(399,619,o),
(376,578,cs),
(154,175,ls),
(121,114,o),
(72,64,o),
(12,28,c),
(159,18,l),
(195,47,o),
(227,80,o),
(251,122,cs),
(472,525,ls),
(503,579,o),
(538,630,o),
(581,675,c)
);
},
{
closed = 1;
nodes = (
(570,700,l),
(54,700,l),
(54,525,l),
(82,525,l),
(82,601,o),
(125,672,o),
(194,672,cs),
(570,672,l)
);
}
);
width = 620;
},
{
associatedMasterId = "503E420B-61F7-4277-A1BE-A8852071B452";
layerId = "D4D88E59-8924-493D-B3CA-E11EFC59C935";
name = "Nov 3 20, 21:08";
shapes = (
{
closed = 1;
nodes = (
(22,32,l),
(22,0,l),
(582,0,l),
(582,175,l),
(550,175,l),
(550,102,o),
(509,32,o),
(442,32,cs)
);
},
{
closed = 1;
nodes = (
(403,679,l),
(373,652,o),
(349,622,o),
(333,586,cs),
(151,175,ls),
(123,112,o),
(71,62,o),
(7,37,c),
(220,21,l),
(247,47,o),
(272,78,o),
(288,114,cs),
(470,525,ls),
(494,580,o),
(532,629,o),
(578,668,c)
);
},
{
closed = 1;
nodes = (
(566,700,l),
(50,700,l),
(50,525,l),
(82,525,l),
(82,598,o),
(123,668,o),
(190,668,cs),
(566,668,l)
);
}
);
visible = 1;
width = 600;
}
);
unicode = 90;
},
{
color = 3;
glyphname = K.ss01;
kernLeft = H;
kernRight = K.ss01;
lastChange = "2023-03-10 14:52:46 +0000";
layers = (
{
anchors = (
{
name = bottom;
pos = (380,0);
},
{
name = top;
pos = (380,700);
}
);
layerId = "45069982-2EFC-4B7D-8C53-1932E6EAC4CA";
shapes = (
{
closed = 1;
nodes = (
(503,0,o),
(550,0,o),
(596,0,cs),
(642,0,o),
(674,0,o),
(723,-2,c),
(725,10,o),
(725,23,o),
(723,35,c),
(673,35,l),
(621,95,o),
(569,163,o),
(528,224,cs),
(382,440,l),
(306,355,l),
(399,222,ls),
(441,161,o),
(486,95,o),
(519,35,c),
(460,35,l),
(458,23,o),
(458,10,o),
(460,-2,c)
);
},
{
closed = 1;
nodes = (
(231,252,l),
(451,494,ls),
(503,551,o),
(554,605,o),
(613,665,c),
(678,665,l),
(680,677,o),
(680,690,o),
(678,702,c),
(630,700,o),
(596,700,o),
(572,700,cs),
(549,700,o),
(503,700,o),
(449,702,c),
(447,690,o),
(447,677,o),
(449,665,c),
(521,665,l),
(488,605,o),
(444,550,o),
(392,494,cs),
(170,252,l)
);
},
{
ref = I;
}
);
userData = {
com.hugojourdan.ColorFlow = {
"0" = 0;
"1" = 0;
"10" = 0;
"11" = 0;
"2" = 0;
"3" = 0;
"4" = 0;
"5" = 0;
"6" = 0;
"7" = 0;
"8" = 0;
"9" = 0;
};
};
width = 730;
},
{
anchors = (
{
name = bottom;
pos = (401,0);
},
{
name = top;
pos = (401,700);
}
);
layerId = "503E420B-61F7-4277-A1BE-A8852071B452";
shapes = (
{
closed = 1;
nodes = (
(505,0,o),
(547,0,o),
(613,0,cs),
(687,0,o),
(708,0,o),
(755,-2,c),
(757,10,o),
(757,23,o),
(755,35,c),
(713,35,l),
(675,81,o),
(643,141,o),
(603,210,cs),
(451,470,l),
(343,352,l),
(425,210,ls),
(460,149,o),
(490,95,o),
(512,35,c),
(460,35,l),
(458,23,o),
(458,10,o),
(460,-2,c)
);
},
{
closed = 1;
nodes = (
(213,193,l),
(480,490,ls),
(532,548,o),
(592,615,o),
(658,665,c),
(715,665,l),
(717,677,o),
(717,690,o),
(715,702,c),
(667,700,o),
(632,700,o),
(608,700,cs),
(585,700,o),
(525,700,o),
(471,702,c),
(469,690,o),
(469,677,o),
(471,665,c),
(550,665,l),
(522,605,o),
(473,549,o),
(420,490,cs),
(152,193,l)
);
},
{
ref = I;
}
);
userData = {
com.hugojourdan.ColorFlow = {
"0" = 0;
"1" = 0;
"10" = 0;
"11" = 0;
"2" = 0;
"3" = 0;
"4" = 0;
"5" = 0;
"6" = 0;
"7" = 0;
"8" = 0;
"9" = 0;
};
};
width = 758;
}
);
},
{
color = 6;
glyphname = R.ss01;
kernLeft = H;
kernRight = R.ss01;
lastChange = "2023-03-10 14:52:46 +0000";
layers = (
{
anchors = (
{
name = bottom;
pos = (366,0);
},
{
name = top;
pos = (337,700);
}
);
layerId = "45069982-2EFC-4B7D-8C53-1932E6EAC4CA";
shapes = (
{
closed = 1;
nodes = (
(136,700,o),
(91,700,o),
(45,702,c),
(43,692,o),
(43,675,o),
(45,665,c),
(117,665,l),
(124,605,o),
(127,550,o),
(127,490,cs),
(127,210,ls),
(127,150,o),
(124,95,o),
(117,35,c),
(45,35,l),
(43,25,o),
(43,8,o),
(45,-2,c),
(91,0,o),
(136,0,o),
(182,0,cs),
(228,0,o),
(273,0,o),
(319,-2,c),
(321,8,o),
(321,25,o),
(319,35,c),
(247,35,l),
(240,95,o),
(237,150,o),
(237,210,cs),
(237,490,ls),
(237,550,o),
(240,600,o),
(247,660,c),
(327,660,ls),
(432,660,o),
(477,603,o),
(477,512,cs),
(477,417,o),
(427,360,o),
(347,360,cs),
(182,360,l),
(182,320,l),
(354,320,l),
(406,324,l),
(521,344,o),
(602,417,o),
(602,520,cs),
(602,647,o),
(487,700,o),
(337,700,cs),
(182,700,ls)
);
},
{
closed = 1;
nodes = (
(477,0,o),
(511,0,o),
(557,0,cs),
(608,0,o),
(638,0,o),
(686,-2,c),
(688,10,o),
(688,23,o),
(686,35,c),
(632,35,l),
(590,95,o),
(557,152,o),
(521,212,cs),
(439,347,l),
(322,338,l),
(398,212,ls),
(434,152,o),
(464,95,o),
(485,35,c),
(433,35,l),
(431,23,o),
(431,10,o),
(433,-2,c)
);
}
);
userData = {
com.hugojourdan.ColorFlow = {
"0" = 0;
"1" = 0;
"10" = 0;
"11" = 0;
"2" = 0;
"3" = 0;
"4" = 0;
"5" = 0;
"6" = 0;
"7" = 0;
"8" = 0;
"9" = 0;
};
};
width = 694;
},
{
anchors = (
{
name = bottom;
pos = (384,0);
},
{
name = top;
pos = (354,700);
}
);
layerId = "503E420B-61F7-4277-A1BE-A8852071B452";
shapes = (
{
closed = 1;
nodes = (
(149,700,o),
(89,700,o),
(43,702,c),
(41,692,o),
(41,675,o),
(43,665,c),
(110,665,l),
(117,610,o),
(120,550,o),
(120,490,cs),
(120,210,ls),
(120,150,o),
(117,90,o),
(110,35,c),
(43,35,l),
(41,25,o),
(41,8,o),
(43,-2,c),
(89,0,o),
(149,0,o),
(195,0,cs),
(241,0,o),
(301,0,o),
(347,-2,c),
(349,8,o),
(349,25,o),
(347,35,c),
(280,35,l),
(273,90,o),
(270,150,o),
(270,210,cs),
(270,490,ls),
(270,550,o),
(273,600,o),
(280,660,c),
(327,660,ls),
(407,660,o),
(457,613,o),
(457,510,cs),
(457,407,o),
(402,360,o),
(337,360,cs),
(202,360,l),
(202,320,l),
(374,320,l),
(441,336,ls),
(530,357,o),
(622,409,o),
(622,522,cs),
(622,652,o),
(502,700,o),
(357,700,cs),
(195,700,ls)
);
},
{
closed = 1;
nodes = (
(463,0,o),
(500,0,o),
(571,0,cs),
(639,0,o),
(658,0,o),
(705,-2,c),
(707,10,o),
(707,23,o),
(705,35,c),
(663,35,l),
(631,81,o),
(597,137,o),
(559,210,cs),
(468,385,l),
(328,340,l),
(395,210,ls),
(425,151,o),
(455,95,o),
(475,35,c),
(418,35,l),
(416,23,o),
(416,10,o),
(418,-2,c)
);
}
);
userData = {
com.hugojourdan.ColorFlow = {
"0" = 0;
"1" = 0;
"10" = 0;
"11" = 0;
"2" = 0;
"3" = 0;
"4" = 0;
"5" = 0;
"6" = 0;
"7" = 0;
"8" = 0;
"9" = 0;
};
};
width = 708;
}
);
},
{
color = 3;
glyphname = Lslash.ss07;
kernRight = L;
lastChange = "2023-03-10 14:52:46 +0000";
layers = (
{
layerId = "45069982-2EFC-4B7D-8C53-1932E6EAC4CA";
shapes = (
{
closed = 1;
nodes = (
(228,351,l),
(22,229,l),
(19,211,o),
(19,193,o),
(22,175,c),
(228,304,l)
);
},
{
closed = 1;
nodes = (
(228,294,l),
(472,439,l),
(475,457,o),
(475,475,o),
(472,493,c),
(228,341,l)
);
},
{
pos = (6,0);
ref = L;
}
);
userData = {
com.hugojourdan.ColorFlow = {
"0" = 0;
"1" = 0;
"10" = 0;
"11" = 0;
"2" = 0;
"3" = 0;
"4" = 0;
"5" = 0;
"6" = 0;
"7" = 0;
"8" = 0;
"9" = 0;
};
};
width = 589;
},
{
layerId = "503E420B-61F7-4277-A1BE-A8852071B452";
shapes = (
{
closed = 1;
nodes = (
(222,351,l),
(16,229,l),
(13,211,o),
(13,193,o),
(16,175,c),
(222,304,l)
);
},
{
closed = 1;
nodes = (
(222,294,l),
(515,466,l),
(518,484,o),
(518,502,o),
(515,520,c),
(222,341,l)
);
},
{
pos = (15,0);
ref = L;
}
);
userData = {
com.hugojourdan.ColorFlow = {
"0" = 0;
"1" = 0;
"10" = 0;
"11" = 0;
"2" = 0;
"3" = 0;
"4" = 0;
"5" = 0;
"6" = 0;
"7" = 0;
"8" = 0;
"9" = 0;
};
};
width = 603;
}
);
metricLeft = "=Lslash";
metricRight = "=Lslash";
},
{
color = 6;
glyphname = a;
kernLeft = a;
kernRight = a;
lastChange = "2023-03-10 14:52:46 +0000";
layers = (
{
anchors = (
{
name = bottom;
pos = (238,0);
},
{
name = ogonek;
pos = (483,-2);
},
{
name = top;
pos = (250,440);
}
);
layerId = "45069982-2EFC-4B7D-8C53-1932E6EAC4CA";
shapes = (
{
closed = 1;
nodes = (
(260,-15,o),
(297,12,o),
(332,45,c),
(326,85,l),
(297,55,o),
(264,28,o),
(213,28,cs),
(163,28,o),
(138,64,o),
(138,117,c),
(138,181,o),
(184,210,o),
(242,210,cs),
(269,210,o),
(298,204,o),
(326,191,c),
(326,231,l),
(302,240,o),
(270,250,o),
(220,250,cs),
(117,250,o),
(38,203,o),
(38,114,c),
(38,34,o),
(101,-15,o),
(187,-15,c)
);
},
{
closed = 1;
nodes = (
(421,407,o),
(360,455,o),
(254,455,cs),
(132,455,o),
(63,391,o),
(63,325,c),
(163,325,l),
(158,386,o),
(188,418,o),
(243,418,cs),
(301,418,o),
(326,378,o),
(326,297,c),
(326,85,l),
(332,45,l),
(341,11,o),
(363,-10,o),
(416,-10,cs),
(434,-10,o),
(462,-7,o),
(483,-2,c),
(485,10,o),
(485,23,o),
(483,35,c),
(441,35,o),
(421,46,o),
(421,85,c),
(421,304,ls)
);
}
);
userData = {
com.hugojourdan.ColorFlow = {
"0" = 0;
"1" = 0;
"10" = 0;
"11" = 0;
"2" = 0;
"3" = 0;
"4" = 0;
"5" = 0;
"6" = 0;
"7" = 0;
"8" = 0;
"9" = 0;
};
};
width = 510;
},
{
anchors = (
{
name = bottom;
pos = (266,0);
},
{
name = ogonek;
pos = (526,-2);
},
{
name = top;
pos = (270,460);
}
);
layerId = "503E420B-61F7-4277-A1BE-A8852071B452";
shapes = (
{
closed = 1;
nodes = (
(261,-15,o),
(312,8,o),
(347,40,c),
(337,85,l),
(311,54,o),
(275,35,o),
(239,35,cs),
(193,35,o),
(164,67,o),
(164,123,c),
(164,186,o),
(209,220,o),
(265,220,cs),
(290,220,o),
(316,215,o),
(337,205,c),
(337,247,l),
(307,258,o),
(276,265,o),
(232,265,cs),
(120,265,o),
(34,218,o),
(34,121,c),
(34,33,o),
(99,-15,o),
(197,-15,c)
);
},
{
closed = 1;
nodes = (
(467,412,o),
(416,475,o),
(268,475,cs),
(125,475,o),
(59,411,o),
(59,320,c),
(189,320,l),
(180,389,o),
(207,438,o),
(263,438,cs),
(319,438,o),
(337,382,o),
(337,314,c),
(337,85,l),
(347,40,l),
(356,7,o),
(388,-10,o),
(446,-10,cs),
(469,-10,o),
(496,-8,o),
(527,-2,c),
(529,10,o),
(529,23,o),
(527,35,c),
(485,35,o),
(467,46,o),
(467,95,c),
(467,309,ls)
);
}
);
userData = {
com.hugojourdan.ColorFlow = {
"0" = 0;
"1" = 0;
"10" = 0;
"11" = 0;
"2" = 0;
"3" = 0;
"4" = 0;
"5" = 0;
"6" = 0;
"7" = 0;
"8" = 0;
"9" = 0;
};
};
width = 546;
},
{
associatedMasterId = "45069982-2EFC-4B7D-8C53-1932E6EAC4CA";
layerId = "32DEE42D-1858-4AEB-A29B-4103D10B3F7F";
name = "Nov 3 20, 18:57";
shapes = (
{
closed = 1;
nodes = (
(452,0,l),
(452,28,l),
(414,28,o),
(392,36,o),
(392,70,cs),
(392,308,ls),
(392,402,o),
(323,452,o),
(224,452,cs),
(139,452,o),
(56,412,o),
(56,336,c),
(128,336,l),
(128,392,o),
(167,424,o),
(224,424,cs),
(274,424,o),
(302,388,o),
(302,336,cs),
(302,232,l),
(270,257,o),
(232,270,o),
(192,270,cs),
(95,270,o),
(26,221,o),
(26,129,cs),
(26,37,o),
(95,-12,o),
(192,-12,cs),
(233,-12,o),
(280,9,o),
(310,40,c),
(323,16,o),
(350,0,o),
(380,0,cs)
);
},
{
closed = 1;
nodes = (
(302,73,l),
(282,41,o),
(238,16,o),
(200,16,cs),
(147,16,o),
(116,71,o),
(116,129,cs),
(116,187,o),
(147,242,o),
(200,242,cs),
(237,242,o),
(274,229,o),
(302,204,c)
);
}
);
width = 472;
},
{
associatedMasterId = "503E420B-61F7-4277-A1BE-A8852071B452";
layerId = "7453FD27-2B63-47B3-8720-54D9E0BD8A48";
name = "Nov 3 20, 18:57";
shapes = (
{
closed = 1;
nodes = (
(482,0,l),
(482,32,l),
(445,32,o),
(422,37,o),
(422,70,cs),
(422,308,ls),
(422,406,o),
(343,452,o),
(237,452,cs),
(146,452,o),
(52,420,o),
(52,340,c),
(148,340,l),
(148,391,o),
(184,420,o),
(237,420,cs),
(280,420,o),
(302,386,o),
(302,340,cs),
(302,232,l),
(271,259,o),
(231,274,o),
(190,274,cs),
(92,274,o),
(22,224,o),
(22,131,cs),
(22,38,o),
(92,-12,o),
(190,-12,cs),
(232,-12,o),
(280,9,o),
(313,39,c),
(331,13,o),
(370,0,o),
(410,0,cs)
);
},
{
closed = 1;
nodes = (
(302,73,l),
(286,44,o),
(248,20,o),
(214,20,cs),
(165,20,o),
(142,76,o),
(142,131,cs),
(142,186,o),
(165,242,o),
(214,242,cs),
(248,242,o),
(281,227,o),
(302,200,c)
);
}
);
width = 600;
},
{
associatedMasterId = "45069982-2EFC-4B7D-8C53-1932E6EAC4CA";
layerId = "FAB570E5-D279-49FE-9D2A-7D1AB6A7D119";
name = "Nov 4 20, 16:18";
shapes = (
{
closed = 1;
nodes = (
(401,407,o),
(346,455,o),
(232,455,cs),
(118,455,o),
(43,391,o),
(43,325,c),
(143,325,l),
(138,386,o),
(172,418,o),
(227,418,cs),
(285,418,o),
(306,375,o),
(306,294,c),
(306,80,l),
(312,45,l),
(324,-1,o),
(352,-22,o),
(461,-2,c),
(463,10,o),
(463,23,o),
(461,35,c),
(419,35,o),
(401,46,o),
(401,85,c),
(401,304,ls)
);
},
{
closed = 1;
nodes = (
(234,-15,o),
(273,-1,o),
(312,45,c),
(306,80,l),
(276.896,48.828,o),
(243,25,o),
(202,25,c),
(148,25,o),
(118,68,o),
(118,121,c),
(118,181,o),
(147,210,o),
(233,210,c),
(306,210,l),
(306,245,l),
(228,245,l),
(101,245,o),
(18,216,o),
(18,120,c),
(18,30,o),
(91,-15,o),
(177,-15,c)
);
}
);
width = 487;
}
);
unicode = 97;
},
{
color = 3;
glyphname = aogonek;
kernLeft = a;
kernRight = a;
lastChange = "2023-03-10 14:52:46 +0000";
layers = (
{
anchors = (
{
name = _ogonek;
pos = (483,-2);
}
);
layerId = "45069982-2EFC-4B7D-8C53-1932E6EAC4CA";
shapes = (
{
closed = 1;
nodes = (
(417,-225,o),
(456,-204,o),
(492,-179,c),
(490,-167,o),
(485,-157,o),
(477,-148,c),
(448,-163,o),
(425,-169,o),
(406,-169,cs),
(367,-169,o),
(347,-147,o),
(347,-119,cs),
(347,-69,o),
(391,-28,o),
(483,-2,c),
(464,19,l),
(346,-11,o),
(264,-53,o),
(264,-136,cs),
(264,-193,o),
(308,-225,o),
(365,-225,cs)
);
},
{
ref = a;
}
);
userData = {
com.hugojourdan.ColorFlow = {
"0" = 0;
"1" = 0;
"10" = 0;
"11" = 0;
"2" = 0;
"3" = 0;
"4" = 0;
"5" = 0;
"6" = 0;
"7" = 0;
"8" = 0;
"9" = 0;
};
};
width = 510;
},
{
anchors = (
{
name = _ogonek;
pos = (526,-2);
}
);
layerId = "503E420B-61F7-4277-A1BE-A8852071B452";
shapes = (
{
closed = 1;
nodes = (
(460,-225,o),
(501,-204,o),
(535,-179,c),
(533,-167,o),
(528,-157,o),
(520,-148,c),
(491,-163,o),
(468,-169,o),
(449,-169,cs),
(418,-169,o),
(402,-147,o),
(402,-119,cs),
(402,-69,o),
(442,-28,o),
(526,-2,c),
(507,19,l),
(383,-11,o),
(297,-53,o),
(297,-136,cs),
(297,-193,o),
(345,-225,o),
(408,-225,cs)
);
},
{
ref = a;
}
);
userData = {
com.hugojourdan.ColorFlow = {
"0" = 0;
"1" = 0;
"10" = 0;
"11" = 0;
"2" = 0;
"3" = 0;
"4" = 0;
"5" = 0;
"6" = 0;
"7" = 0;
"8" = 0;
"9" = 0;
};
};
width = 547;
},
{
anchors = (
{
name = _ogonek;
pos = (543,-2);
}
);
associatedMasterId = "503E420B-61F7-4277-A1BE-A8852071B452";
layerId = "BEFAAAAA-EB9F-4514-878A-6F7485B30593";
name = "Nov 22 20, 20:40";
shapes = (
{
closed = 1;
nodes = (
(403,-20,o),
(329,-62,o),
(329,-138,cs),
(329,-194,o),
(375,-225,o),
(431,-225,cs),
(486,-225,o),
(511,-209,o),
(550,-165,c),
(544,-154,o),
(535,-147,o),
(523,-142,c),
(507,-156,o),
(491,-165,o),
(471,-165,cs),
(456,-165,o),
(434,-159,o),
(434,-122,cs),
(434,-78,o),
(461,-36,o),
(543,-2,c),
(533,13,l)
);
},
{
ref = a;
}
);
width = 579;
},
{
anchors = (
{
name = _ogonek;
pos = (504,-2);
}
);
associatedMasterId = "45069982-2EFC-4B7D-8C53-1932E6EAC4CA";
layerId = "BF761667-9C02-4CA9-A8ED-4AEFF7C71D64";
name = "Nov 22 20, 20:41";
shapes = (
{
closed = 1;
nodes = (
(377,-14,o),
(300,-52,o),
(300,-135,cs),
(300,-194,o),
(343,-225,o),
(407,-225,cs),
(447,-225,o),
(478,-209,o),
(509,-170,c),
(502,-159,o),
(493,-152,o),
(482,-147,c),
(466,-167,o),
(449,-175,o),
(431,-175,cs),
(398,-175,o),
(380,-149,o),
(380,-117,cs),
(380,-66,o),
(420,-27,o),
(504,-2,c),
(489,15,l)
);
},
{
ref = a;
}
);
width = 522;
}
);
unicode = 261;
},
{
color = 3;
glyphname = ae;
kernLeft = a;
kernRight = e;
lastChange = "2023-03-10 14:52:46 +0000";
layers = (
{
anchors = (
{
name = bottom;
pos = (409,0);
},
{
name = ogonek;
pos = (624,-2);
},
{
name = top;
pos = (405,440);
}
);
layerId = "45069982-2EFC-4B7D-8C53-1932E6EAC4CA";
shapes = (
{
closed = 1;
nodes = (
(413,407,o),
(368,455,o),
(254,455,cs),
(140,455,o),
(65,391,o),
(65,325,c),
(165,325,l),
(160,386,o),
(194,418,o),
(249,418,cs),
(307,418,o),
(328,375,o),
(328,294,c),
(328,237,l),
(331,200,l),
(413,151,l),
(413,304,ls)
);
},
{
closed = 1;
nodes = (
(256,-15,o),
(312,-4,o),
(370,72,c),
(354,106,l),
(309,49,o),
(265,25,o),
(224,25,c),
(170,25,o),
(140,68,o),
(140,121,c),
(140,181,o),
(176,220,o),
(232,220,c),
(270,220,o),
(303,214,o),
(331,200,c),
(328,237,l),
(302,249,o),
(267,255,o),
(227,255,c),
(130,255,o),
(40,216,o),
(40,120,c),
(40,30,o),
(113,-15,o),
(199,-15,c)
);
},
{
pos = (282,0);
ref = e;
}
);
userData = {
com.hugojourdan.ColorFlow = {
"0" = 0;
"1" = 0;
"10" = 0;
"11" = 0;
"2" = 0;
"3" = 0;
"4" = 0;
"5" = 0;
"6" = 0;
"7" = 0;
"8" = 0;
"9" = 0;
};
};
width = 797;
},
{
anchors = (
{
name = bottom;
pos = (400,0);
},
{
name = ogonek;
pos = (658,-2);
},
{
name = top;
pos = (410,460);
}
);
layerId = "503E420B-61F7-4277-A1BE-A8852071B452";
shapes = (
{
closed = 1;
nodes = (
(458,402,o),
(433,475,o),
(269,475,cs),
(126,475,o),
(55,411,o),
(55,330,c),
(185,330,l),
(175,392,o),
(208,438,o),
(261,438,cs),
(319,438,o),
(338,382,o),
(338,304,c),
(338,251,l),
(342,208,l),
(458,95,l),
(458,309,ls)
);
},
{
closed = 1;
nodes = (
(287,-15,o),
(335,1,o),
(390,76,c),
(369,106,l),
(322,46,o),
(281,30,o),
(248,30,c),
(198,30,o),
(165,69,o),
(165,128,c),
(165,188,o),
(200,225,o),
(261,225,c),
(286,225,o),
(318,219,o),
(342,208,c),
(338,251,l),
(305,261,o),
(271,265,o),
(234,265,c),
(110,265,o),
(35,214,o),
(35,123,c),
(35,35,o),
(105,-15,o),
(219,-15,c)
);
},
{
pos = (298,0);
ref = e;
}
);
userData = {
com.hugojourdan.ColorFlow = {
"0" = 0;
"1" = 0;
"10" = 0;
"11" = 0;
"2" = 0;
"3" = 0;
"4" = 0;
"5" = 0;
"6" = 0;
"7" = 0;
"8" = 0;
"9" = 0;
};
};
width = 838;
}
);
unicode = 230;
},
{
color = 3;
glyphname = b;
kernLeft = b;
kernRight = b;
lastChange = "2023-03-10 14:52:46 +0000";
layers = (
{
anchors = (
{
name = bottom;
pos = (292,0);
},
{
name = top;
pos = (292,800);
}
);
layerId = "45069982-2EFC-4B7D-8C53-1932E6EAC4CA";
shapes = (
{
closed = 1;
nodes = (
(10,690,o),
(10,673,o),
(12,663,c),
(69,663,l),
(76,613,o),
(79,570,o),
(79,520,cs),
(79,180,ls),
(79,130,o),
(76,50,o),
(69,0,c),
(80,-4,o),
(90,-5,o),
(101,-5,c),
(174,65,l),
(174,75,l),
(174,520,ls),
(174,570,o),
(177,663,o),
(189,713,c),
(128,702,o),
(59,700,o),
(12,700,c)
);
},
{
angle = 180;
pos = (557,440);
ref = _COM_brzuch_bdpq;
}
);
userData = {
com.hugojourdan.ColorFlow = {
"0" = 0;
"1" = 0;
"10" = 0;
"11" = 0;
"2" = 0;
"3" = 0;
"4" = 0;
"5" = 0;
"6" = 0;
"7" = 0;
"8" = 0;
"9" = 0;
};
};
width = 555;
},
{
anchors = (
{
name = bottom;
pos = (310,0);
},
{
name = top;
pos = (310,800);
}
);
layerId = "503E420B-61F7-4277-A1BE-A8852071B452";
shapes = (
{
closed = 1;
nodes = (
(10,690,o),
(10,673,o),
(12,663,c),
(64,663,l),
(71,618,o),
(74,570,o),
(74,510,cs),
(74,190,ls),
(74,130,o),
(71,45,o),
(64,0,c),
(75,-4,o),
(85,-5,o),
(96,-5,c),
(204,58,l),
(204,78,l),
(204,510,ls),
(204,570,o),
(207,670,o),
(219,715,c),
(156,704,o),
(89,700,o),
(12,700,c)
);
},
{
angle = 180;
pos = (584,460);
ref = _COM_brzuch_bdpq;
}
);
userData = {
com.hugojourdan.ColorFlow = {
"0" = 0;
"1" = 0;
"10" = 0;
"11" = 0;
"2" = 0;
"3" = 0;
"4" = 0;
"5" = 0;
"6" = 0;
"7" = 0;
"8" = 0;
"9" = 0;
};
};
width = 590;
},
{
associatedMasterId = "45069982-2EFC-4B7D-8C53-1932E6EAC4CA";
layerId = "ED4DBE24-BDF4-4E18-90CB-0EA147BD6606";
name = "Nov 2 20, 15:05";
shapes = (
{
closed = 1;
nodes = (
(508,359,o),
(428,452,o),
(292,452,cs),
(250,452,o),
(209,437,o),
(176,410,c),
(176,532,ls),
(176,592,o),
(180,652,o),
(188,712,c),
(134,704,o),
(80,700,o),
(26,700,c),
(26,672,l),
(74,672,l),
(82,626,o),
(86,579,o),
(86,532,cs),
(86,168,ls),
(86,121,o),
(82,74,o),
(74,28,c),
(26,28,l),
(26,0,l),
(79,0,o),
(131,-4,o),
(183,-12,c),
(177,42,l),
(204,9,o),
(246,-12,o),
(292,-12,cs),
(428,-12,o),
(508,81,o),
(508,220,cs)
);
},
{
closed = 1;
nodes = (
(412,108,o),
(382,16,o),
(283,16,cs),
(224,16,o),
(176,65,o),
(176,124,cs),
(176,377,l),
(200,407,o),
(236,424,o),
(274,424,cs),
(375,424,o),
(412,334,o),
(412,220,cs)
);
}
);
width = 600;
},
{
associatedMasterId = "503E420B-61F7-4277-A1BE-A8852071B452";
layerId = "591D6FAD-CD7B-4128-BA7C-FA6BE4957CD5";
name = "Nov 2 20, 15:07";
shapes = (
{
closed = 1;
nodes = (
(540,360,o),
(456,452,o),
(318,452,cs),
(274,452,o),
(233,435,o),
(202,404,c),
(202,528,ls),
(202,590,o),
(206,651,o),
(214,712,c),
(150,704,o),
(86,700,o),
(22,700,c),
(22,668,l),
(70,668,l),
(78,622,o),
(82,575,o),
(82,528,cs),
(82,172,ls),
(82,125,o),
(78,78,o),
(70,32,c),
(22,32,l),
(22,0,l),
(84,0,o),
(146,-4,o),
(208,-12,c),
(202,39,l),
(230,8,o),
(272,-12,o),
(318,-12,cs),
(456,-12,o),
(540,80,o),
(540,220,cs)
);
},
{
closed = 1;
nodes = (
(414,112,o),
(399,20,o),
(306,20,cs),
(248,20,o),
(202,67,o),
(202,124,cs),
(202,370,l),
(222,401,o),
(257,420,o),
(294,420,cs),
(389,420,o),
(414,329,o),
(414,220,cs)
);
}
);
visible = 1;
width = 600;
},
{
anchors = (
{
name = bottom;
pos = (319,0);
},
{
name = top;
pos = (319,800);
}
);
associatedMasterId = "503E420B-61F7-4277-A1BE-A8852071B452";
layerId = "FF974AD7-7070-4BD3-B0F1-ACBA8B9D953E";
name = "Nov 21 20, 16:36";
shapes = (
{
closed = 1;
nodes = (
(19,690,o),
(19,673,o),
(21,663,c),
(73,663,l),
(80,618,o),
(83,570,o),
(83,510,cs),
(83,190,ls),
(83,130,o),
(80,45,o),
(73,0,c),
(84,-4,o),
(94,-5,o),
(105,-5,c),
(213,58,l),
(213,78,l),
(213,510,ls),
(213,570,o),
(216,670,o),
(228,715,c),
(165,704,o),
(98,700,o),
(21,700,c)
);
},
{
closed = 1;
nodes = (
(278,475,o),
(232,442,o),
(203,395,c),
(213,349,l),
(246,400,o),
(278,425,o),
(315,425,cs),
(377,425,o),
(413,357,o),
(413,232,c),
(413,93,o),
(369,45,o),
(305,45,c),
(272,45,o),
(213,48,o),
(213,152,c),
(116,62,l),
(164,16,o),
(216,-15,o),
(312,-15,c),
(457,-15,o),
(558,71,o),
(558,237,c),
(558,399,o),
(464,475,o),
(347,475,c)
);
}
);
width = 598;
}
);
unicode = 98;
},
{
color = 6;
glyphname = c;
kernLeft = o;
kernRight = c;
lastChange = "2023-03-10 14:52:46 +0000";
layers = (
{
anchors = (
{
name = bottom;
pos = (274,0);
},
{
name = top;
pos = (270,440);
}
);
layerId = "45069982-2EFC-4B7D-8C53-1932E6EAC4CA";
shapes = (
{
closed = 1;
nodes = (
(339,-15,o),
(393,17,o),
(450,85,c),
(441,96,o),
(433,103,o),
(422,110,c),
(374,54,o),
(336,35,o),
(290,35,cs),
(211,35,o),
(150,113,o),
(150,224,cs),
(150,345,o),
(195,415,o),
(274,415,cs),
(333,415,o),
(375,367,o),
(393,280,c),
(404,278,o),
(414,278,o),
(425,280,c),
(425,415,l),
(390,440,o),
(343,455,o),
(281,455,cs),
(138,455,o),
(45,368,o),
(45,220,cs),
(45,74,o),
(134,-15,o),
(264,-15,cs)
);
}
);
userData = {
com.hugojourdan.ColorFlow = {
"0" = 0;
"1" = 0;
"10" = 0;
"11" = 0;
"2" = 0;
"3" = 0;
"4" = 0;
"5" = 0;
"6" = 0;
"7" = 0;
"8" = 0;
"9" = 0;
};
};
width = 484;
},
{
anchors = (
{
name = bottom;
pos = (277,0);
},
{
name = top;
pos = (281,460);
}
);
layerId = "503E420B-61F7-4277-A1BE-A8852071B452";
shapes = (
{
closed = 1;
nodes = (
(371,-15,o),
(416,18,o),
(473,89,c),
(464,100,o),
(455,108,o),
(441,115,c),
(392,59,o),
(364,40,o),
(305,40,cs),
(231,40,o),
(185,111,o),
(185,230,cs),
(185,351,o),
(209,435,o),
(293,435,cs),
(352,435,o),
(387,387,o),
(416,280,c),
(427,278,o),
(437,278,o),
(448,280,c),
(448,445,l),
(411,462,o),
(364,475,o),
(298,475,cs),
(146,475,o),
(40,383,o),
(40,234,cs),
(40,71,o),
(136,-15,o),
(284,-15,cs)
);
}
);
userData = {
com.hugojourdan.ColorFlow = {
"0" = 0;
"1" = 0;
"10" = 0;
"11" = 0;
"2" = 0;
"3" = 0;
"4" = 0;
"5" = 0;
"6" = 0;
"7" = 0;
"8" = 0;
"9" = 0;
};
};
width = 503;
},
{
associatedMasterId = "45069982-2EFC-4B7D-8C53-1932E6EAC4CA";
layerId = "0970ECF3-6F06-4BD2-8D6A-9E71005090B6";
name = "Nov 3 20, 14:15";
shapes = (
{
closed = 1;
nodes = (
(427,130,l),
(399,130,l),
(399,61,o),
(330,16,o),
(256,16,cs),
(158,16,o),
(131,108,o),
(131,220,cs),
(131,332,o),
(158,424,o),
(256,424,cs),
(312,424,o),
(358,381,o),
(358,327,c),
(403,327,l),
(403,420,l),
(357,441,o),
(307,452,o),
(256,452,cs),
(118,452,o),
(35,360,o),
(35,220,cs),
(35,80,o),
(118,-12,o),
(256,-12,cs),
(320,-12,o),
(382,14,o),
(427,60,c)
);
}
);
visible = 1;
width = 600;
},
{
associatedMasterId = "503E420B-61F7-4277-A1BE-A8852071B452";
layerId = "70EFE622-2A63-44FF-A8AC-5952A87834FD";
name = "Nov 3 20, 14:18";
shapes = (
{
closed = 1;
nodes = (
(461,130,l),
(429,130,l),
(429,57,o),
(348,20,o),
(267,20,cs),
(173,20,o),
(155,112,o),
(155,220,cs),
(155,328,o),
(173,420,o),
(267,420,cs),
(325,420,o),
(377,382,o),
(377,327,c),
(437,327,l),
(437,420,l),
(383,441,o),
(325,452,o),
(267,452,cs),
(122,452,o),
(29,364,o),
(29,220,cs),
(29,76,o),
(122,-12,o),
(267,-12,cs),
(338,-12,o),
(407,14,o),
(461,60,c)
);
}
);
width = 600;
},
{
associatedMasterId = "503E420B-61F7-4277-A1BE-A8852071B452";
layerId = "C3196660-E794-4F3D-950F-267A42D8C41E";
name = "Nov 3 20, 14:18";
shapes = (
{
closed = 1;
nodes = (
(461,130,l),
(429,130,l),
(429,57,o),
(348,20,o),
(267,20,cs),
(173,20,o),
(155,112,o),
(155,220,cs),
(155,328,o),
(173,420,o),
(267,420,cs),
(325,420,o),
(377,382,o),
(377,327,c),
(437,327,l),
(437,420,l),
(383,441,o),
(325,452,o),
(267,452,cs),
(122,452,o),
(29,364,o),
(29,220,cs),
(29,76,o),
(122,-12,o),
(267,-12,cs),
(338,-12,o),
(407,14,o),
(461,60,c)
);
}
);
width = 600;
},
{
associatedMasterId = "45069982-2EFC-4B7D-8C53-1932E6EAC4CA";
layerId = "F1F18CDF-3E0F-4FCF-8B03-8D8CFE768EBF";
name = "Nov 3 20, 14:19";
shapes = (
{
closed = 1;
nodes = (
(249,455,l),
(116,455,o),
(23,371,o),
(23,224,cs),
(23,71,o),
(118,-15,o),
(256,-15,cs),
(338,-15,o),
(391,16,o),
(448,89,c),
(439,100,o),
(430,108,o),
(419,115,c),
(371,54,o),
(322,30,o),
(263,30,cs),
(182,30,o),
(128,97,o),
(128,224,cs),
(128,345,o),
(181,416,o),
(249,416,c)
);
},
{
closed = 1;
nodes = (
(249,416,l),
(307,416,o),
(346,379,o),
(341,285,c),
(352,283,o),
(432,283,o),
(443,285,c),
(443,285,l),
(443,430,o),
(316,455,o),
(249,455,c)
);
}
);
width = 440;
},
{
associatedMasterId = "503E420B-61F7-4277-A1BE-A8852071B452";
layerId = "5FB97027-74A9-41F8-8291-8AD3DD3E3388";
name = "Nov 4 20, 15:54";
shapes = (
{
closed = 1;
nodes = (
(461,120,c),
(429,130,l),
(399,77,o),
(348,20,o),
(267,20,cs),
(173,20,o),
(155,112,o),
(155,220,cs),
(155,328,o),
(173,420,o),
(257,420,cs),
(305,420,o),
(338,382,o),
(338,287,c),
(457,287,l),
(447,438,o),
(325,452,o),
(257,452,cs),
(122,452,o),
(29,364,o),
(29,220,cs),
(29,76,o),
(122,-12,o),
(267,-12,cs),
(388,-12,o),
(418,53,o)
);
}
);
width = 600;
}
);
unicode = 99;
},
{
color = 3;
glyphname = d;
kernLeft = d;
kernRight = d;
lastChange = "2023-03-10 14:52:46 +0000";
layers = (
{
anchors = (
{
name = bottom;
pos = (284,0);
},
{
name = center;
pos = (284,220);
},
{
name = top;
pos = (284,800);
},
{
name = topright;
pos = (489,690);
}
);
background = {
shapes = (
{
closed = 1;
nodes = (
(437,1,o),
(491,0,o),
(538,0,c),
(540,10,o),
(540,27,o),
(538,37,c),
(486,37,l),
(479,87,o),
(476,130,o),
(476,180,cs),
(476,520,ls),
(476,570,o),
(479,663,o),
(491,713,c),
(430,702,o),
(361,700,o),
(314,700,c),
(312,690,o),
(312,673,o),
(314,663,c),
(371,663,l),
(378,613,o),
(381,570,o),
(381,520,cs),
(381,110,l),
(391,65,l),
(391,45,o),
(388,14,o),
(386,-5,c)
);
},
{
closed = 1;
nodes = (
(313,-15,o),
(364,21,o),
(391,65,c),
(381,110,l),
(353,65,o),
(322,30,o),
(269,30,cs),
(199,30,o),
(151,92,o),
(151,225,c),
(151,351,o),
(196,415,o),
(275,415,cs),
(321,415,o),
(381,394,o),
(381,302,c),
(459,378,l),
(417,422,o),
(363,455,o),
(278,455,cs),
(138,455,o),
(46,367,o),
(46,213,c),
(46,60,o),
(134,-15,o),
(242,-15,c)
);
},
{
closed = 1;
nodes = (
(534,634,l),
(550,579,o),
(561,525,o),
(567,470,c),
(577,468,o),
(587,468,o),
(597,470,c),
(603,525,o),
(615,579,o),
(631,634,c),
(631,684,l),
(582,720,l),
(534,684,l)
);
}
);
};
layerId = "45069982-2EFC-4B7D-8C53-1932E6EAC4CA";
shapes = (
{
closed = 1;
nodes = (
(437,1,o),
(491,0,o),
(538,0,c),
(540,10,o),
(540,27,o),
(538,37,c),
(486,37,l),
(479,87,o),
(476,130,o),
(476,180,cs),
(476,520,ls),
(476,570,o),
(479,663,o),
(491,713,c),
(430,702,o),
(361,700,o),
(314,700,c),
(312,690,o),
(312,673,o),
(314,663,c),
(371,663,l),
(378,613,o),
(381,570,o),
(381,520,cs),
(381,110,l),
(391,65,l),
(391,45,o),
(388,14,o),
(386,-5,c)
);
},
{
pos = (-2,0);
ref = _COM_brzuch_bdpq;
}
);
userData = {
com.hugojourdan.ColorFlow = {
"0" = 0;
"1" = 0;
"10" = 0;
"11" = 0;
"2" = 0;
"3" = 0;
"4" = 0;
"5" = 0;
"6" = 0;
"7" = 0;
"8" = 0;
"9" = 0;
};
};
width = 568;
},
{
anchors = (
{
name = bottom;
pos = (300,0);
},
{
name = center;
pos = (300,230);
},
{
name = top;
pos = (300,800);
},
{
name = topright;
pos = (536,700);
}
);
background = {
shapes = (
{
closed = 1;
nodes = (
(449,-1,o),
(496,0,o),
(573,0,c),
(575,10,o),
(575,27,o),
(573,37,c),
(526,37,l),
(519,82,o),
(516,130,o),
(516,190,cs),
(516,510,ls),
(516,570,o),
(519,670,o),
(531,715,c),
(468,704,o),
(401,700,o),
(324,700,c),
(322,690,o),
(322,673,o),
(324,663,c),
(376,663,l),
(383,618,o),
(386,570,o),
(386,510,cs),
(386,110,l),
(396,65,l),
(394,36,o),
(392,7,o),
(391,-5,c)
);
},
{
closed = 1;
nodes = (
(315,-15,o),
(367,18,o),
(396,65,c),
(386,111,l),
(353,60,o),
(319,35,o),
(282,35,cs),
(220,35,o),
(186,103,o),
(186,228,c),
(186,367,o),
(230,435,o),
(294,435,c),
(327,435,o),
(386,412,o),
(386,308,c),
(483,398,l),
(435,444,o),
(383,475,o),
(287,475,c),
(142,475,o),
(41,389,o),
(41,223,c),
(41,61,o),
(129,-15,o),
(246,-15,c)
);
},
{
closed = 1;
nodes = (
(573,635,l),
(602,563,o),
(606,512,o),
(615,460,c),
(624,458,o),
(634,458,o),
(643,460,c),
(652,512,o),
(655,563,o),
(684,635,c),
(684,695,l),
(629,730,l),
(573,695,l)
);
}
);
};
layerId = "503E420B-61F7-4277-A1BE-A8852071B452";
shapes = (
{
closed = 1;
nodes = (
(449,-1,o),
(496,0,o),
(573,0,c),
(575,10,o),
(575,27,o),
(573,37,c),
(526,37,l),
(519,82,o),
(516,130,o),
(516,190,cs),
(516,510,ls),
(516,570,o),
(519,670,o),
(531,715,c),
(468,704,o),
(401,700,o),
(324,700,c),
(322,690,o),
(322,673,o),
(324,663,c),
(376,663,l),
(383,618,o),
(386,570,o),
(386,510,cs),
(386,110,l),
(396,65,l),
(394,36,o),
(392,7,o),
(391,-5,c)
);
},
{
pos = (6,0);
ref = _COM_brzuch_bdpq;
}
);
userData = {
com.hugojourdan.ColorFlow = {
"0" = 0;
"1" = 0;
"10" = 0;
"11" = 0;
"2" = 0;
"3" = 0;
"4" = 0;
"5" = 0;
"6" = 0;
"7" = 0;
"8" = 0;
"9" = 0;
};
};
width = 599;
},
{
associatedMasterId = "503E420B-61F7-4277-A1BE-A8852071B452";
layerId = "8292ED57-35F1-4911-ADD8-6ADB9E5B6E49";
name = "Nov 1 20, 23:41";
shapes = (
{
closed = 1;
nodes = (
(547,32,l),
(499,32,l),
(491,78,o),
(487,125,o),
(487,172,cs),
(487,528,ls),
(487,590,o),
(491,651,o),
(499,712,c),
(435,704,o),
(371,700,o),
(307,700,c),
(307,668,l),
(355,668,l),
(363,622,o),
(367,575,o),
(367,528,cs),
(367,404,l),
(336,435,o),
(295,452,o),
(251,452,cs),
(113,452,o),
(29,360,o),
(29,220,cs),
(29,80,o),
(113,-12,o),
(251,-12,cs),
(297,-12,o),
(339,8,o),
(367,39,c),
(361,-12,l),
(423,-4,o),
(485,0,o),
(547,0,c)
);
},
{
closed = 1;
nodes = (
(367,124,ls),
(367,69,o),
(328,20,o),
(275,20,cs),
(180,20,o),
(155,111,o),
(155,220,cs),
(155,328,o),
(170,420,o),
(263,420,cs),
(303,420,o),
(342,402,o),
(367,370,c)
);
}
);
visible = 1;
width = 600;
}
);
unicode = 100;
},
{
color = 6;
glyphname = eth;
lastChange = "2023-03-10 14:52:46 +0000";
layers = (
{
anchors = (
{
name = bottom;
pos = (273,0);
},
{
name = center;
pos = (273,220);
},
{
name = ogonek;
pos = (490,10);
},
{
name = top;
pos = (273,440);
},
{
name = topright;
pos = (524,440);
}
);
layerId = "45069982-2EFC-4B7D-8C53-1932E6EAC4CA";
shapes = (
{
closed = 1;
nodes = (
(273,435,l),
(135,435,o),
(45,351,o),
(45,214,cs),
(45,71,o),
(140,-15,o),
(273,-15,c),
(278,25,l),
(201,25,o),
(150,97,o),
(150,214,cs),
(150,325,o),
(195,395,o),
(268,395,c)
);
},
{
closed = 1;
nodes = (
(273,-15,l),
(411,-15,o),
(501,69,o),
(501,256,cs),
(501,439,o),
(412,690,o),
(99,710,c),
(94,700,o),
(92,687,o),
(93,673,c),
(350,653,o),
(406,391,o),
(396,206,c),
(396,95,o),
(351,25,o),
(278,25,c)
);
},
{
closed = 1;
nodes = (
(441,206,l),
(441,349,o),
(376,435,o),
(273,435,c),
(268,395,l),
(345,395,o),
(396,323,o),
(396,206,c)
);
},
{
closed = 1;
nodes = (
(379,718,o),
(368,729,o),
(358,736,c),
(160,538,l),
(167,528,o),
(178,517,o),
(188,510,c),
(386,708,l)
);
}
);
userData = {
com.hugojourdan.ColorFlow = {
"0" = 0;
"1" = 0;
"10" = 0;
"11" = 0;
"2" = 0;
"3" = 0;
"4" = 0;
"5" = 0;
"6" = 0;
"7" = 0;
"8" = 0;
"9" = 0;
};
};
width = 557;
},
{
anchors = (
{
name = bottom;
pos = (290,0);
},
{
name = center;
pos = (290,230);
},
{
name = ogonek;
pos = (522,10);
},
{
name = top;
pos = (290,460);
},
{
name = topright;
pos = (560,460);
}
);
layerId = "503E420B-61F7-4277-A1BE-A8852071B452";
shapes = (
{
closed = 1;
nodes = (
(280,435,l),
(140,435,o),
(40,343,o),
(40,210,cs),
(40,71,o),
(145,-15,o),
(290,-15,c),
(295,25,l),
(207,25,o),
(185,115,o),
(185,210,cs),
(185,301,o),
(206,395,o),
(285,395,c)
);
},
{
closed = 1;
nodes = (
(290,-15,l),
(435,-15,o),
(540,77,o),
(540,290,cs),
(540,459,o),
(435,710,o),
(140,730,c),
(136,719,o),
(135,705,o),
(135,690,c),
(373,670,o),
(405,365,o),
(395,210,c),
(395,119,o),
(374,25,o),
(295,25,c)
);
},
{
closed = 1;
nodes = (
(440,210,l),
(440,349,o),
(390,435,o),
(280,435,c),
(285,395,l),
(373,395,o),
(395,305,o),
(395,210,c)
);
},
{
closed = 1;
nodes = (
(427,718,o),
(416,729,o),
(406,736,c),
(208,538,l),
(215,528,o),
(226,517,o),
(236,510,c),
(434,708,l)
);
}
);
userData = {
com.hugojourdan.ColorFlow = {
"0" = 0;
"1" = 0;
"10" = 0;
"11" = 0;
"2" = 0;
"3" = 0;
"4" = 0;
"5" = 0;
"6" = 0;
"7" = 0;
"8" = 0;
"9" = 0;
};
};
width = 586;
}
);
unicode = 240;
},
{
color = 3;
glyphname = dcroat;
kernLeft = d;
kernRight = d;
lastChange = "2023-03-10 14:52:46 +0000";
layers = (
{
layerId = "45069982-2EFC-4B7D-8C53-1932E6EAC4CA";
shapes = (
{
closed = 1;
nodes = (
(569,547,o),
(569,563,o),
(566,580,c),
(258,580,l),
(255,563,o),
(255,547,o),
(258,530,c),
(566,530,l)
);
},
{
ref = d;
}
);
userData = {
com.hugojourdan.ColorFlow = {
"0" = 0;
"1" = 0;
"10" = 0;
"11" = 0;
"2" = 0;
"3" = 0;
"4" = 0;
"5" = 0;
"6" = 0;
"7" = 0;
"8" = 0;
"9" = 0;
};
};
width = 568;
},
{
layerId = "503E420B-61F7-4277-A1BE-A8852071B452";
shapes = (
{
closed = 1;
nodes = (
(599,557,o),
(599,573,o),
(596,590,c),
(258,590,l),
(255,573,o),
(255,557,o),
(258,540,c),
(596,540,l)
);
},
{
ref = d;
}
);
userData = {
com.hugojourdan.ColorFlow = {
"0" = 0;
"1" = 0;
"10" = 0;
"11" = 0;
"2" = 0;
"3" = 0;
"4" = 0;
"5" = 0;
"6" = 0;
"7" = 0;
"8" = 0;
"9" = 0;
};
};
width = 599;
}
);
unicode = 273;
},
{
color = 6;
glyphname = e;
kernLeft = o;
kernRight = e;
lastChange = "2023-03-10 14:52:46 +0000";
layers = (
{
anchors = (
{
name = bottom;
pos = (264,0);
},
{
name = ogonek;
pos = (376,0);
},
{
name = top;
pos = (265,440);
}
);
background = {
shapes = (
{
ref = o;
}
);
};
layerId = "45069982-2EFC-4B7D-8C53-1932E6EAC4CA";
shapes = (
{
closed = 1;
nodes = (
(347,-15,o),
(413,22,o),
(470,95,c),
(461,106,o),
(453,113,o),
(442,120,c),
(394,59,o),
(345,35,o),
(292,35,cs),
(205,35,o),
(148,97,o),
(148,224,cs),
(148,345,o),
(194,418,o),
(266,418,cs),
(322,418,o),
(365,373,o),
(365,280,c),
(138,280,l),
(138,245,l),
(346,245,ls),
(401,245,o),
(436,242,o),
(471,238,c),
(471,388,o),
(395,455,o),
(272,455,cs),
(139,455,o),
(46,373,o),
(46,220,cs),
(46,63,o),
(137,-15,o),
(264,-15,cs)
);
}
);
userData = {
com.hugojourdan.ColorFlow = {
"0" = 0;
"1" = 0;
"10" = 0;
"11" = 0;
"2" = 0;
"3" = 0;
"4" = 0;
"5" = 0;
"6" = 0;
"7" = 0;
"8" = 0;
"9" = 0;
};
};
width = 515;
},
{
anchors = (
{
name = bottom;
pos = (291,0);
},
{
name = ogonek;
pos = (412,0);
},
{
name = top;
pos = (278,460);
}
);
layerId = "503E420B-61F7-4277-A1BE-A8852071B452";
shapes = (
{
closed = 1;
nodes = (
(388,-15,o),
(443,21,o),
(500,104,c),
(491,115,o),
(482,123,o),
(468,130,c),
(419,59,o),
(372,40,o),
(313,40,cs),
(222,40,o),
(180,115,o),
(180,230,cs),
(180,351,o),
(201,440,o),
(275,440,cs),
(336,440,o),
(354,377,o),
(354,285,c),
(147,285,l),
(147,250,l),
(356,250,ls),
(414,250,o),
(456,249,o),
(500,240,c),
(500,409,o),
(400,475,o),
(280,475,cs),
(140,475,o),
(40,383,o),
(40,230,cs),
(40,71,o),
(143,-15,o),
(291,-15,cs)
);
}
);
userData = {
com.hugojourdan.ColorFlow = {
"0" = 0;
"1" = 0;
"10" = 0;
"11" = 0;
"2" = 0;
"3" = 0;
"4" = 0;
"5" = 0;
"6" = 0;
"7" = 0;
"8" = 0;
"9" = 0;
};
};
width = 540;
},
{
associatedMasterId = "45069982-2EFC-4B7D-8C53-1932E6EAC4CA";
layerId = "464CE593-00BB-4522-BCA4-E719CF42C354";
name = "Nov 3 20, 00:58";
shapes = (
{
closed = 1;
nodes = (
(404,104,l),
(367,41,o),
(325,17,o),
(251,17,cs),
(165,17,o),
(131,120,o),
(131,220,cs),
(131,259,l),
(292,259,ls),
(337,259,o),
(382,255,o),
(427,247,c),
(427,359,o),
(341,452,o),
(231,452,cs),
(103,452,o),
(35,356,o),
(35,220,cs),
(35,84,o),
(103,-12,o),
(231,-12,cs),
(328,-12,o),
(370,9,o),
(427,88,c)
);
},
{
closed = 1;
nodes = (
(133,287,l),
(138,365,o),
(158,424,o),
(231,424,cs),
(301,424,o),
(331,365,o),
(331,287,c)
);
}
);
width = 600;
},
{
associatedMasterId = "503E420B-61F7-4277-A1BE-A8852071B452";
layerId = "6764A393-3FBC-4E51-8A8A-5B2316EC6173";
name = "Nov 3 20, 00:58";
shapes = (
{
closed = 1;
nodes = (
(437,109,l),
(391,44,o),
(346,21,o),
(267,21,cs),
(183,21,o),
(155,123,o),
(155,220,cs),
(155,253,l),
(281,253,ls),
(341,253,o),
(401,249,o),
(461,241,c),
(461,359,o),
(363,452,o),
(245,452,cs),
(109,452,o),
(29,359,o),
(29,220,cs),
(29,81,o),
(109,-12,o),
(245,-12,cs),
(349,-12,o),
(394,9,o),
(461,88,c)
);
},
{
closed = 1;
nodes = (
(156,285,l),
(159,361,o),
(174,420,o),
(245,420,cs),
(312,420,o),
(335,360,o),
(335,285,c)
);
}
);
width = 600;
}
);
unicode = 101;
},
{
color = 3;
glyphname = eogonek;
kernLeft = o;
kernRight = e;
lastChange = "2023-03-10 14:52:46 +0000";
layers = (
{
anchors = (
{
name = _ogonek;
pos = (376,0);
}
);
background = {
shapes = (
{
closed = 1;
nodes = (
(246,-17,o),
(169,-52,o),
(169,-135,cs),
(169,-194,o),
(212,-225,o),
(276,-225,cs),
(316,-225,o),
(347,-209,o),
(378,-170,c),
(371,-159,o),
(362,-152,o),
(351,-147,c),
(335,-167,o),
(318,-175,o),
(300,-175,cs),
(267,-175,o),
(249,-149,o),
(249,-117,cs),
(249,-66,o),
(289,-23,o),
(373,13,c),
(358,23,l)
);
}
);
};
layerId = "45069982-2EFC-4B7D-8C53-1932E6EAC4CA";
shapes = (
{
closed = 1;
nodes = (
(310,-225,o),
(349,-204,o),
(385,-179,c),
(383,-167,o),
(378,-157,o),
(370,-148,c),
(341,-163,o),
(318,-169,o),
(299,-169,cs),
(260,-169,o),
(240,-147,o),
(240,-119,cs),
(240,-66,o),
(293,-30,o),
(376,13,c),
(357,19,l),
(239,-16,o),
(157,-54,o),
(157,-136,cs),
(157,-193,o),
(201,-225,o),
(258,-225,cs)
);
},
{
ref = e;
}
);
userData = {
com.hugojourdan.ColorFlow = {
"0" = 0;
"1" = 0;
"10" = 0;
"11" = 0;
"2" = 0;
"3" = 0;
"4" = 0;
"5" = 0;
"6" = 0;
"7" = 0;
"8" = 0;
"9" = 0;
};
};
width = 515;
},
{
anchors = (
{
name = _ogonek;
pos = (412,0);
}
);
background = {
shapes = (
{
closed = 1;
nodes = (
(272,-25,o),
(198,-62,o),
(198,-138,cs),
(198,-194,o),
(244,-225,o),
(300,-225,cs),
(355,-225,o),
(380,-209,o),
(419,-165,c),
(413,-154,o),
(404,-147,o),
(392,-142,c),
(376,-156,o),
(360,-165,o),
(340,-165,cs),
(325,-165,o),
(303,-159,o),
(303,-122,cs),
(303,-78,o),
(330,-34,o),
(412,14,c),
(402,22,l)
);
}
);
};
layerId = "503E420B-61F7-4277-A1BE-A8852071B452";
shapes = (
{
closed = 1;
nodes = (
(346,-225,o),
(387,-204,o),
(421,-179,c),
(419,-167,o),
(414,-157,o),
(406,-148,c),
(377,-163,o),
(354,-169,o),
(335,-169,cs),
(304,-169,o),
(288,-147,o),
(288,-119,cs),
(288,-68,o),
(328,-31,o),
(412,14,c),
(393,15,l),
(278,-16,o),
(183,-52,o),
(183,-136,cs),
(183,-193,o),
(231,-225,o),
(294,-225,cs)
);
},
{
ref = e;
}
);
userData = {
com.hugojourdan.ColorFlow = {
"0" = 0;
"1" = 0;
"10" = 0;
"11" = 0;
"2" = 0;
"3" = 0;
"4" = 0;
"5" = 0;
"6" = 0;
"7" = 0;
"8" = 0;
"9" = 0;
};
};
width = 540;
},
{
anchors = (
{
name = _ogonek;
pos = (373,0);
}
);
associatedMasterId = "45069982-2EFC-4B7D-8C53-1932E6EAC4CA";
background = {
shapes = (
{
closed = 1;
nodes = (
(246,-17,o),
(169,-52,o),
(169,-135,cs),
(169,-194,o),
(212,-225,o),
(276,-225,cs),
(316,-225,o),
(347,-209,o),
(378,-170,c),
(371,-159,o),
(362,-152,o),
(351,-147,c),
(335,-167,o),
(318,-175,o),
(300,-175,cs),
(267,-175,o),
(249,-149,o),
(249,-117,cs),
(249,-66,o),
(289,-23,o),
(373,13,c),
(358,23,l)
);
}
);
};
layerId = "CD476C30-1EB6-4964-A155-AE538AEAB330";
name = "Nov 22 20, 20:46";
shapes = (
{
closed = 1;
nodes = (
(246,-17,o),
(169,-52,o),
(169,-135,cs),
(169,-194,o),
(212,-225,o),
(276,-225,cs),
(316,-225,o),
(347,-209,o),
(378,-170,c),
(371,-159,o),
(362,-152,o),
(351,-147,c),
(335,-167,o),
(318,-175,o),
(300,-175,cs),
(267,-175,o),
(249,-149,o),
(249,-117,cs),
(249,-66,o),
(289,-23,o),
(373,13,c),
(358,23,l)
);
},
{
ref = e;
}
);
width = 505;
},
{
anchors = (
{
name = _ogonek;
pos = (412,0);
}
);
associatedMasterId = "503E420B-61F7-4277-A1BE-A8852071B452";
layerId = "AE291E16-7FEB-4574-9F46-8061393E1CD9";
name = "Nov 22 20, 20:46";
shapes = (
{
closed = 1;
nodes = (
(272,-25,o),
(198,-62,o),
(198,-138,cs),
(198,-194,o),
(244,-225,o),
(300,-225,cs),
(355,-225,o),
(380,-209,o),
(419,-165,c),
(413,-154,o),
(404,-147,o),
(392,-142,c),
(376,-156,o),
(360,-165,o),
(340,-165,cs),
(325,-165,o),
(303,-159,o),
(303,-122,cs),
(303,-78,o),
(330,-34,o),
(412,14,c),
(402,22,l)
);
},
{
ref = e;
}
);
width = 535;
}
);
unicode = 281;
},
{
color = 6;
glyphname = f;
kernLeft = f;
kernRight = f;
lastChange = "2023-03-10 14:52:46 +0000";
layers = (
{
anchors = (
{
name = bottom;
pos = (169,0);
},
{
name = top;
pos = (169,800);
}
);
layerId = "45069982-2EFC-4B7D-8C53-1932E6EAC4CA";
shapes = (
{
closed = 1;
nodes = (
(337,673,o),
(315,720,o),
(225,720,cs),
(120,720,o),
(79,634,o),
(100,420,cs),
(107,353,o),
(106,307,o),
(106,260,cs),
(106,180,ls),
(106,130,o),
(103,85,o),
(96,35,c),
(39,35,l),
(37,25,o),
(37,8,o),
(39,-2,c),
(80,0,o),
(115,0,o),
(154,0,cs),
(192,0,o),
(227,0,o),
(298,-2,c),
(300,8,o),
(300,25,o),
(298,35,c),
(211,35,l),
(204,85,o),
(201,130,o),
(201,180,cs),
(201,400,l),
(196,440,l),
(184,479,o),
(165,538,o),
(165,594,cs),
(165,657,o),
(183,681,o),
(210,681,cs),
(236,681,o),
(246,652,o),
(241,601,c),
(336,601,l)
);
},
{
closed = 1;
nodes = (
(318,412,o),
(318,428,o),
(316,440,c),
(36,440,l),
(34,428,o),
(34,412,o),
(36,400,c),
(316,400,l)
);
}
);
userData = {
com.hugojourdan.ColorFlow = {
"0" = 0;
"1" = 0;
"10" = 0;
"11" = 0;
"2" = 0;
"3" = 0;
"4" = 0;
"5" = 0;
"6" = 0;
"7" = 0;
"8" = 0;
"9" = 0;
};
};
width = 346;
},
{
anchors = (
{
name = bottom;
pos = (175,0);
},
{
name = top;
pos = (175,800);
}
);
layerId = "503E420B-61F7-4277-A1BE-A8852071B452";
shapes = (
{
closed = 1;
nodes = (
(368,673,o),
(331,720,o),
(241,720,cs),
(128,720,o),
(66,657,o),
(92,415,cs),
(97,368,o),
(99,327,o),
(99,280,cs),
(99,190,ls),
(99,130,o),
(96,80,o),
(89,35,c),
(37,35,l),
(35,25,o),
(35,8,o),
(37,-2,c),
(83,0,o),
(128,0,o),
(164,0,cs),
(200,0,o),
(245,0,o),
(321,-2,c),
(323,8,o),
(323,25,o),
(321,35,c),
(239,35,l),
(232,80,o),
(229,130,o),
(229,190,cs),
(229,415,l),
(219,460,l),
(194,508,o),
(180,559,o),
(180,604,cs),
(180,648,o),
(191,680,o),
(222,680,cs),
(248,680,o),
(257,653,o),
(252,595,c),
(367,595,l)
);
},
{
closed = 1;
nodes = (
(346,427,o),
(346,448,o),
(344,460,c),
(29,460,l),
(27,448,o),
(27,427,o),
(29,415,c),
(344,415,l)
);
}
);
userData = {
com.hugojourdan.ColorFlow = {
"0" = 0;
"1" = 0;
"10" = 0;
"11" = 0;
"2" = 0;
"3" = 0;
"4" = 0;
"5" = 0;
"6" = 0;
"7" = 0;
"8" = 0;
"9" = 0;
};
};
width = 367;
},
{
associatedMasterId = "45069982-2EFC-4B7D-8C53-1932E6EAC4CA";
layerId = "12DBD2D3-25FE-44A0-9205-AE0C724813A7";
name = "Nov 3 20, 20:07";
shapes = (
{
closed = 1;
nodes = (
(342,613,l),
(342,658,l),
(306,703,o),
(288,712,o),
(230,712,cs),
(106,712,o),
(98,567,o),
(98,496,cs),
(98,440,l),
(26,440,l),
(26,412,l),
(98,412,l),
(98,168,ls),
(98,121,o),
(94,74,o),
(86,28,c),
(26,28,l),
(26,0,l),
(266,0,l),
(266,28,l),
(200,28,l),
(192,74,o),
(188,121,o),
(188,168,cs),
(188,412,l),
(266,412,l),
(266,440,l),
(188,440,l),
(188,469,o),
(185,498,o),
(182,526,cs),
(178,555,o),
(175,584,o),
(175,613,cs),
(175,649,o),
(196,684,o),
(230,684,cs),
(260,684,o),
(267,647,o),
(267,613,c)
);
}
);
width = 600;
},
{
associatedMasterId = "503E420B-61F7-4277-A1BE-A8852071B452";
layerId = "AB8C816C-6AA6-4A78-B694-778A2F1C4366";
name = "Nov 3 20, 20:07";
shapes = (
{
closed = 1;
nodes = (
(383,613,l),
(383,673,l),
(335,707,o),
(318,712,o),
(259,712,cs),
(135,712,o),
(117,574,o),
(117,504,cs),
(117,440,l),
(45,440,l),
(45,408,l),
(117,408,l),
(117,172,ls),
(117,125,o),
(113,78,o),
(105,32,c),
(45,32,l),
(45,0,l),
(315,0,l),
(315,32,l),
(249,32,l),
(241,78,o),
(237,125,o),
(237,172,cs),
(237,408,l),
(315,408,l),
(315,440,l),
(237,440,l),
(237,469,o),
(234,498,o),
(231,526,cs),
(228,555,o),
(224,584,o),
(224,613,cs),
(224,645,o),
(231,680,o),
(259,680,cs),
(287,680,o),
(283,643,o),
(283,613,c)
);
}
);
visible = 1;
width = 493;
},
{
anchors = (
{
name = bottom;
pos = (164,0);
},
{
name = top;
pos = (164,800);
}
);
associatedMasterId = "45069982-2EFC-4B7D-8C53-1932E6EAC4CA";
layerId = "0DB7F4D7-2667-4F49-BB0F-F3FC9FAC9933";
name = "Nov 13 20, 12:13";
shapes = (
{
closed = 1;
nodes = (
(332,673,o),
(306,720,o),
(226,720,cs),
(121,720,o),
(81,634,o),
(95,420,cs),
(99,353,o),
(101,307,o),
(101,260,cs),
(101,180,ls),
(101,130,o),
(98,85,o),
(91,35,c),
(34,35,l),
(32,25,o),
(32,8,o),
(34,-2,c),
(75,0,o),
(110,0,o),
(149,0,cs),
(187,0,o),
(222,0,o),
(283,-2,c),
(285,8,o),
(285,25,o),
(283,35,c),
(206,35,l),
(199,85,o),
(196,130,o),
(196,180,cs),
(196,400,l),
(191,440,l),
(176,491,o),
(162,535,o),
(162,604,cs),
(162,658,o),
(178,685,o),
(205,685,cs),
(231,685,o),
(241,653,o),
(236,611,c),
(331,611,l)
);
},
{
closed = 1;
nodes = (
(313,412,o),
(313,428,o),
(311,440,c),
(31,440,l),
(29,428,o),
(29,412,o),
(31,400,c),
(311,400,l)
);
}
);
width = 338;
}
);
unicode = 102;
},
{
color = 6;
glyphname = g;
kernLeft = g;
kernRight = g;
lastChange = "2023-03-10 14:52:46 +0000";
layers = (
{
anchors = (
{
name = bottom;
pos = (247,-200);
},
{
name = top;
pos = (247,440);
}
);
layerId = "45069982-2EFC-4B7D-8C53-1932E6EAC4CA";
shapes = (
{
closed = 1;
nodes = (
(180,136,o),
(147,185,o),
(147,274,cs),
(147,363,o),
(180,418,o),
(244,418,cs),
(308,418,o),
(342,363,o),
(342,274,cs),
(342,185,o),
(308,136,o),
(244,136,cs)
);
},
{
closed = 1;
nodes = (
(27,-183,o),
(117,-225,o),
(257,-225,cs),
(399,-225,o),
(497,-186,o),
(497,-88,cs),
(497,6,o),
(412,29,o),
(306,40,cs),
(181,53,o),
(133,67,o),
(132,165,c),
(154,120,o),
(201,99,o),
(257,99,cs),
(369,99,o),
(442,166,o),
(442,273,cs),
(442,323,o),
(423,371,o),
(388,403,c),
(429,403,o),
(461,397,o),
(482,378,c),
(485,402,o),
(485,421,o),
(482,450,c),
(466,443,o),
(426,440,o),
(398,440,cs),
(350,440,o),
(300,455,o),
(243,455,cs),
(108,455,o),
(47,380,o),
(47,246,cs),
(47,90,o),
(104,22,o),
(246,7,cs),
(361,-5,o),
(392,-34,o),
(392,-94,cs),
(392,-161,o),
(336,-185,o),
(257,-185,cs),
(170,-185,o),
(122,-168,o),
(122,-108,cs),
(122,-90,o),
(125,-76,o),
(128,-70,c),
(141,-70,o),
(152,-70,o),
(168,-71,c),
(170,-61,o),
(170,-44,o),
(168,-34,c),
(36,-34,l),
(31,-44,o),
(27,-61,o),
(27,-85,cs)
);
}
);
userData = {
com.hugojourdan.ColorFlow = {
"0" = 0;
"1" = 0;
"10" = 0;
"11" = 0;
"2" = 0;
"3" = 0;
"4" = 0;
"5" = 0;
"6" = 0;
"7" = 0;
"8" = 0;
"9" = 0;
};
};
width = 515;
},
{
anchors = (
{
name = bottom;
pos = (276,-200);
},
{
name = top;
pos = (276,460);
}
);
layerId = "503E420B-61F7-4277-A1BE-A8852071B452";
shapes = (
{
closed = 1;
nodes = (
(213,143,o),
(182,193,o),
(182,289,cs),
(182,385,o),
(213,438,o),
(270,438,cs),
(327,438,o),
(358,385,o),
(358,289,cs),
(358,193,o),
(327,143,o),
(270,143,cs)
);
},
{
closed = 1;
nodes = (
(22,-183,o),
(115,-225,o),
(285,-225,cs),
(455,-225,o),
(553,-171,o),
(553,-79,cs),
(553,29,o),
(427,31,o),
(292,46,cs),
(179,59,o),
(158,88,o),
(158,173,c),
(188,123,o),
(218,106,o),
(286,106,cs),
(406,106,o),
(498,177,o),
(498,288,cs),
(498,343,o),
(479,391,o),
(444,423,c),
(491,418,o),
(514,410,o),
(543,383,c),
(546,417,o),
(546,441,o),
(543,470,c),
(527,465,o),
(494,460,o),
(454,460,cs),
(401,460,o),
(328,475,o),
(272,475,cs),
(134,475,o),
(42,406,o),
(42,254,cs),
(42,48,o),
(155,21,o),
(281,5,cs),
(376,-7,o),
(408,-26,o),
(408,-89,cs),
(408,-158,o),
(362,-185,o),
(282,-185,cs),
(202,-185,o),
(161,-167,o),
(161,-103,cs),
(161,-85,o),
(164,-71,o),
(167,-65,c),
(180,-65,o),
(192,-65,o),
(208,-66,c),
(210,-56,o),
(210,-39,o),
(208,-29,c),
(31,-29,l),
(26,-39,o),
(22,-56,o),
(22,-80,cs)
);
}
);
userData = {
com.hugojourdan.ColorFlow = {
"0" = 0;
"1" = 0;
"10" = 0;
"11" = 0;
"2" = 0;
"3" = 0;
"4" = 0;
"5" = 0;
"6" = 0;
"7" = 0;
"8" = 0;
"9" = 0;
};
};
width = 570;
}
);
unicode = 103;
},
{
color = 3;
glyphname = h;
kernLeft = h;
kernRight = n;
lastChange = "2023-03-10 14:52:46 +0000";
layers = (
{
anchors = (
{
name = bottom;
pos = (291,0);
},
{
name = center;
pos = (291,400);
},
{
name = top;
pos = (141,690);
},
{
name = topright;
pos = (271,700);
}
);
layerId = "45069982-2EFC-4B7D-8C53-1932E6EAC4CA";
shapes = (
{
closed = 1;
nodes = (
(203,35,l),
(196,85,o),
(193,130,o),
(193,180,cs),
(193,520,ls),
(193,570,o),
(196,663,o),
(208,713,c),
(147,702,o),
(78,700,o),
(31,700,c),
(29,690,o),
(29,673,o),
(31,663,c),
(88,663,l),
(95,613,o),
(98,570,o),
(98,520,cs),
(98,180,ls),
(98,130,o),
(95,85,o),
(88,35,c),
(31,35,l),
(29,25,o),
(29,8,o),
(31,-2,c),
(72,0,o),
(107,0,o),
(146,0,cs),
(184,0,o),
(219,0,o),
(260,-2,c),
(262,8,o),
(262,25,o),
(260,35,c)
);
},
{
alignment = -1;
pos = (183,0);
ref = _COM_noga_n;
}
);
userData = {
com.hugojourdan.ColorFlow = {
"0" = 0;
"1" = 0;
"10" = 0;
"11" = 0;
"2" = 0;
"3" = 0;
"4" = 0;
"5" = 0;
"6" = 0;
"7" = 0;
"8" = 0;
"9" = 0;
};
};
width = 577;
},
{
anchors = (
{
name = bottom;
pos = (305,0);
},
{
name = center;
pos = (305,400);
},
{
name = top;
pos = (150,695);
},
{
name = topright;
pos = (286,700);
}
);
layerId = "503E420B-61F7-4277-A1BE-A8852071B452";
shapes = (
{
closed = 1;
nodes = (
(228,35,l),
(221,80,o),
(218,130,o),
(218,190,cs),
(218,510,ls),
(218,570,o),
(221,670,o),
(233,715,c),
(170,704,o),
(103,700,o),
(26,700,c),
(24,690,o),
(24,673,o),
(26,663,c),
(78,663,l),
(85,618,o),
(88,570,o),
(88,510,cs),
(88,190,ls),
(88,130,o),
(85,80,o),
(78,35,c),
(26,35,l),
(24,25,o),
(24,8,o),
(26,-2,c),
(72,0,o),
(117,0,o),
(153,0,cs),
(189,0,o),
(234,0,o),
(280,-2,c),
(282,8,o),
(282,25,o),
(280,35,c)
);
},
{
alignment = -1;
pos = (207,0);
ref = _COM_noga_n;
}
);
userData = {
com.hugojourdan.ColorFlow = {
"0" = 0;
"1" = 0;
"10" = 0;
"11" = 0;
"2" = 0;
"3" = 0;
"4" = 0;
"5" = 0;
"6" = 0;
"7" = 0;
"8" = 0;
"9" = 0;
};
};
width = 615;
}
);
unicode = 104;
},
{
color = 3;
glyphname = hbar;
kernLeft = h;
kernRight = n;
lastChange = "2023-03-10 14:52:46 +0000";
layers = (
{
layerId = "45069982-2EFC-4B7D-8C53-1932E6EAC4CA";
shapes = (
{
closed = 1;
nodes = (
(324,547,o),
(324,563,o),
(321,580,c),
(13,580,l),
(10,563,o),
(10,547,o),
(13,530,c),
(321,530,l)
);
},
{
ref = h;
}
);
userData = {
com.hugojourdan.ColorFlow = {
"0" = 0;
"1" = 0;
"10" = 0;
"11" = 0;
"2" = 0;
"3" = 0;
"4" = 0;
"5" = 0;
"6" = 0;
"7" = 0;
"8" = 0;
"9" = 0;
};
};
width = 577;
},
{
layerId = "503E420B-61F7-4277-A1BE-A8852071B452";
shapes = (
{
closed = 1;
nodes = (
(349,557,o),
(349,573,o),
(346,590,c),
(8,590,l),
(5,573,o),
(5,557,o),
(8,540,c),
(346,540,l)
);
},
{
ref = h;
}
);
userData = {
com.hugojourdan.ColorFlow = {
"0" = 0;
"1" = 0;
"10" = 0;
"11" = 0;
"2" = 0;
"3" = 0;
"4" = 0;
"5" = 0;
"6" = 0;
"7" = 0;
"8" = 0;
"9" = 0;
};
};
width = 615;
}
);
unicode = 295;
},
{
color = 6;
glyphname = idotless;
kernLeft = i;
kernRight = i;
lastChange = "2023-03-10 14:52:46 +0000";
layers = (
{
anchors = (
{
name = bottom;
pos = (155,0);
},
{
name = ogonek;
pos = (245,0);
},
{
name = top;
pos = (155,440);
}
);
layerId = "45069982-2EFC-4B7D-8C53-1932E6EAC4CA";
shapes = (
{
closed = 1;
nodes = (
(212,35,l),
(205,85,o),
(202,130,o),
(202,180,cs),
(202,260,ls),
(202,310,o),
(205,403,o),
(217,453,c),
(156,442,o),
(92,440,o),
(40,440,c),
(38,430,o),
(38,413,o),
(40,403,c),
(97,403,l),
(104,353,o),
(107,310,o),
(107,260,cs),
(107,180,ls),
(107,130,o),
(104,85,o),
(97,35,c),
(35,35,l),
(33,25,o),
(33,8,o),
(35,-2,c),
(81,0,o),
(116,0,o),
(155,0,cs),
(193,0,o),
(228,0,o),
(274,-2,c),
(276,8,o),
(276,25,o),
(274,35,c)
);
}
);
userData = {
com.hugojourdan.ColorFlow = {
"0" = 0;
"1" = 0;
"10" = 0;
"11" = 0;
"2" = 0;
"3" = 0;
"4" = 0;
"5" = 0;
"6" = 0;
"7" = 0;
"8" = 0;
"9" = 0;
};
};
width = 303;
},
{
anchors = (
{
name = bottom;
pos = (162,0);
},
{
name = ogonek;
pos = (262,0);
},
{
name = top;
pos = (162,460);
}
);
layerId = "503E420B-61F7-4277-A1BE-A8852071B452";
shapes = (
{
closed = 1;
nodes = (
(237,35,l),
(230,80,o),
(227,130,o),
(227,190,cs),
(227,270,ls),
(227,330,o),
(230,430,o),
(242,475,c),
(179,464,o),
(112,460,o),
(35,460,c),
(33,450,o),
(33,433,o),
(35,423,c),
(87,423,l),
(94,378,o),
(97,330,o),
(97,270,cs),
(97,190,ls),
(97,130,o),
(94,80,o),
(87,35,c),
(30,35,l),
(28,25,o),
(28,8,o),
(30,-2,c),
(76,0,o),
(126,0,o),
(162,0,cs),
(198,0,o),
(248,0,o),
(294,-2,c),
(296,8,o),
(296,25,o),
(294,35,c)
);
}
);
userData = {
com.hugojourdan.ColorFlow = {
"0" = 0;
"1" = 0;
"10" = 0;
"11" = 0;
"2" = 0;
"3" = 0;
"4" = 0;
"5" = 0;
"6" = 0;
"7" = 0;
"8" = 0;
"9" = 0;
};
};
width = 318;
}
);
unicode = 305;
},
{
color = 10;
glyphname = j;
kernLeft = j;
kernRight = j;
lastChange = "2023-03-10 14:52:46 +0000";
layers = (
{
layerId = "45069982-2EFC-4B7D-8C53-1932E6EAC4CA";
shapes = (
{
ref = jdotless;
},
{
pos = (145,0);
ref = dotaccentcomb;
}
);
userData = {
com.hugojourdan.ColorFlow = {
"0" = 0;
"1" = 0;
"10" = 0;
"11" = 0;
"2" = 0;
"3" = 0;
"4" = 0;
"5" = 0;
"6" = 0;
"7" = 0;
"8" = 0;
"9" = 0;
};
};
width = 272;
},
{
layerId = "503E420B-61F7-4277-A1BE-A8852071B452";
shapes = (
{
ref = jdotless;
},
{
pos = (153,-11);
ref = dotaccentcomb;
}
);
userData = {
com.hugojourdan.ColorFlow = {
"0" = 0;
"1" = 0;
"10" = 0;
"11" = 0;
"2" = 0;
"3" = 0;
"4" = 0;
"5" = 0;
"6" = 0;
"7" = 0;
"8" = 0;
"9" = 0;
};
};
width = 292;
},
{
associatedMasterId = "503E420B-61F7-4277-A1BE-A8852071B452";
layerId = "8B0BFA18-3464-45E4-9F7C-CCA1A6E5FB42";
name = "Nov 3 20, 19:30";
shapes = (
{
closed = 1;
nodes = (
(262,408,l),
(262,440,l),
(22,440,l),
(22,408,l),
(70,408,l),
(78,362,o),
(82,315,o),
(82,268,cs),
(82,-65,ls),
(82,-118,o),
(72,-177,o),
(26,-177,cs),
(-6,-177,o),
(-11,-135,o),
(-11,-97,c),
(-71,-97,l),
(-71,-153,l),
(-59,-186,o),
(-28,-209,o),
(8,-209,cs),
(118,-209,o),
(202,-113,o),
(202,0,cs),
(202,268,ls),
(202,315,o),
(206,362,o),
(214,408,c)
);
},
{
closed = 1;
nodes = (
(202,567,l),
(202,617,l),
(167,652,l),
(117,652,l),
(82,617,l),
(82,567,l),
(117,532,l),
(167,532,l)
);
}
);
width = 600;
},
{
associatedMasterId = "45069982-2EFC-4B7D-8C53-1932E6EAC4CA";
layerId = "4E017742-BA0F-4C89-810E-8F2D7B76CDC3";
name = "Nov 3 20, 19:30";
shapes = (
{
closed = 1;
nodes = (
(134,444,o),
(80,440,o),
(26,440,c),
(26,412,l),
(74,412,l),
(82,366,o),
(86,319,o),
(86,272,cs),
(86,-74,ls),
(86,-126,o),
(73,-181,o),
(28,-181,cs),
(-2,-181,o),
(-11,-145,o),
(-11,-111,c),
(-56,-111,l),
(-56,-160,l),
(-48,-189,o),
(-22,-209,o),
(8,-209,cs),
(109,-209,o),
(176,-109,o),
(176,0,cs),
(176,272,ls),
(176,332,o),
(180,392,o),
(188,452,c)
);
},
{
closed = 1;
nodes = (
(181,555,l),
(181,613,l),
(131,642,l),
(81,613,l),
(81,555,l),
(131,526,l)
);
}
);
width = 600;
}
);
unicode = 106;
},
{
color = 6;
glyphname = jdotless;
kernLeft = j;
kernRight = j;
lastChange = "2023-03-10 14:52:46 +0000";
layers = (
{
anchors = (
{
name = bottom;
pos = (137,-200);
},
{
name = top;
pos = (145,440);
}
);
layerId = "45069982-2EFC-4B7D-8C53-1932E6EAC4CA";
shapes = (
{
closed = 1;
nodes = (
(192,310,o),
(195,403,o),
(207,453,c),
(146,442,o),
(82,440,o),
(30,440,c),
(28,430,o),
(28,413,o),
(30,403,c),
(87,403,l),
(94,353,o),
(97,310,o),
(97,260,cs),
(97,-10,ls),
(97,-92,o),
(79,-177,o),
(4,-187,c),
(2,-200,o),
(2,-212,o),
(4,-225,c),
(135,-220,o),
(187,-116,o),
(199,-40,c),
(192,-2,o),
(192,36,o),
(192,74,cs),
(192,260,ls)
);
}
);
userData = {
com.hugojourdan.ColorFlow = {
"0" = 0;
"1" = 0;
"10" = 0;
"11" = 0;
"2" = 0;
"3" = 0;
"4" = 0;
"5" = 0;
"6" = 0;
"7" = 0;
"8" = 0;
"9" = 0;
};
};
width = 272;
},
{
anchors = (
{
name = bottom;
pos = (138,-200);
},
{
name = top;
pos = (153,460);
}
);
layerId = "503E420B-61F7-4277-A1BE-A8852071B452";
shapes = (
{
closed = 1;
nodes = (
(218,330,o),
(221,430,o),
(233,475,c),
(170,464,o),
(103,460,o),
(26,460,c),
(24,450,o),
(24,433,o),
(26,423,c),
(78,423,l),
(85,378,o),
(88,330,o),
(88,270,cs),
(88,-10,ls),
(88,-92,o),
(70,-177,o),
(-5,-187,c),
(-7,-200,o),
(-7,-212,o),
(-5,-225,c),
(126,-220,o),
(213,-116,o),
(225,-40,c),
(218,-2,o),
(218,36,o),
(218,74,cs),
(218,270,ls)
);
}
);
userData = {
com.hugojourdan.ColorFlow = {
"0" = 0;
"1" = 0;
"10" = 0;
"11" = 0;
"2" = 0;
"3" = 0;
"4" = 0;
"5" = 0;
"6" = 0;
"7" = 0;
"8" = 0;
"9" = 0;
};
};
width = 292;
},
{
associatedMasterId = "503E420B-61F7-4277-A1BE-A8852071B452";
layerId = "7DFE533A-C31D-4595-AD02-F7928B2B8A8E";
name = "Nov 3 20, 19:34";
shapes = (
{
closed = 1;
nodes = (
(262,408,l),
(262,440,l),
(22,440,l),
(22,408,l),
(70,408,l),
(78,362,o),
(82,315,o),
(82,268,cs),
(82,-65,ls),
(82,-118,o),
(72,-177,o),
(26,-177,cs),
(-6,-177,o),
(-11,-135,o),
(-11,-97,c),
(-71,-97,l),
(-71,-153,l),
(-59,-186,o),
(-28,-209,o),
(8,-209,cs),
(118,-209,o),
(202,-113,o),
(202,0,cs),
(202,268,ls),
(202,315,o),
(206,362,o),
(214,408,c)
);
},
{
closed = 1;
nodes = (
(202,567,l),
(202,617,l),
(167,652,l),
(117,652,l),
(82,617,l),
(82,567,l),
(117,532,l),
(167,532,l)
);
}
);
width = 600;
}
);
unicode = 567;
},
{
color = 3;
glyphname = k;
kernLeft = h;
kernRight = k;
lastChange = "2023-03-10 14:52:46 +0000";
layers = (
{
anchors = (
{
name = bottom;
pos = (290,0);
},
{
name = center;
pos = (146,400);
},
{
name = top;
pos = (257,800);
},
{
name = topright;
pos = (271,700);
}
);
layerId = "45069982-2EFC-4B7D-8C53-1932E6EAC4CA";
shapes = (
{
closed = 1;
nodes = (
(72,0,o),
(107,0,o),
(146,0,cs),
(184,0,o),
(219,0,o),
(260,-2,c),
(262,8,o),
(262,25,o),
(260,35,c),
(203,35,l),
(196,85,o),
(193,130,o),
(193,180,cs),
(193,520,ls),
(193,570,o),
(196,663,o),
(208,713,c),
(147,702,o),
(78,700,o),
(31,700,c),
(29,690,o),
(29,673,o),
(31,663,c),
(88,663,l),
(95,613,o),
(98,570,o),
(98,520,cs),
(98,180,ls),
(98,130,o),
(95,85,o),
(88,35,c),
(31,35,l),
(29,25,o),
(29,8,o),
(31,-2,c)
);
},
{
closed = 1;
nodes = (
(467,-10,o),
(493,-6,o),
(511,0,c),
(513,12,o),
(513,23,o),
(511,35,c),
(471,36,o),
(459,48,o),
(448,97,cs),
(436,153,ls),
(426,201,o),
(398,247,o),
(323,252,c),
(365,280,o),
(399,355,o),
(456,403,c),
(503,403,l),
(505,413,o),
(505,432,o),
(503,442,c),
(447,440,o),
(406,440,o),
(380,440,cs),
(354,440,o),
(355,440,o),
(299,442,c),
(297,432,o),
(297,413,o),
(299,403,c),
(369,403,l),
(365,380,o),
(356,355,o),
(329,316,cs),
(304,279,o),
(276,260,o),
(242,260,cs),
(193,260,l),
(193,225,l),
(232,225,ls),
(311,225,o),
(328,189,o),
(335,153,cs),
(348,87,ls),
(360,26,o),
(372,-10,o),
(447,-10,cs)
);
}
);
userData = {
com.hugojourdan.ColorFlow = {
"0" = 0;
"1" = 0;
"10" = 0;
"11" = 0;
"2" = 0;
"3" = 0;
"4" = 0;
"5" = 0;
"6" = 0;
"7" = 0;
"8" = 0;
"9" = 0;
};
};
width = 539;
},
{
anchors = (
{
name = bottom;
pos = (310,0);
},
{
name = center;
pos = (151,400);
},
{
name = top;
pos = (264,800);
},
{
name = topright;
pos = (286,700);
}
);
layerId = "503E420B-61F7-4277-A1BE-A8852071B452";
shapes = (
{
closed = 1;
nodes = (
(72,0,o),
(117,0,o),
(153,0,cs),
(189,0,o),
(234,0,o),
(280,-2,c),
(282,8,o),
(282,25,o),
(280,35,c),
(228,35,l),
(221,80,o),
(218,130,o),
(218,190,cs),
(218,510,ls),
(218,570,o),
(221,670,o),
(233,715,c),
(170,704,o),
(103,700,o),
(26,700,c),
(24,690,o),
(24,673,o),
(26,663,c),
(78,663,l),
(85,618,o),
(88,570,o),
(88,510,cs),
(88,190,ls),
(88,130,o),
(85,80,o),
(78,35,c),
(26,35,l),
(24,25,o),
(24,8,o),
(26,-2,c)
);
},
{
closed = 1;
nodes = (
(505,-10,o),
(533,-7,o),
(562,0,c),
(564,12,o),
(564,23,o),
(562,35,c),
(523,34,o),
(501,54,o),
(491,100,cs),
(474,177,ls),
(463,227,o),
(427,258,o),
(359,261,c),
(416,318,o),
(437,386,o),
(475,423,c),
(534,423,l),
(536,433,o),
(536,452,o),
(534,462,c),
(478,460,o),
(439,460,o),
(413,460,cs),
(387,460,o),
(377,460,o),
(321,462,c),
(319,452,o),
(319,433,o),
(321,423,c),
(387,423,l),
(386,390,o),
(378,366,o),
(363,337,cs),
(342,295,o),
(316,270,o),
(269,270,cs),
(218,270,l),
(218,230,l),
(249,230,ls),
(305,230,o),
(329,202,o),
(339,158,cs),
(354,92,ls),
(367,33,o),
(383,-10,o),
(479,-10,cs)
);
}
);
userData = {
com.hugojourdan.ColorFlow = {
"0" = 0;
"1" = 0;
"10" = 0;
"11" = 0;
"2" = 0;
"3" = 0;
"4" = 0;
"5" = 0;
"6" = 0;
"7" = 0;
"8" = 0;
"9" = 0;
};
};
width = 575;
},
{
associatedMasterId = "45069982-2EFC-4B7D-8C53-1932E6EAC4CA";
layerId = "B4B54BE3-DC90-40D8-ADDD-90F1A7B71981";
name = "Nov 4 20, 19:55";
shapes = (
{
closed = 1;
nodes = (
(486,0,l),
(486,28,l),
(458,28,ls),
(406,28,o),
(404,96,o),
(395,152,cs),
(384,224,o),
(325,249,o),
(250,253,c),
(279,275,o),
(304,308,o),
(326,339,cs),
(357,382,o),
(386,412,o),
(438,412,cs),
(462,412,l),
(462,440,l),
(276,440,l),
(276,412,l),
(324,412,l),
(324,382,o),
(305,357,o),
(287,333,cs),
(258,294,o),
(224,254,o),
(176,254,c),
(176,226,l),
(221,226,ls),
(267,226,o),
(298,183,o),
(307,136,cs),
(309,121,o),
(310,105,o),
(313,90,cs),
(323,42,o),
(358,0,o),
(405,0,cs)
);
},
{
pos = (-17,0);
ref = l;
}
);
visible = 1;
width = 570;
},
{
associatedMasterId = "503E420B-61F7-4277-A1BE-A8852071B452";
layerId = "4A7EF4DE-7203-455C-90A6-6874FE2242A1";
name = "Nov 4 20, 19:55";
shapes = (
{
closed = 1;
nodes = (
(523,0,l),
(523,32,l),
(491,32,ls),
(442,32,o),
(450,98,o),
(443,150,cs),
(433,227,o),
(371,256,o),
(291,261,c),
(318,281,o),
(342,308,o),
(364,335,cs),
(397,375,o),
(423,408,o),
(475,408,cs),
(499,408,l),
(499,440,l),
(313,440,l),
(313,408,l),
(361,408,l),
(361,379,o),
(341,356,o),
(322,335,cs),
(289,298,o),
(252,262,o),
(203,262,c),
(203,230,l),
(263,230,ls),
(303,230,o),
(318,183,o),
(324,138,cs),
(326,123,o),
(327,107,o),
(330,92,cs),
(340,44,o),
(369,0,o),
(415,0,cs)
);
},
{
pos = (-20,0);
ref = l;
}
);
width = 600;
},
{
anchors = (
{
name = bottom;
pos = (290,-2);
},
{
name = center;
pos = (146,400);
},
{
name = top;
pos = (257,800);
},
{
name = topright;
pos = (271,700);
}
);
associatedMasterId = "45069982-2EFC-4B7D-8C53-1932E6EAC4CA";
layerId = "BBB27845-5279-42E1-B012-F1F691791B71";
name = "Nov 21 20, 16:39";
shapes = (
{
closed = 1;
nodes = (
(72,0,o),
(107,0,o),
(146,0,cs),
(184,0,o),
(219,0,o),
(260,-2,c),
(262,8,o),
(262,25,o),
(260,35,c),
(203,35,l),
(196,85,o),
(193,130,o),
(193,180,cs),
(193,520,ls),
(193,570,o),
(196,663,o),
(208,713,c),
(147,702,o),
(78,700,o),
(31,700,c),
(29,690,o),
(29,673,o),
(31,663,c),
(88,663,l),
(95,613,o),
(98,570,o),
(98,520,cs),
(98,180,ls),
(98,130,o),
(95,85,o),
(88,35,c),
(31,35,l),
(29,25,o),
(29,8,o),
(31,-2,c)
);
},
{
closed = 1;
nodes = (
(467,-10,o),
(493,-6,o),
(511,0,c),
(513,12,o),
(513,23,o),
(511,35,c),
(471,36,o),
(459,48,o),
(448,97,cs),
(440,133,ls),
(425,201,o),
(398,247,o),
(323,252,c),
(365,280,o),
(399,355,o),
(456,403,c),
(503,403,l),
(505,413,o),
(505,432,o),
(503,442,c),
(447,440,o),
(406,440,o),
(380,440,cs),
(354,440,o),
(355,440,o),
(299,442,c),
(297,432,o),
(297,413,o),
(299,403,c),
(369,403,l),
(365,380,o),
(356,355,o),
(329,316,cs),
(304,279,o),
(276,260,o),
(242,260,cs),
(193,260,l),
(193,225,l),
(222,225,ls),
(291,225,o),
(328,189,o),
(339,133,cs),
(348,87,ls),
(360,26,o),
(372,-10,o),
(447,-10,cs)
);
}
);
width = 528;
}
);
unicode = 107;
},
{
color = 6;
glyphname = kgreenlandic;
kernLeft = n;
kernRight = k;
lastChange = "2023-03-10 14:52:46 +0000";
layers = (
{
background = {
shapes = (
{
closed = 0;
nodes = (
(213,406,l),
(268,406,l),
(270,416,o),
(270,432,o),
(268,442,c),
(235,441,o),
(194,439,o),
(152,440,cs),
(112,440,o),
(81,441,o),
(45,442,c),
(43,432,o),
(43,416,o),
(45,406,c),
(97,406,l)
);
}
);
};
layerId = "45069982-2EFC-4B7D-8C53-1932E6EAC4CA";
shapes = (
{
closed = 1;
nodes = (
(476,-10,o),
(502,-6,o),
(520,0,c),
(522,12,o),
(522,23,o),
(520,35,c),
(480,36,o),
(468,48,o),
(457,97,cs),
(445,153,ls),
(435,201,o),
(407,247,o),
(332,252,c),
(374,281,o),
(408,357,o),
(465,406,c),
(512,406,l),
(514,415,o),
(514,433,o),
(512,442,c),
(461,440,o),
(423,440,o),
(399,440,cs),
(374,440,o),
(375,440,o),
(320,442,c),
(318,433,o),
(318,415,o),
(320,406,c),
(378,406,l),
(374,382,o),
(366,356,o),
(338,316,cs),
(313,279,o),
(285,260,o),
(251,260,cs),
(202,260,l),
(202,225,l),
(241,225,ls),
(320,225,o),
(337,189,o),
(344,153,cs),
(357,87,ls),
(369,26,o),
(381,-10,o),
(456,-10,cs)
);
},
{
closed = 1;
nodes = (
(81,0,o),
(116,0,o),
(155,0,cs),
(193,0,o),
(228,0,o),
(274,-2,c),
(276,8,o),
(276,25,o),
(274,35,c),
(212,35,l),
(205,85,o),
(202,130,o),
(202,180,cs),
(202,260,ls),
(202,297,o),
(204,357,o),
(209,406,c),
(264,406,l),
(266,416,o),
(266,432,o),
(264,442,c),
(221,440,o),
(193,440,o),
(152,440,cs),
(112,440,o),
(91,440,o),
(45,442,c),
(43,432,o),
(43,416,o),
(45,406,c),
(97,406,l),
(104,355,o),
(107,311,o),
(107,260,cs),
(107,180,ls),
(107,130,o),
(104,85,o),
(97,35,c),
(35,35,l),
(33,25,o),
(33,8,o),
(35,-2,c)
);
}
);
userData = {
com.hugojourdan.ColorFlow = {
"0" = 0;
"1" = 0;
"10" = 0;
"11" = 0;
"2" = 0;
"3" = 0;
"4" = 0;
"5" = 0;
"6" = 0;
"7" = 0;
"8" = 0;
"9" = 0;
};
};
width = 548;
},
{
background = {
shapes = (
{
closed = 0;
nodes = (
(289,462,l),
(222,460,o),
(176,460,o),
(145,460,cs),
(114,460,o),
(102,460,o),
(35,462,c)
);
}
);
};
layerId = "503E420B-61F7-4277-A1BE-A8852071B452";
shapes = (
{
closed = 1;
nodes = (
(514,-10,o),
(542,-7,o),
(571,0,c),
(573,12,o),
(573,23,o),
(571,35,c),
(532,34,o),
(510,54,o),
(500,100,cs),
(483,177,ls),
(472,227,o),
(436,258,o),
(368,261,c),
(425,319,o),
(446,388,o),
(484,426,c),
(543,426,l),
(545,435,o),
(545,453,o),
(543,462,c),
(487,460,o),
(448,460,o),
(422,460,cs),
(398,460,o),
(389,460,o),
(338,462,c),
(336,453,o),
(336,435,o),
(338,426,c),
(396,426,l),
(395,392,o),
(387,367,o),
(372,337,cs),
(351,295,o),
(325,270,o),
(278,270,cs),
(227,270,l),
(227,230,l),
(258,230,ls),
(314,230,o),
(338,202,o),
(348,158,cs),
(363,92,ls),
(376,33,o),
(392,-10,o),
(488,-10,cs)
);
},
{
closed = 1;
nodes = (
(76,0,o),
(126,0,o),
(162,0,cs),
(198,0,o),
(248,0,o),
(294,-2,c),
(296,8,o),
(296,25,o),
(294,35,c),
(237,35,l),
(230,80,o),
(227,130,o),
(227,190,cs),
(227,270,ls),
(227,312,o),
(228,375,o),
(234,426,c),
(289,426,l),
(291,436,o),
(291,452,o),
(289,462,c),
(236,460,o),
(208,460,o),
(162,460,cs),
(115,460,o),
(91,460,o),
(35,462,c),
(33,452,o),
(33,436,o),
(35,426,c),
(87,426,l),
(94,379,o),
(97,330,o),
(97,270,cs),
(97,190,ls),
(97,130,o),
(94,80,o),
(87,35,c),
(30,35,l),
(28,25,o),
(28,8,o),
(30,-2,c)
);
}
);
userData = {
com.hugojourdan.ColorFlow = {
"0" = 0;
"1" = 0;
"10" = 0;
"11" = 0;
"2" = 0;
"3" = 0;
"4" = 0;
"5" = 0;
"6" = 0;
"7" = 0;
"8" = 0;
"9" = 0;
};
};
width = 585;
}
);
unicode = 312;
},
{
color = 6;
glyphname = l;
kernLeft = l;
kernRight = l;
lastChange = "2023-03-10 14:52:46 +0000";
layers = (
{
anchors = (
{
name = bottom;
pos = (146,0);
},
{
name = center;
pos = (146,400);
},
{
name = top;
pos = (146,700);
},
{
name = topright;
pos = (271,700);
}
);
layerId = "45069982-2EFC-4B7D-8C53-1932E6EAC4CA";
shapes = (
{
closed = 1;
nodes = (
(203,35,l),
(196,85,o),
(193,130,o),
(193,180,cs),
(193,520,ls),
(193,570,o),
(196,663,o),
(208,713,c),
(147,702,o),
(78,700,o),
(31,700,c),
(29,690,o),
(29,673,o),
(31,663,c),
(88,663,l),
(95,613,o),
(98,570,o),
(98,520,cs),
(98,180,ls),
(98,130,o),
(95,85,o),
(88,35,c),
(31,35,l),
(29,25,o),
(29,8,o),
(31,-2,c),
(72,0,o),
(107,0,o),
(146,0,cs),
(184,0,o),
(219,0,o),
(260,-2,c),
(262,8,o),
(262,25,o),
(260,35,c)
);
}
);
userData = {
com.hugojourdan.ColorFlow = {
"0" = 0;
"1" = 0;
"10" = 0;
"11" = 0;
"2" = 0;
"3" = 0;
"4" = 0;
"5" = 0;
"6" = 0;
"7" = 0;
"8" = 0;
"9" = 0;
};
};
width = 291;
},
{
anchors = (
{
name = bottom;
pos = (151,0);
},
{
name = center;
pos = (151,400);
},
{
name = top;
pos = (151,700);
},
{
name = topright;
pos = (286,700);
}
);
layerId = "503E420B-61F7-4277-A1BE-A8852071B452";
shapes = (
{
closed = 1;
nodes = (
(228,35,l),
(221,80,o),
(218,130,o),
(218,190,cs),
(218,510,ls),
(218,570,o),
(221,670,o),
(233,715,c),
(170,704,o),
(103,700,o),
(26,700,c),
(24,690,o),
(24,673,o),
(26,663,c),
(78,663,l),
(85,618,o),
(88,570,o),
(88,510,cs),
(88,190,ls),
(88,130,o),
(85,80,o),
(78,35,c),
(26,35,l),
(24,25,o),
(24,8,o),
(26,-2,c),
(72,0,o),
(117,0,o),
(153,0,cs),
(189,0,o),
(234,0,o),
(280,-2,c),
(282,8,o),
(282,25,o),
(280,35,c)
);
}
);
userData = {
com.hugojourdan.ColorFlow = {
"0" = 0;
"1" = 0;
"10" = 0;
"11" = 0;
"2" = 0;
"3" = 0;
"4" = 0;
"5" = 0;
"6" = 0;
"7" = 0;
"8" = 0;
"9" = 0;
};
};
width = 306;
}
);
unicode = 108;
},
{
color = 3;
glyphname = lslash;
lastChange = "2023-03-10 14:52:46 +0000";
layers = (
{
layerId = "45069982-2EFC-4B7D-8C53-1932E6EAC4CA";
shapes = (
{
closed = 1;
nodes = (
(289,353,o),
(336,393,o),
(336,449,c),
(316,452,o),
(295,452,o),
(275,449,c),
(275,402,o),
(276,377,o),
(234,337,c),
(234,307,l)
);
},
{
closed = 1;
nodes = (
(79,239,o),
(32,199,o),
(32,143,c),
(52,140,o),
(73,140,o),
(93,143,c),
(93,190,o),
(92,215,o),
(139,255,c),
(139,285,l)
);
},
{
pos = (41,0);
ref = l;
}
);
userData = {
com.hugojourdan.ColorFlow = {
"0" = 0;
"1" = 0;
"10" = 0;
"11" = 0;
"2" = 0;
"3" = 0;
"4" = 0;
"5" = 0;
"6" = 0;
"7" = 0;
"8" = 0;
"9" = 0;
};
};
width = 356;
},
{
layerId = "503E420B-61F7-4277-A1BE-A8852071B452";
shapes = (
{
closed = 1;
nodes = (
(335,383,o),
(395,423,o),
(395,479,c),
(367,484,o),
(339,484,o),
(311,479,c),
(311,432,o),
(307,407,o),
(270,367,c),
(270,337,l)
);
},
{
closed = 1;
nodes = (
(75,239,o),
(20,199,o),
(20,143,c),
(48,138,o),
(76,138,o),
(104,143,c),
(104,190,o),
(103,215,o),
(140,255,c),
(140,285,l)
);
},
{
pos = (52,0);
ref = l;
}
);
userData = {
com.hugojourdan.ColorFlow = {
"0" = 0;
"1" = 0;
"10" = 0;
"11" = 0;
"2" = 0;
"3" = 0;
"4" = 0;
"5" = 0;
"6" = 0;
"7" = 0;
"8" = 0;
"9" = 0;
};
};
width = 401;
}
);
unicode = 322;
},
{
color = 6;
glyphname = m;
kernLeft = n;
kernRight = n;
lastChange = "2023-03-10 14:52:46 +0000";
layers = (
{
anchors = (
{
name = bottom;
pos = (429,0);
},
{
name = top;
pos = (429,440);
}
);
layerId = "45069982-2EFC-4B7D-8C53-1932E6EAC4CA";
shapes = (
{
closed = 1;
nodes = (
(78,0,o),
(113,0,o),
(152,0,cs),
(190,0,o),
(215,0,o),
(256,-2,c),
(258,8,o),
(258,25,o),
(256,35,c),
(209,35,l),
(202,85,o),
(199,130,o),
(199,180,cs),
(199,330,l),
(189,375,l),
(189,395,o),
(192,429,o),
(199,453,c),
(143,442,o),
(89,440,o),
(42,440,c),
(40,430,o),
(40,413,o),
(42,403,c),
(94,403,l),
(101,353,o),
(104,310,o),
(104,260,cs),
(104,180,ls),
(104,130,o),
(101,85,o),
(94,35,c),
(37,35,l),
(35,25,o),
(35,8,o),
(37,-2,c)
);
},
{
closed = 1;
nodes = (
(368,0,o),
(393,0,o),
(432,0,cs),
(470,0,o),
(495,0,o),
(536,-2,c),
(538,8,o),
(538,25,o),
(536,35,c),
(489,35,l),
(482,85,o),
(479,130,o),
(479,180,cs),
(479,316,l),
(479,336,o),
(480,356,o),
(482,376,c),
(456,422,o),
(425,455,o),
(352,455,cs),
(279,455,o),
(225,426,o),
(189,375,c),
(199,330,l),
(226,381,o),
(267,405,o),
(314,405,cs),
(370,405,o),
(384,365,o),
(384,316,c),
(384,180,ls),
(384,130,o),
(381,85,o),
(374,35,c),
(327,35,l),
(325,25,o),
(325,8,o),
(327,-2,c)
);
},
{
closed = 1;
nodes = (
(648,0,o),
(673,0,o),
(712,0,cs),
(750,0,o),
(785,0,o),
(826,-2,c),
(828,8,o),
(828,25,o),
(826,35,c),
(769,35,l),
(762,85,o),
(759,130,o),
(759,180,cs),
(759,316,l),
(759,336,o),
(760,356,o),
(762,376,c),
(736,422,o),
(705,455,o),
(632,455,cs),
(554,455,o),
(505,426,o),
(469,375,c),
(479,330,l),
(506,381,o),
(542,405,o),
(594,405,cs),
(650,405,o),
(664,365,o),
(664,316,c),
(664,180,ls),
(664,130,o),
(661,85,o),
(654,35,c),
(607,35,l),
(605,25,o),
(605,8,o),
(607,-2,c)
);
}
);
userData = {
com.hugojourdan.ColorFlow = {
"0" = 0;
"1" = 0;
"10" = 0;
"11" = 0;
"2" = 0;
"3" = 0;
"4" = 0;
"5" = 0;
"6" = 0;
"7" = 0;
"8" = 0;
"9" = 0;
};
};
width = 853;
},
{
anchors = (
{
name = bottom;
pos = (457,0);
},
{
name = top;
pos = (457,460);
}
);
layerId = "503E420B-61F7-4277-A1BE-A8852071B452";
shapes = (
{
closed = 1;
nodes = (
(78,0,o),
(123,0,o),
(159,0,cs),
(195,0,o),
(230,0,o),
(276,-2,c),
(278,8,o),
(278,25,o),
(276,35,c),
(234,35,l),
(227,80,o),
(224,130,o),
(224,190,cs),
(224,350,l),
(214,395,l),
(216,424,o),
(219,458,o),
(224,475,c),
(161,464,o),
(114,460,o),
(37,460,c),
(35,450,o),
(35,433,o),
(37,423,c),
(84,423,l),
(91,378,o),
(94,330,o),
(94,270,cs),
(94,190,ls),
(94,130,o),
(91,80,o),
(84,35,c),
(32,35,l),
(30,25,o),
(30,8,o),
(32,-2,c)
);
},
{
closed = 1;
nodes = (
(388,0,o),
(423,0,o),
(459,0,cs),
(495,0,o),
(530,0,o),
(576,-2,c),
(578,8,o),
(578,25,o),
(576,35,c),
(534,35,l),
(527,80,o),
(524,130,o),
(524,190,cs),
(524,306,ls),
(524,326,o),
(525,356,o),
(529,376,c),
(506,441,o),
(471,475,o),
(388,475,cs),
(295,475,o),
(243,436,o),
(214,395,c),
(224,350,l),
(254,390,o),
(279,415,o),
(331,415,cs),
(380,415,o),
(394,372,o),
(394,318,cs),
(394,190,ls),
(394,130,o),
(391,80,o),
(384,35,c),
(342,35,l),
(340,25,o),
(340,8,o),
(342,-2,c)
);
},
{
closed = 1;
nodes = (
(688,0,o),
(723,0,o),
(759,0,cs),
(795,0,o),
(840,0,o),
(886,-2,c),
(888,8,o),
(888,25,o),
(886,35,c),
(834,35,l),
(827,80,o),
(824,130,o),
(824,190,cs),
(824,306,ls),
(824,326,o),
(825,356,o),
(829,376,c),
(806,441,o),
(771,475,o),
(688,475,cs),
(595,475,o),
(543,436,o),
(514,395,c),
(524,350,l),
(554,390,o),
(579,415,o),
(631,415,cs),
(680,415,o),
(694,372,o),
(694,318,cs),
(694,190,ls),
(694,130,o),
(691,80,o),
(684,35,c),
(642,35,l),
(640,25,o),
(640,8,o),
(642,-2,c)
);
}
);
userData = {
com.hugojourdan.ColorFlow = {
"0" = 0;
"1" = 0;
"10" = 0;
"11" = 0;
"2" = 0;
"3" = 0;
"4" = 0;
"5" = 0;
"6" = 0;
"7" = 0;
"8" = 0;
"9" = 0;
};
};
width = 912;
}
);
unicode = 109;
},
{
color = 3;
glyphname = n;
kernLeft = n;
kernRight = n;
lastChange = "2023-03-10 14:52:46 +0000";
layers = (
{
anchors = (
{
name = bottom;
pos = (297,0);
},
{
name = top;
pos = (307,440);
}
);
layerId = "45069982-2EFC-4B7D-8C53-1932E6EAC4CA";
shapes = (
{
closed = 1;
nodes = (
(78,0,o),
(113,0,o),
(152,0,cs),
(190,0,o),
(225,0,o),
(266,-2,c),
(268,8,o),
(268,25,o),
(266,35,c),
(209,35,l),
(202,85,o),
(199,130,o),
(199,180,cs),
(199,330,l),
(189,375,l),
(189,395,o),
(192,429,o),
(199,453,c),
(143,442,o),
(89,440,o),
(42,440,c),
(40,430,o),
(40,413,o),
(42,403,c),
(94,403,l),
(101,353,o),
(104,310,o),
(104,260,cs),
(104,180,ls),
(104,130,o),
(101,85,o),
(94,35,c),
(37,35,l),
(35,25,o),
(35,8,o),
(37,-2,c)
);
},
{
pos = (189,0);
ref = _COM_noga_n;
}
);
userData = {
com.hugojourdan.ColorFlow = {
"0" = 0;
"1" = 0;
"10" = 0;
"11" = 0;
"2" = 0;
"3" = 0;
"4" = 0;
"5" = 0;
"6" = 0;
"7" = 0;
"8" = 0;
"9" = 0;
};
};
width = 583;
},
{
anchors = (
{
name = bottom;
pos = (312,0);
},
{
name = top;
pos = (332,460);
}
);
layerId = "503E420B-61F7-4277-A1BE-A8852071B452";
shapes = (
{
closed = 1;
nodes = (
(78,0,o),
(123,0,o),
(159,0,cs),
(195,0,o),
(240,0,o),
(286,-2,c),
(288,8,o),
(288,25,o),
(286,35,c),
(234,35,l),
(227,80,o),
(224,130,o),
(224,190,cs),
(224,350,l),
(214,395,l),
(216,424,o),
(219,458,o),
(224,475,c),
(161,464,o),
(114,460,o),
(37,460,c),
(35,450,o),
(35,433,o),
(37,423,c),
(84,423,l),
(91,378,o),
(94,330,o),
(94,270,cs),
(94,190,ls),
(94,130,o),
(91,80,o),
(84,35,c),
(32,35,l),
(30,25,o),
(30,8,o),
(32,-2,c)
);
},
{
pos = (214,0);
ref = _COM_noga_n;
}
);
userData = {
com.hugojourdan.ColorFlow = {
"0" = 0;
"1" = 0;
"10" = 0;
"11" = 0;
"2" = 0;
"3" = 0;
"4" = 0;
"5" = 0;
"6" = 0;
"7" = 0;
"8" = 0;
"9" = 0;
};
};
width = 622;
},
{
associatedMasterId = "45069982-2EFC-4B7D-8C53-1932E6EAC4CA";
layerId = "355FBDBC-3089-4B0F-8FD8-5E470DDEAD68";
name = "Nov 1 20, 22:15";
shapes = (
{
closed = 1;
nodes = (
(542,0,l),
(542,28,l),
(494,28,l),
(486,74,o),
(482,121,o),
(482,168,cs),
(482,377,l),
(449,424,o),
(396,452,o),
(339,452,cs),
(282,452,o),
(229,424,o),
(196,377,c),
(208,452,l),
(154,444,o),
(100,440,o),
(46,440,c),
(46,412,l),
(94,412,l),
(102,366,o),
(106,319,o),
(106,272,cs),
(106,168,ls),
(106,121,o),
(102,74,o),
(94,28,c),
(46,28,l),
(46,0,l),
(256,0,l),
(256,28,l),
(208,28,l),
(200,74,o),
(196,121,o),
(196,168,cs),
(196,328,l),
(215,379,o),
(264,414,o),
(319,414,cs),
(361,414,o),
(392,376,o),
(392,333,cs),
(392,168,ls),
(392,121,o),
(388,74,o),
(380,28,c),
(332,28,l),
(332,0,l)
);
}
);
visible = 1;
width = 600;
}
);
unicode = 110;
},
{
color = 6;
glyphname = eng;
kernLeft = n;
lastChange = "2023-03-10 14:52:46 +0000";
layers = (
{
anchors = (
{
name = bottom;
pos = (297,0);
},
{
name = top;
pos = (307,440);
}
);
layerId = "45069982-2EFC-4B7D-8C53-1932E6EAC4CA";
shapes = (
{
closed = 1;
nodes = (
(78,0,o),
(113,0,o),
(152,0,cs),
(190,0,o),
(225,0,o),
(266,-2,c),
(268,8,o),
(268,25,o),
(266,35,c),
(209,35,l),
(202,85,o),
(199,130,o),
(199,180,cs),
(199,330,l),
(189,375,l),
(189,395,o),
(192,429,o),
(199,453,c),
(143,442,o),
(89,440,o),
(42,440,c),
(40,430,o),
(40,413,o),
(42,403,c),
(94,403,l),
(101,353,o),
(104,310,o),
(104,260,cs),
(104,180,ls),
(104,130,o),
(101,85,o),
(94,35,c),
(37,35,l),
(35,25,o),
(35,8,o),
(37,-2,c)
);
},
{
closed = 1;
nodes = (
(489,316,ls),
(489,336,o),
(490,356,o),
(492,376,c),
(466,422,o),
(430,455,o),
(352,455,cs),
(279,455,o),
(225,426,o),
(189,375,c),
(199,330,l),
(226,381,o),
(267,405,o),
(314,405,cs),
(375,405,o),
(394,365,o),
(394,316,cs),
(394,-10,ls),
(394,-92,o),
(376,-177,o),
(301,-187,c),
(299,-200,o),
(299,-212,o),
(301,-225,c),
(432,-220,o),
(484,-116,o),
(496,-40,c),
(489,-2,o),
(489,36,o),
(489,74,cs)
);
}
);
userData = {
com.hugojourdan.ColorFlow = {
"0" = 0;
"1" = 0;
"10" = 0;
"11" = 0;
"2" = 0;
"3" = 0;
"4" = 0;
"5" = 0;
"6" = 0;
"7" = 0;
"8" = 0;
"9" = 0;
};
};
width = 562;
},
{
anchors = (
{
name = bottom;
pos = (312,0);
},
{
name = top;
pos = (332,460);
}
);
layerId = "503E420B-61F7-4277-A1BE-A8852071B452";
shapes = (
{
closed = 1;
nodes = (
(78,0,o),
(123,0,o),
(159,0,cs),
(195,0,o),
(240,0,o),
(286,-2,c),
(288,8,o),
(288,25,o),
(286,35,c),
(234,35,l),
(227,80,o),
(224,130,o),
(224,190,cs),
(224,350,l),
(214,395,l),
(216,424,o),
(219,458,o),
(224,475,c),
(161,464,o),
(114,460,o),
(37,460,c),
(35,450,o),
(35,433,o),
(37,423,c),
(84,423,l),
(91,378,o),
(94,330,o),
(94,270,cs),
(94,190,ls),
(94,130,o),
(91,80,o),
(84,35,c),
(32,35,l),
(30,25,o),
(30,8,o),
(32,-2,c)
);
},
{
closed = 1;
nodes = (
(534,306,ls),
(534,326,o),
(535,356,o),
(539,376,c),
(516,441,o),
(471,475,o),
(388,475,cs),
(300,475,o),
(243,436,o),
(214,395,c),
(224,350,l),
(254,390,o),
(284,415,o),
(331,415,cs),
(385,415,o),
(404,372,o),
(404,318,cs),
(404,-10,ls),
(404,-92,o),
(386,-177,o),
(311,-187,c),
(309,-200,o),
(309,-212,o),
(311,-225,c),
(442,-220,o),
(529,-116,o),
(541,-40,c),
(534,-2,o),
(534,36,o),
(534,74,cs)
);
}
);
userData = {
com.hugojourdan.ColorFlow = {
"0" = 0;
"1" = 0;
"10" = 0;
"11" = 0;
"2" = 0;
"3" = 0;
"4" = 0;
"5" = 0;
"6" = 0;
"7" = 0;
"8" = 0;
"9" = 0;
};
};
width = 601;
}
);
unicode = 331;
},
{
color = 3;
glyphname = oslash;
kernLeft = o;
kernRight = o;
lastChange = "2023-03-10 14:52:46 +0000";
layers = (
{
layerId = "45069982-2EFC-4B7D-8C53-1932E6EAC4CA";
shapes = (
{
closed = 1;
nodes = (
(428,275,o),
(96,197,o),
(66,-40,c),
(86,-43,o),
(97,-43,o),
(117,-40,c),
(124,166,o),
(456,243,o),
(486,480,c),
(466,483,o),
(455,483,o),
(435,480,c)
);
},
{
pos = (3,0);
ref = o;
}
);
userData = {
com.hugojourdan.ColorFlow = {
"0" = 0;
"1" = 0;
"10" = 0;
"11" = 0;
"2" = 0;
"3" = 0;
"4" = 0;
"5" = 0;
"6" = 0;
"7" = 0;
"8" = 0;
"9" = 0;
};
};
width = 552;
},
{
layerId = "503E420B-61F7-4277-A1BE-A8852071B452";
shapes = (
{
closed = 1;
nodes = (
(437,295,o),
(105,197,o),
(75,-40,c),
(95,-43,o),
(106,-43,o),
(126,-40,c),
(133,166,o),
(465,263,o),
(495,500,c),
(475,503,o),
(464,503,o),
(444,500,c)
);
},
{
ref = o;
}
);
userData = {
com.hugojourdan.ColorFlow = {
"0" = 0;
"1" = 0;
"10" = 0;
"11" = 0;
"2" = 0;
"3" = 0;
"4" = 0;
"5" = 0;
"6" = 0;
"7" = 0;
"8" = 0;
"9" = 0;
};
};
width = 570;
}
);
unicode = 248;
},
{
color = 3;
glyphname = p;
kernRight = b;
lastChange = "2023-03-10 14:52:46 +0000";
layers = (
{
anchors = (
{
name = bottom;
pos = (285,0);
},
{
name = top;
pos = (285,440);
}
);
layerId = "45069982-2EFC-4B7D-8C53-1932E6EAC4CA";
shapes = (
{
closed = 1;
nodes = (
(69,-210,o),
(104,-210,o),
(143,-210,cs),
(181,-210,o),
(216,-210,o),
(277,-212,c),
(279,-202,o),
(279,-185,o),
(277,-175,c),
(200,-175,l),
(193,-125,o),
(190,-80,o),
(190,-30,cs),
(190,330,l),
(180,375,l),
(180,395,o),
(183,429,o),
(190,453,c),
(134,442,o),
(80,440,o),
(33,440,c),
(31,430,o),
(31,413,o),
(33,403,c),
(85,403,l),
(92,353,o),
(95,310,o),
(95,260,cs),
(95,-30,ls),
(95,-80,o),
(92,-125,o),
(85,-175,c),
(28,-175,l),
(26,-185,o),
(26,-202,o),
(28,-212,c)
);
},
{
angle = 180;
pos = (573,440);
ref = _COM_brzuch_bdpq;
}
);
userData = {
com.hugojourdan.ColorFlow = {
"0" = 0;
"1" = 0;
"10" = 0;
"11" = 0;
"2" = 0;
"3" = 0;
"4" = 0;
"5" = 0;
"6" = 0;
"7" = 0;
"8" = 0;
"9" = 0;
};
};
width = 571;
},
{
anchors = (
{
name = bottom;
pos = (297,0);
},
{
name = top;
pos = (297,460);
}
);
layerId = "503E420B-61F7-4277-A1BE-A8852071B452";
shapes = (
{
closed = 1;
nodes = (
(70,-210,o),
(115,-210,o),
(151,-210,cs),
(187,-210,o),
(252,-210,o),
(298,-212,c),
(300,-202,o),
(300,-185,o),
(298,-175,c),
(226,-175,l),
(219,-130,o),
(216,-80,o),
(216,-20,cs),
(216,350,l),
(206,395,l),
(208,424,o),
(211,458,o),
(216,475,c),
(153,464,o),
(106,460,o),
(29,460,c),
(27,450,o),
(27,433,o),
(29,423,c),
(76,423,l),
(83,378,o),
(86,330,o),
(86,270,cs),
(86,-20,ls),
(86,-80,o),
(83,-130,o),
(76,-175,c),
(24,-175,l),
(22,-185,o),
(22,-202,o),
(24,-212,c)
);
},
{
angle = 180;
pos = (596,460);
ref = _COM_brzuch_bdpq;
}
);
userData = {
com.hugojourdan.ColorFlow = {
"0" = 0;
"1" = 0;
"10" = 0;
"11" = 0;
"2" = 0;
"3" = 0;
"4" = 0;
"5" = 0;
"6" = 0;
"7" = 0;
"8" = 0;
"9" = 0;
};
};
width = 602;
}
);
unicode = 112;
},
{
color = 3;
glyphname = thorn;
kernLeft = b;
kernRight = b;
lastChange = "2023-03-10 14:52:46 +0000";
layers = (
{
anchors = (
{
name = bottom;
pos = (268,0);
},
{
name = top;
pos = (268,440);
}
);
layerId = "45069982-2EFC-4B7D-8C53-1932E6EAC4CA";
shapes = (
{
closed = 1;
nodes = (
(183,-175,l),
(176,-125,o),
(173,-80,o),
(173,-30,cs),
(173,520,ls),
(173,570,o),
(176,663,o),
(188,713,c),
(127,702,o),
(58,700,o),
(11,700,c),
(9,690,o),
(9,673,o),
(11,663,c),
(68,663,l),
(75,613,o),
(78,570,o),
(78,520,cs),
(78,-30,ls),
(78,-80,o),
(75,-125,o),
(68,-175,c),
(11,-175,l),
(9,-185,o),
(9,-202,o),
(11,-212,c),
(52,-210,o),
(87,-210,o),
(126,-210,cs),
(164,-210,o),
(199,-210,o),
(260,-212,c),
(262,-202,o),
(262,-185,o),
(260,-175,c)
);
},
{
angle = 180;
pos = (556,440);
ref = _COM_brzuch_bdpq;
}
);
userData = {
com.hugojourdan.ColorFlow = {
"0" = 0;
"1" = 0;
"10" = 0;
"11" = 0;
"2" = 0;
"3" = 0;
"4" = 0;
"5" = 0;
"6" = 0;
"7" = 0;
"8" = 0;
"9" = 0;
};
};
width = 554;
},
{
anchors = (
{
name = bottom;
pos = (283,0);
},
{
name = top;
pos = (283,460);
}
);
layerId = "503E420B-61F7-4277-A1BE-A8852071B452";
shapes = (
{
closed = 1;
nodes = (
(212,-175,l),
(205,-130,o),
(202,-80,o),
(202,-20,cs),
(202,510,ls),
(202,570,o),
(205,670,o),
(217,715,c),
(154,704,o),
(87,700,o),
(10,700,c),
(8,690,o),
(8,673,o),
(10,663,c),
(62,663,l),
(69,618,o),
(72,570,o),
(72,510,cs),
(72,-20,ls),
(72,-80,o),
(69,-130,o),
(62,-175,c),
(10,-175,l),
(8,-185,o),
(8,-202,o),
(10,-212,c),
(56,-210,o),
(101,-210,o),
(137,-210,cs),
(173,-210,o),
(238,-210,o),
(284,-212,c),
(286,-202,o),
(286,-185,o),
(284,-175,c)
);
},
{
angle = 180;
pos = (582,460);
ref = _COM_brzuch_bdpq;
}
);
userData = {
com.hugojourdan.ColorFlow = {
"0" = 0;
"1" = 0;
"10" = 0;
"11" = 0;
"2" = 0;
"3" = 0;
"4" = 0;
"5" = 0;
"6" = 0;
"7" = 0;
"8" = 0;
"9" = 0;
};
};
width = 588;
}
);
unicode = 254;
},
{
color = 3;
glyphname = q;
kernLeft = d;
lastChange = "2023-03-10 14:52:46 +0000";
layers = (
{
anchors = (
{
name = bottom;
pos = (262,0);
},
{
name = top;
pos = (262,440);
}
);
layerId = "45069982-2EFC-4B7D-8C53-1932E6EAC4CA";
shapes = (
{
closed = 1;
nodes = (
(486,-175,l),
(479,-125,o),
(476,-80,o),
(476,-30,cs),
(476,260,ls),
(476,310,o),
(479,390,o),
(486,440,c),
(475,442,o),
(465,442,o),
(454,440,c),
(381,375,l),
(381,-30,ls),
(381,-80,o),
(378,-125,o),
(371,-175,c),
(294,-175,l),
(292,-185,o),
(292,-202,o),
(294,-212,c),
(355,-210,o),
(390,-210,o),
(428,-210,cs),
(467,-210,o),
(502,-210,o),
(543,-212,c),
(545,-202,o),
(545,-185,o),
(543,-175,c)
);
},
{
pos = (-2,0);
ref = _COM_brzuch_bdpq;
}
);
userData = {
com.hugojourdan.ColorFlow = {
"0" = 0;
"1" = 0;
"10" = 0;
"11" = 0;
"2" = 0;
"3" = 0;
"4" = 0;
"5" = 0;
"6" = 0;
"7" = 0;
"8" = 0;
"9" = 0;
};
};
width = 555;
},
{
anchors = (
{
name = bottom;
pos = (295,0);
},
{
name = top;
pos = (295,460);
}
);
layerId = "503E420B-61F7-4277-A1BE-A8852071B452";
shapes = (
{
closed = 1;
nodes = (
(526,-175,l),
(519,-130,o),
(516,-80,o),
(516,-20,cs),
(516,270,ls),
(516,330,o),
(519,415,o),
(526,460,c),
(515,462,o),
(505,462,o),
(494,460,c),
(386,392,l),
(386,-20,ls),
(386,-80,o),
(383,-130,o),
(376,-175,c),
(304,-175,l),
(302,-185,o),
(302,-202,o),
(304,-212,c),
(350,-210,o),
(415,-210,o),
(451,-210,cs),
(487,-210,o),
(532,-210,o),
(578,-212,c),
(580,-202,o),
(580,-185,o),
(578,-175,c)
);
},
{
pos = (6,0);
ref = _COM_brzuch_bdpq;
}
);
userData = {
com.hugojourdan.ColorFlow = {
"0" = 0;
"1" = 0;
"10" = 0;
"11" = 0;
"2" = 0;
"3" = 0;
"4" = 0;
"5" = 0;
"6" = 0;
"7" = 0;
"8" = 0;
"9" = 0;
};
};
width = 590;
}
);
unicode = 113;
},
{
color = 6;
glyphname = r;
kernLeft = n;
kernRight = r;
lastChange = "2023-03-10 14:52:46 +0000";
layers = (
{
anchors = (
{
name = bottom;
pos = (152,0);
},
{
name = top;
pos = (239,440);
}
);
layerId = "45069982-2EFC-4B7D-8C53-1932E6EAC4CA";
shapes = (
{
closed = 1;
nodes = (
(78,0,o),
(113,0,o),
(152,0,cs),
(190,0,o),
(225,0,o),
(296,-2,c),
(298,8,o),
(298,25,o),
(296,35,c),
(209,35,l),
(202,85,o),
(199,130,o),
(199,180,cs),
(199,320,l),
(189,365,l),
(189,395,o),
(192,429,o),
(199,453,c),
(143,442,o),
(89,440,o),
(42,440,c),
(40,430,o),
(40,413,o),
(42,403,c),
(94,403,l),
(101,353,o),
(104,310,o),
(104,260,cs),
(104,180,ls),
(104,130,o),
(101,85,o),
(94,35,c),
(37,35,l),
(35,25,o),
(35,8,o),
(37,-2,c)
);
},
{
closed = 1;
nodes = (
(423,325,l),
(428,418,o),
(398,455,o),
(324,455,cs),
(262,455,o),
(221,422,o),
(189,365,c),
(199,320,l),
(230,375,o),
(255,405,o),
(287,405,cs),
(320,405,o),
(328,374,o),
(323,325,c)
);
}
);
userData = {
com.hugojourdan.ColorFlow = {
"0" = 0;
"1" = 0;
"10" = 0;
"11" = 0;
"2" = 0;
"3" = 0;
"4" = 0;
"5" = 0;
"6" = 0;
"7" = 0;
"8" = 0;
"9" = 0;
};
};
width = 444;
},
{
anchors = (
{
name = bottom;
pos = (159,0);
},
{
name = top;
pos = (263,460);
}
);
layerId = "503E420B-61F7-4277-A1BE-A8852071B452";
shapes = (
{
closed = 1;
nodes = (
(78,0,o),
(123,0,o),
(159,0,cs),
(195,0,o),
(240,0,o),
(316,-2,c),
(318,8,o),
(318,25,o),
(316,35,c),
(234,35,l),
(227,80,o),
(224,130,o),
(224,190,cs),
(224,325,l),
(214,380,l),
(216,424,o),
(219,458,o),
(224,475,c),
(161,464,o),
(114,460,o),
(37,460,c),
(35,450,o),
(35,433,o),
(37,423,c),
(84,423,l),
(91,378,o),
(94,330,o),
(94,270,cs),
(94,190,ls),
(94,130,o),
(91,80,o),
(84,35,c),
(32,35,l),
(30,25,o),
(30,8,o),
(32,-2,c)
);
},
{
closed = 1;
nodes = (
(463,320,l),
(470,399,o),
(457,475,o),
(357,475,cs),
(287,475,o),
(246,441,o),
(214,380,c),
(224,325,l),
(251,385,o),
(275,405,o),
(300,405,cs),
(329,405,o),
(338,374,o),
(333,320,c)
);
}
);
userData = {
com.hugojourdan.ColorFlow = {
"0" = 0;
"1" = 0;
"10" = 0;
"11" = 0;
"2" = 0;
"3" = 0;
"4" = 0;
"5" = 0;
"6" = 0;
"7" = 0;
"8" = 0;
"9" = 0;
};
};
width = 480;
}
);
unicode = 114;
},
{
color = 6;
glyphname = s;
kernLeft = s;
kernRight = s;
lastChange = "2023-03-10 14:52:46 +0000";
layers = (
{
anchors = (
{
name = bottom;
pos = (227,0);
},
{
name = top;
pos = (227,440);
}
);
layerId = "45069982-2EFC-4B7D-8C53-1932E6EAC4CA";
shapes = (
{
closed = 1;
nodes = (
(344,-15,o),
(416,36,o),
(416,125,cs),
(416,293,o),
(133,243,o),
(133,347,cs),
(133,389,o),
(165,415,o),
(227,415,cs),
(296,415,o),
(330,378,o),
(345,300,c),
(356,298,o),
(366,298,o),
(377,300,c),
(377,427,l),
(335,446,o),
(287,455,o),
(239,455,cs),
(125,455,o),
(63,403,o),
(63,322,cs),
(63,137,o),
(336,204,o),
(336,96,cs),
(336,50,o),
(292,25,o),
(232,25,cs),
(142,25,o),
(101,73,o),
(84,153,c),
(73,155,o),
(63,155,o),
(52,153,c),
(52,15,l),
(112,-5,o),
(164,-15,o),
(222,-15,cs)
);
}
);
userData = {
com.hugojourdan.ColorFlow = {
"0" = 0;
"1" = 0;
"10" = 0;
"11" = 0;
"2" = 0;
"3" = 0;
"4" = 0;
"5" = 0;
"6" = 0;
"7" = 0;
"8" = 0;
"9" = 0;
};
};
width = 458;
},
{
anchors = (
{
name = bottom;
pos = (241,0);
},
{
name = top;
pos = (241,460);
}
);
layerId = "503E420B-61F7-4277-A1BE-A8852071B452";
shapes = (
{
closed = 1;
nodes = (
(365,-15,o),
(444,42,o),
(444,135,cs),
(444,319,o),
(165,262,o),
(165,374,cs),
(165,412,o),
(191,435,o),
(246,435,cs),
(308,435,o),
(355,393,o),
(372,305,c),
(383,303,o),
(393,303,o),
(404,305,c),
(404,442,l),
(361,462,o),
(312,475,o),
(250,475,cs),
(129,475,o),
(55,421,o),
(55,328,cs),
(55,141,o),
(324,200,o),
(324,89,cs),
(324,43,o),
(284,25,o),
(230,25,cs),
(145,25,o),
(100,80,o),
(82,163,c),
(71,165,o),
(61,165,o),
(50,163,c),
(50,15,l),
(103,-3,o),
(176,-15,o),
(227,-15,cs)
);
}
);
userData = {
com.hugojourdan.ColorFlow = {
"0" = 0;
"1" = 0;
"10" = 0;
"11" = 0;
"2" = 0;
"3" = 0;
"4" = 0;
"5" = 0;
"6" = 0;
"7" = 0;
"8" = 0;
"9" = 0;
};
};
width = 481;
},
{
associatedMasterId = "503E420B-61F7-4277-A1BE-A8852071B452";
layerId = "1DB7C17D-DC03-47D7-8B46-F3184C6B77B3";
name = "Nov 4 20, 23:09";
shapes = (
{
closed = 1;
nodes = (
(394,220,o),
(304,268,o),
(212,284,cs),
(159,292,o),
(98,301,o),
(98,349,cs),
(98,396,o),
(150,420,o),
(202,420,cs),
(262,420,o),
(318,383,o),
(318,327,c),
(350,327,l),
(350,420,l),
(304,441,o),
(253,452,o),
(202,452,cs),
(113,452,o),
(33,395,o),
(33,311,cs),
(33,232,o),
(109,179,o),
(192,165,cs),
(253,155,o),
(328,152,o),
(328,95,cs),
(328,41,o),
(264,20,o),
(202,20,cs),
(124,20,o),
(54,71,o),
(54,144,c),
(22,144,l),
(22,20,l),
(80,-1,o),
(141,-12,o),
(202,-12,cs),
(301,-12,o),
(394,43,o),
(394,133,cs)
);
}
);
width = 600;
},
{
associatedMasterId = "45069982-2EFC-4B7D-8C53-1932E6EAC4CA";
layerId = "F22CFE7B-DD99-4B70-9427-93332CE80171";
name = "Nov 4 20, 23:09";
shapes = (
{
closed = 1;
nodes = (
(374,209,o),
(288,252,o),
(203,269,cs),
(148,279,o),
(86,295,o),
(86,346,cs),
(86,395,o),
(139,424,o),
(194,424,cs),
(253,424,o),
(306,383,o),
(306,327,c),
(334,327,l),
(334,420,l),
(290,441,o),
(242,452,o),
(194,452,cs),
(110,452,o),
(35,396,o),
(35,316,cs),
(35,242,o),
(108,195,o),
(185,180,cs),
(249,168,o),
(323,157,o),
(323,98,cs),
(323,42,o),
(258,16,o),
(194,16,cs),
(119,16,o),
(54,71,o),
(54,144,c),
(26,144,l),
(26,20,l),
(79,-1,o),
(136,-12,o),
(194,-12,cs),
(287,-12,o),
(374,42,o),
(374,128,cs)
);
}
);
width = 600;
}
);
unicode = 115;
},
{
color = 6;
glyphname = germandbls;
lastChange = "2023-03-10 14:52:46 +0000";
layers = (
{
anchors = (
{
name = bottom;
pos = (169,0);
},
{
name = top;
pos = (169,800);
}
);
layerId = "45069982-2EFC-4B7D-8C53-1932E6EAC4CA";
shapes = (
{
closed = 1;
nodes = (
(201,440,l),
(36,440,l),
(34,428,o),
(34,412,o),
(36,400,c),
(201,400,l)
);
},
{
closed = 1;
nodes = (
(211,0,l),
(204,85,o),
(201,130,o),
(201,180,cs),
(201,400,l),
(101,400,l),
(106,353,o),
(106,307,o),
(106,260,cs),
(106,180,ls),
(106,130,o),
(103,85,o),
(96,35,c),
(39,35,l),
(37,25,o),
(37,8,o),
(39,-2,c),
(80,0,o),
(115,0,o),
(154,0,c)
);
},
{
closed = 1;
nodes = (
(389,454,o),
(434,491,o),
(486,491,c),
(486,633,o),
(426,720,o),
(306,720,cs),
(181,720,o),
(109,628,o),
(99,440,c),
(201,440,l),
(201,604,o),
(229,685,o),
(303,685,cs),
(359,685,o),
(391,633,o),
(391,558,c),
(391,460,o),
(319,448,o),
(319,355,cs),
(319,210,o),
(473,207,o),
(473,96,cs),
(473,50,o),
(449,25,o),
(404,25,cs),
(351,25,o),
(315,61,o),
(306,123,c),
(295,125,o),
(285,125,o),
(274,123,c),
(274,5,l),
(334,-12,o),
(366,-15,o),
(401,-15,cs),
(501,-15,o),
(558,44,o),
(558,115,cs),
(558,273,o),
(389,303,o),
(389,400,cs)
);
}
);
userData = {
com.hugojourdan.ColorFlow = {
"0" = 0;
"1" = 0;
"10" = 0;
"11" = 0;
"2" = 0;
"3" = 0;
"4" = 0;
"5" = 0;
"6" = 0;
"7" = 0;
"8" = 0;
"9" = 0;
};
};
width = 599;
},
{
anchors = (
{
name = bottom;
pos = (155,0);
},
{
name = top;
pos = (155,800);
}
);
layerId = "503E420B-61F7-4277-A1BE-A8852071B452";
shapes = (
{
closed = 1;
nodes = (
(229,460,l),
(29,460,l),
(27,448,o),
(27,427,o),
(29,415,c),
(229,415,l)
);
},
{
closed = 1;
nodes = (
(239,0,l),
(232,80,o),
(229,130,o),
(229,190,cs),
(229,415,l),
(94,415,l),
(99,368,o),
(99,327,o),
(99,280,cs),
(99,190,ls),
(99,130,o),
(96,80,o),
(89,35,c),
(37,35,l),
(35,25,o),
(35,8,o),
(37,-2,c),
(83,0,o),
(128,0,o),
(164,0,c)
);
},
{
closed = 1;
nodes = (
(402,456,o),
(428,505,o),
(522,505,c),
(522,665,o),
(422,720,o),
(321,720,cs),
(187,720,o),
(104,665,o),
(94,460,c),
(229,460,l),
(229,562,o),
(242,683,o),
(316,683,cs),
(357,683,o),
(394,651,o),
(394,574,cs),
(394,462,o),
(302,448,o),
(302,350,cs),
(302,228,o),
(461,195,o),
(461,79,cs),
(461,47,o),
(446,25,o),
(402,25,cs),
(347,25,o),
(307,80,o),
(299,143,c),
(288,145,o),
(278,145,o),
(267,143,c),
(267,15,l),
(320,-3,o),
(368,-15,o),
(399,-15,cs),
(527,-15,o),
(581,62,o),
(581,135,cs),
(581,271,o),
(402,337,o),
(402,414,cs)
);
}
);
userData = {
com.hugojourdan.ColorFlow = {
"0" = 0;
"1" = 0;
"10" = 0;
"11" = 0;
"2" = 0;
"3" = 0;
"4" = 0;
"5" = 0;
"6" = 0;
"7" = 0;
"8" = 0;
"9" = 0;
};
};
width = 614;
}
);
unicode = 223;
},
{
color = 6;
glyphname = t;
kernLeft = t;
kernRight = t;
lastChange = "2023-03-10 14:52:46 +0000";
layers = (
{
anchors = (
{
name = bottom;
pos = (195,0);
},
{
name = center;
pos = (175,220);
},
{
name = top;
pos = (175,440);
},
{
name = topright;
pos = (315,440);
}
);
guides = (
{
pos = (95,310);
}
);
layerId = "45069982-2EFC-4B7D-8C53-1932E6EAC4CA";
shapes = (
{
closed = 1;
nodes = (
(265,-15,o),
(291,3,o),
(315,29,c),
(307,40,o),
(299,49,o),
(289,56,c),
(274,40,o),
(251,30,o),
(231,30,cs),
(204,30,o),
(190,47,o),
(190,93,cs),
(190,308,l),
(190,397,o),
(190,486,o),
(196,575,c),
(185,577,o),
(175,577,o),
(164,575,c),
(149,545,o),
(122,516,o),
(87,505,c),
(95,449,o),
(95,363,o),
(95,310,cs),
(95,89,ls),
(95,16,o),
(141,-15,o),
(211,-15,cs)
);
},
{
closed = 1;
nodes = (
(305,400,l),
(307,412,o),
(307,428,o),
(305,440,c),
(25,440,l),
(23,428,o),
(23,412,o),
(25,400,c)
);
}
);
userData = {
com.hugojourdan.ColorFlow = {
"0" = 0;
"1" = 0;
"10" = 0;
"11" = 0;
"2" = 0;
"3" = 0;
"4" = 0;
"5" = 0;
"6" = 0;
"7" = 0;
"8" = 0;
"9" = 0;
};
};
width = 336;
},
{
anchors = (
{
name = bottom;
pos = (199,0);
},
{
name = center;
pos = (179,230);
},
{
name = top;
pos = (179,460);
},
{
name = topright;
pos = (326,460);
}
);
guides = (
{
pos = (92,310);
}
);
layerId = "503E420B-61F7-4277-A1BE-A8852071B452";
shapes = (
{
closed = 1;
nodes = (
(286,-15,o),
(322,11,o),
(346,40,c),
(339,51,o),
(331,61,o),
(320,68,c),
(303,49,o),
(282,40,o),
(263,40,cs),
(234,40,o),
(217,55,o),
(217,104,cs),
(217,310,l),
(217,408,o),
(217,507,o),
(222,605,c),
(211,607,o),
(201,607,o),
(190,605,c),
(179,565,o),
(120,530,o),
(77,520,c),
(87,450,o),
(87,380,o),
(87,310,c),
(87,104,ls),
(87,11,o),
(138,-15,o),
(228,-15,cs)
);
},
{
closed = 1;
nodes = (
(332,415,l),
(334,427,o),
(334,448,o),
(332,460,c),
(17,460,l),
(15,448,o),
(15,427,o),
(17,415,c)
);
}
);
userData = {
com.hugojourdan.ColorFlow = {
"0" = 0;
"1" = 0;
"10" = 0;
"11" = 0;
"2" = 0;
"3" = 0;
"4" = 0;
"5" = 0;
"6" = 0;
"7" = 0;
"8" = 0;
"9" = 0;
};
};
width = 361;
},
{
associatedMasterId = "45069982-2EFC-4B7D-8C53-1932E6EAC4CA";
layerId = "5BDDCDAA-D73D-46F2-9D5E-EB74C5F5D80D";
name = "Nov 3 20, 19:51";
shapes = (
{
closed = 1;
nodes = (
(262,52,l),
(248,52,l),
(240,40,o),
(218,28,o),
(203,28,cs),
(169,28,o),
(164,72,o),
(164,112,cs),
(164,412,l),
(262,412,l),
(262,440,l),
(164,440,l),
(164,560,l),
(136,560,l),
(135,543,o),
(91,500,o),
(74,500,c),
(74,440,l),
(26,440,l),
(26,412,l),
(74,412,l),
(74,68,ls),
(74,16,o),
(113,-12,o),
(168,-12,cs),
(202,-12,o),
(236,1,o),
(262,24,c)
);
}
);
visible = 1;
width = 600;
},
{
associatedMasterId = "503E420B-61F7-4277-A1BE-A8852071B452";
layerId = "9B66B66E-7C87-4A83-A0AE-97CE6C3828F3";
name = "Nov 3 20, 19:51";
shapes = (
{
closed = 1;
nodes = (
(272,56,l),
(256,56,l),
(252,44,o),
(235,32,o),
(223,32,cs),
(191,32,o),
(190,75,o),
(190,112,cs),
(190,408,l),
(272,408,l),
(272,440,l),
(190,440,l),
(190,560,l),
(158,560,l),
(151,542,o),
(89,500,o),
(70,500,c),
(70,440,l),
(22,440,l),
(22,408,l),
(70,408,l),
(70,68,ls),
(70,14,o),
(113,-12,o),
(172,-12,cs),
(209,-12,o),
(244,1,o),
(272,24,c)
);
}
);
width = 600;
}
);
unicode = 116;
},
{
color = 3;
glyphname = tbar;
kernLeft = t;
kernRight = t;
lastChange = "2023-03-10 14:52:46 +0000";
layers = (
{
layerId = "45069982-2EFC-4B7D-8C53-1932E6EAC4CA";
shapes = (
{
closed = 1;
nodes = (
(312,237,o),
(312,253,o),
(309,270,c),
(29,270,l),
(26,253,o),
(26,237,o),
(29,220,c),
(309,220,l)
);
},
{
pos = (4,0);
ref = t;
}
);
userData = {
com.hugojourdan.ColorFlow = {
"0" = 0;
"1" = 0;
"10" = 0;
"11" = 0;
"2" = 0;
"3" = 0;
"4" = 0;
"5" = 0;
"6" = 0;
"7" = 0;
"8" = 0;
"9" = 0;
};
};
width = 346;
},
{
layerId = "503E420B-61F7-4277-A1BE-A8852071B452";
shapes = (
{
closed = 1;
nodes = (
(328,237,o),
(328,253,o),
(325,270,c),
(25,270,l),
(22,253,o),
(22,237,o),
(25,220,c),
(325,220,l)
);
},
{
pos = (3,0);
ref = t;
}
);
userData = {
com.hugojourdan.ColorFlow = {
"0" = 0;
"1" = 0;
"10" = 0;
"11" = 0;
"2" = 0;
"3" = 0;
"4" = 0;
"5" = 0;
"6" = 0;
"7" = 0;
"8" = 0;
"9" = 0;
};
};
width = 368;
}
);
unicode = 359;
},
